SplineFontDB: 3.0
FontName: Latte-Bold
FullName: Latte Bold
FamilyName: Latte
Weight: Bold
Copyright: Copyright (c) 2016 by Guillaume Litaudon (www.guillaumelitaudon.com) with Reserved Font Name "Latte".\nThis Font Software is licensed under the SIL Open Font License, Version 1.1.\n\nLatte is a variation of Carlito.\nCarlito is Copyright (c) 2010-2013 by tyPoland Lukasz Dziedzic with Reserved Font Name "Carlito". Licensed under the SIL Open Font License, Version 1.1.
FontLog: "# FONTLOG for the Latte Bold font+AAoACgAA-This file provides detailed information on the Latte Bold font Software.+AAoACgAA-This information should be distributed along with the Latte fonts and any derivative works.+AAoACgAA## Basic Font Information+AAoACgAA-Latte is a modification of Google's Carlito fonts. +AAoACgAA-Carlito is based on Lato fonts by +AUEA-ukasz Dziedzic (http://www.lukaszdziedzic.eu/), changing the metrics to match Microsoft's Calibri.+AAoACgAA## Source files+AAoA-- Latte-Bold.sfd (Bold weight)+AAoACgAA## ChangeLog+AAoACgAA-29 October 2016 (Guillaume Litaudon) Latte v. 0.1+AAoA--+AKAA-Inverted g.salt and g+AAoA-- Inverted uni0123.salt and uni0123+AAoA-- Inverted gcircumflex.salt and gcircumflex+AAoA-- Inverted gdotaccent.salt and gdotaccent+AAoA-- Inverted gbreve.salt and gbreve+AAoA-- Inverted gcaron.salt and gcaron+AAoA-- Inverted uni01F5.salt and uni01F5+AAoA-- Inverted uni1E21.salt and uni01E21+AAoA-- Inverted uni01E5.salt and uni01E5+AAoA-- Modified uni0261 and added uni0261.salt+AAoACgAKAAoA-If you make modifications be sure to add your name (N), +AAoA-email (E), web-address (if you have one) (W) and description (D). +AAoA-This list is in alphabetical order.+AAoACgAA-N: Guillaume Litaudon+AAoA-E: guillaume.litaudon@gmail.com+AAoA-W: www.guillaumelitaudon.fr+AAoA-D: Fonts Original Author+AAoACgAA-N: +AUEA-ukasz Dziedzic+AAoA-W: www.lukaszdziedzic.eu+AAoA-D: Typeface Original Author"
Version: 0.2
ItalicAngle: 0
UnderlinePosition: -200
UnderlineWidth: 194
Ascent: 1536

StartChar: .notdef
Encoding: 2116 -1 0
Width: 1038
GlyphClass: 2
Flags: W
LayerCount: 2
Fore
SplineSet
229 1109 m 1,0,1
 285 1154 285 1154 356 1184 c 128,-1,2
 427 1214 427 1214 524 1214 c 0,3,4
 594 1214 594 1214 649 1195.5 c 128,-1,5
 704 1177 704 1177 742 1143 c 128,-1,6
 780 1109 780 1109 800 1061.5 c 128,-1,7
 820 1014 820 1014 820 956 c 0,8,9
 820 903 820 903 807 865 c 128,-1,10
 794 827 794 827 773.5 798.5 c 128,-1,11
 753 770 753 770 729 749.5 c 128,-1,12
 705 729 705 729 683.5 711.5 c 128,-1,13
 662 694 662 694 645 677 c 128,-1,14
 628 660 628 660 623 639 c 2,15,-1
 601 548 l 1,16,-1
 427 548 l 1,17,-1
 409 657 l 2,18,19
 403 693 403 693 413.5 719 c 128,-1,20
 424 745 424 745 443.5 766 c 128,-1,21
 463 787 463 787 487.5 804.5 c 128,-1,22
 512 822 512 822 533.5 841.5 c 128,-1,23
 555 861 555 861 569.5 884.5 c 128,-1,24
 584 908 584 908 584 941 c 0,25,26
 584 972 584 972 563.5 991 c 128,-1,27
 543 1010 543 1010 501 1010 c 0,28,29
 467 1010 467 1010 444.5 1004 c 128,-1,30
 422 998 422 998 405.5 990.5 c 128,-1,31
 389 983 389 983 376 977 c 128,-1,32
 363 971 363 971 348 971 c 0,33,34
 312 971 312 971 296 1001 c 2,35,-1
 229 1109 l 1,0,1
368 307 m 0,36,37
 368 335 368 335 378.5 360 c 128,-1,38
 389 385 389 385 407.5 403.5 c 128,-1,39
 426 422 426 422 451 432.5 c 128,-1,40
 476 443 476 443 506 443 c 0,41,42
 534 443 534 443 559 432.5 c 128,-1,43
 584 422 584 422 602.5 403.5 c 128,-1,44
 621 385 621 385 631.5 360 c 128,-1,45
 642 335 642 335 642 307 c 0,46,47
 642 278 642 278 631.5 253.5 c 128,-1,48
 621 229 621 229 602.5 210.5 c 128,-1,49
 584 192 584 192 559 181.5 c 128,-1,50
 534 171 534 171 506 171 c 0,51,52
 476 171 476 171 451 181.5 c 128,-1,53
 426 192 426 192 407.5 210.5 c 128,-1,54
 389 229 389 229 378.5 253.5 c 128,-1,55
 368 278 368 278 368 307 c 0,36,37
40 1398 m 1,56,-1
 1023 1398 l 1,57,-1
 1023 0 l 1,58,-1
 40 0 l 1,59,-1
 40 1398 l 1,56,-1
105 69 m 1,60,-1
 949 69 l 1,61,-1
 949 1329 l 1,62,-1
 105 1329 l 1,63,-1
 105 69 l 1,60,-1
EndSplineSet
Validated: 1
EndChar

StartChar: glyph1
Encoding: 0 -1 1
AltUni2: 000000.ffffffff.0
Width: 0
Flags: W
LayerCount: 2
Fore
SplineSet
-17 -322 m 0,0,1
 -17 -314 -17 -314 -12 -309 c 128,-1,2
 -7 -304 -7 -304 0 -304 c 0,3,4
 8 -304 8 -304 13 -309 c 128,-1,5
 18 -314 18 -314 18 -322 c 0,6,7
 18 -329 18 -329 13 -334 c 128,-1,8
 8 -339 8 -339 0 -339 c 0,9,10
 -7 -339 -7 -339 -12 -334 c 128,-1,11
 -17 -329 -17 -329 -17 -322 c 0,0,1
EndSplineSet
Validated: 1
EndChar

StartChar: A
Encoding: 35 65 3
Width: 1241
GlyphClass: 2
Flags: W
LayerCount: 2
Fore
SplineSet
1240 0 m 1,0,-1
 1038 0 l 2,1,2
 1003 0 1003 0 982 16.5 c 128,-1,3
 961 33 961 33 951 58 c 2,4,-1
 867 319 l 1,5,-1
 378 319 l 1,6,-1
 295 59 l 2,7,8
 287 37 287 37 264.5 18.5 c 128,-1,9
 242 0 242 0 209 0 c 2,10,-1
 4 0 l 1,11,-1
 488 1328 l 1,12,-1
 756 1328 l 1,13,-1
 1240 0 l 1,0,-1
437 503 m 1,14,-1
 807 503 l 1,15,-1
 672 923 l 2,16,17
 660 954 660 954 647 995.5 c 128,-1,18
 634 1037 634 1037 621 1086 c 1,19,20
 609 1037 609 1037 596 995 c 128,-1,21
 583 953 583 953 572 922 c 2,22,-1
 437 503 l 1,14,-1
EndSplineSet
Validated: 1
Substitution2: "sous-table 'sups' Exposant lookups25" A.superior
Position2: "sous-table 'cpsp' Chasses pour composition en capitales lookups0" dx=40 dy=0 dh=80 dv=0
EndChar

StartChar: Aogonek
Encoding: 195 260 4
Width: 1241
GlyphClass: 2
Flags: W
LayerCount: 2
Fore
SplineSet
1217 -171 m 0,0,1
 1234 -171 1234 -171 1241 -188 c 2,2,-1
 1279 -282 l 1,3,4
 1247 -303 1247 -303 1198.5 -317 c 128,-1,5
 1150 -331 1150 -331 1096 -331 c 0,6,7
 999 -331 999 -331 947.5 -291 c 128,-1,8
 896 -251 896 -251 896 -188 c 0,9,10
 896 -137 896 -137 929.5 -89 c 128,-1,11
 963 -41 963 -41 1028 0 c 1,12,13
 998 2 998 2 979 18.5 c 128,-1,14
 960 35 960 35 951 58 c 2,15,-1
 867 319 l 1,16,-1
 378 319 l 1,17,-1
 295 59 l 2,18,19
 287 37 287 37 264.5 18.5 c 128,-1,20
 242 0 242 0 209 0 c 2,21,-1
 4 0 l 1,22,-1
 488 1328 l 1,23,-1
 756 1328 l 1,24,-1
 1240 0 l 1,25,-1
 1178 0 l 1,26,27
 1142 -20 1142 -20 1113.5 -52 c 128,-1,28
 1085 -84 1085 -84 1085 -124 c 0,29,30
 1085 -152 1085 -152 1102 -168 c 128,-1,31
 1119 -184 1119 -184 1150 -184 c 0,32,33
 1167 -184 1167 -184 1178 -182 c 128,-1,34
 1189 -180 1189 -180 1196 -177.5 c 128,-1,35
 1203 -175 1203 -175 1207.5 -173 c 128,-1,36
 1212 -171 1212 -171 1217 -171 c 0,0,1
437 503 m 1,37,-1
 807 503 l 1,38,-1
 672 923 l 2,39,40
 660 954 660 954 647 995.5 c 128,-1,41
 634 1037 634 1037 621 1086 c 1,42,43
 609 1037 609 1037 596 995 c 128,-1,44
 583 953 583 953 572 922 c 2,45,-1
 437 503 l 1,37,-1
EndSplineSet
Validated: 1
Position2: "sous-table 'cpsp' Chasses pour composition en capitales lookups0" dx=40 dy=0 dh=80 dv=0
EndChar

StartChar: AE
Encoding: 133 198 5
Width: 1588
GlyphClass: 2
Flags: W
LayerCount: 2
Fore
SplineSet
589 1328 m 1,0,-1
 1522 1328 l 1,1,-1
 1522 1119 l 1,2,-1
 956 1119 l 1,3,-1
 996 768 l 1,4,-1
 1405 768 l 1,5,-1
 1405 567 l 1,6,-1
 1019 567 l 1,7,-1
 1059 209 l 1,8,-1
 1522 209 l 1,9,-1
 1522 0 l 1,10,-1
 834 0 l 1,11,-1
 798 319 l 1,12,-1
 378 319 l 1,13,-1
 271 59 l 2,14,15
 258 33 258 33 233 16.5 c 128,-1,16
 208 0 208 0 173 0 c 2,17,-1
 -26 0 l 1,18,-1
 589 1328 l 1,0,-1
454 503 m 1,19,-1
 777 503 l 1,20,-1
 707 1128 l 1,21,22
 692 1080 692 1080 676 1038.5 c 128,-1,23
 660 997 660 997 643 962 c 2,24,-1
 454 503 l 1,19,-1
EndSplineSet
Validated: 1
Position2: "sous-table 'cpsp' Chasses pour composition en capitales lookups0" dx=40 dy=0 dh=80 dv=0
EndChar

StartChar: B
Encoding: 36 66 6
Width: 1148
GlyphClass: 2
Flags: W
LayerCount: 2
Fore
SplineSet
119 0 m 1,0,-1
 119 1328 l 1,1,-1
 570 1328 l 2,2,3
 698 1328 698 1328 789 1303 c 128,-1,4
 880 1278 880 1278 937.5 1232 c 128,-1,5
 995 1186 995 1186 1021.5 1120.5 c 128,-1,6
 1048 1055 1048 1055 1048 974 c 0,7,8
 1048 928 1048 928 1035 885 c 128,-1,9
 1022 842 1022 842 995 805 c 128,-1,10
 968 768 968 768 925.5 737.5 c 128,-1,11
 883 707 883 707 824 686 c 1,12,13
 1081 624 1081 624 1081 393 c 0,14,15
 1081 308 1081 308 1050 236 c 128,-1,16
 1019 164 1019 164 959.5 111.5 c 128,-1,17
 900 59 900 59 812.5 29.5 c 128,-1,18
 725 0 725 0 612 0 c 2,19,-1
 119 0 l 1,0,-1
382 577 m 1,20,-1
 382 204 l 1,21,-1
 607 204 l 2,22,23
 670 204 670 204 712 220 c 128,-1,24
 754 236 754 236 778.5 263 c 128,-1,25
 803 290 803 290 813 325.5 c 128,-1,26
 823 361 823 361 823 399 c 0,27,28
 823 440 823 440 811.5 473 c 128,-1,29
 800 506 800 506 774.5 529 c 128,-1,30
 749 552 749 552 707.5 564.5 c 128,-1,31
 666 577 666 577 606 577 c 2,32,-1
 382 577 l 1,20,-1
382 758 m 1,33,-1
 555 758 l 2,34,35
 666 758 666 758 726 800.5 c 128,-1,36
 786 843 786 843 786 941 c 0,37,38
 786 1043 786 1043 734 1084.5 c 128,-1,39
 682 1126 682 1126 570 1126 c 2,40,-1
 382 1126 l 1,41,-1
 382 758 l 1,33,-1
EndSplineSet
Validated: 1
Substitution2: "sous-table 'sups' Exposant lookups25" B.superior
Position2: "sous-table 'cpsp' Chasses pour composition en capitales lookups0" dx=40 dy=0 dh=80 dv=0
EndChar

StartChar: C
Encoding: 37 67 7
Width: 1084
GlyphClass: 2
Flags: W
LayerCount: 2
Fore
SplineSet
922 322 m 0,0,1
 943 322 943 322 958 306 c 2,2,-1
 1063 193 l 1,3,4
 991 92 991 92 882.5 39 c 128,-1,5
 774 -14 774 -14 625 -14 c 0,6,7
 490 -14 490 -14 382 36.5 c 128,-1,8
 274 87 274 87 198.5 177.5 c 128,-1,9
 123 268 123 268 82.5 392.5 c 128,-1,10
 42 517 42 517 42 665 c 0,11,12
 42 814 42 814 85.5 938.5 c 128,-1,13
 129 1063 129 1063 208 1153 c 128,-1,14
 287 1243 287 1243 397 1293 c 128,-1,15
 507 1343 507 1343 639 1343 c 0,16,17
 773 1343 773 1343 876 1295.5 c 128,-1,18
 979 1248 979 1248 1048 1170 c 1,19,-1
 960 1047 l 2,20,21
 951 1036 951 1036 939.5 1027 c 128,-1,22
 928 1018 928 1018 907 1018 c 256,23,24
 886 1018 886 1018 866.5 1034 c 128,-1,25
 847 1050 847 1050 818.5 1069 c 128,-1,26
 790 1088 790 1088 747 1104 c 128,-1,27
 704 1120 704 1120 637 1120 c 0,28,29
 564 1120 564 1120 504 1089.5 c 128,-1,30
 444 1059 444 1059 401 1000.5 c 128,-1,31
 358 942 358 942 334.5 857.5 c 128,-1,32
 311 773 311 773 311 665 c 0,33,34
 311 556 311 556 337 471 c 128,-1,35
 363 386 363 386 407.5 327.5 c 128,-1,36
 452 269 452 269 512 238.5 c 128,-1,37
 572 208 572 208 641 208 c 0,38,39
 682 208 682 208 715 212.5 c 128,-1,40
 748 217 748 217 776.5 228.5 c 128,-1,41
 805 240 805 240 830 258 c 128,-1,42
 855 276 855 276 880 303 c 0,43,44
 890 311 890 311 900.5 316.5 c 128,-1,45
 911 322 911 322 922 322 c 0,0,1
EndSplineSet
Validated: 1
Substitution2: "sous-table 'sups' Exposant lookups25" C.superior
Position2: "sous-table 'cpsp' Chasses pour composition en capitales lookups0" dx=40 dy=0 dh=80 dv=0
EndChar

StartChar: Ccedilla
Encoding: 134 199 8
Width: 1084
GlyphClass: 2
Flags: W
LayerCount: 2
Fore
SplineSet
514 -222 m 0,0,1
 528 -222 528 -222 543.5 -228 c 128,-1,2
 559 -234 559 -234 586 -234 c 0,3,4
 616 -234 616 -234 630.5 -223 c 128,-1,5
 645 -212 645 -212 645 -197 c 0,6,7
 645 -171 645 -171 612.5 -159.5 c 128,-1,8
 580 -148 580 -148 508 -138 c 1,9,-1
 550 -10 l 1,10,11
 431 3 431 3 337 59 c 128,-1,12
 243 115 243 115 177.5 204 c 128,-1,13
 112 293 112 293 77 410.5 c 128,-1,14
 42 528 42 528 42 665 c 0,15,16
 42 814 42 814 85.5 938.5 c 128,-1,17
 129 1063 129 1063 208 1153 c 128,-1,18
 287 1243 287 1243 397 1293 c 128,-1,19
 507 1343 507 1343 639 1343 c 0,20,21
 773 1343 773 1343 876 1295.5 c 128,-1,22
 979 1248 979 1248 1048 1170 c 1,23,-1
 960 1047 l 2,24,25
 951 1036 951 1036 939.5 1027 c 128,-1,26
 928 1018 928 1018 907 1018 c 256,27,28
 886 1018 886 1018 866.5 1034 c 128,-1,29
 847 1050 847 1050 818.5 1069 c 128,-1,30
 790 1088 790 1088 747 1104 c 128,-1,31
 704 1120 704 1120 637 1120 c 0,32,33
 564 1120 564 1120 504 1089.5 c 128,-1,34
 444 1059 444 1059 401 1000.5 c 128,-1,35
 358 942 358 942 334.5 857.5 c 128,-1,36
 311 773 311 773 311 665 c 0,37,38
 311 556 311 556 337 471 c 128,-1,39
 363 386 363 386 407.5 327.5 c 128,-1,40
 452 269 452 269 512 238.5 c 128,-1,41
 572 208 572 208 641 208 c 0,42,43
 682 208 682 208 715 212.5 c 128,-1,44
 748 217 748 217 776.5 228.5 c 128,-1,45
 805 240 805 240 830 258 c 128,-1,46
 855 276 855 276 880 303 c 0,47,48
 890 311 890 311 900.5 316.5 c 128,-1,49
 911 322 911 322 922 322 c 0,50,51
 943 322 943 322 958 306 c 2,52,-1
 1063 193 l 1,53,54
 999 104 999 104 908 52.5 c 128,-1,55
 817 1 817 1 694 -10 c 1,56,-1
 682 -56 l 1,57,58
 773 -77 773 -77 808.5 -114.5 c 128,-1,59
 844 -152 844 -152 844 -201 c 0,60,61
 844 -234 844 -234 826.5 -260 c 128,-1,62
 809 -286 809 -286 777.5 -305 c 128,-1,63
 746 -324 746 -324 701.5 -334 c 128,-1,64
 657 -344 657 -344 603 -344 c 0,65,66
 565 -344 565 -344 530.5 -339 c 128,-1,67
 496 -334 496 -334 462 -324 c 1,68,-1
 485 -246 l 2,69,70
 491 -222 491 -222 514 -222 c 0,0,1
EndSplineSet
Validated: 1
Position2: "sous-table 'cpsp' Chasses pour composition en capitales lookups0" dx=40 dy=0 dh=80 dv=0
EndChar

StartChar: D
Encoding: 38 68 9
Width: 1291
GlyphClass: 2
Flags: W
LayerCount: 2
Fore
SplineSet
1244 665 m 0,0,1
 1244 519 1244 519 1198 396.5 c 128,-1,2
 1152 274 1152 274 1067.5 186 c 128,-1,3
 983 98 983 98 864 49 c 128,-1,4
 745 0 745 0 600 0 c 2,5,-1
 116 0 l 1,6,-1
 116 1328 l 1,7,-1
 600 1328 l 2,8,9
 745 1328 745 1328 864 1279 c 128,-1,10
 983 1230 983 1230 1067.5 1142 c 128,-1,11
 1152 1054 1152 1054 1198 932 c 128,-1,12
 1244 810 1244 810 1244 665 c 0,0,1
977 665 m 0,13,14
 977 771 977 771 951 855 c 128,-1,15
 925 939 925 939 876.5 998 c 128,-1,16
 828 1057 828 1057 758 1088.5 c 128,-1,17
 688 1120 688 1120 600 1120 c 2,18,-1
 380 1120 l 1,19,-1
 380 209 l 1,20,-1
 600 209 l 2,21,22
 688 209 688 209 758 240 c 128,-1,23
 828 271 828 271 876.5 330 c 128,-1,24
 925 389 925 389 951 473.5 c 128,-1,25
 977 558 977 558 977 665 c 0,13,14
EndSplineSet
Validated: 1
Substitution2: "sous-table 'sups' Exposant lookups25" D.superior
Position2: "sous-table 'cpsp' Chasses pour composition en capitales lookups0" dx=40 dy=0 dh=80 dv=0
EndChar

StartChar: E
Encoding: 39 69 11
Width: 999
GlyphClass: 2
Flags: W
LayerCount: 2
Fore
SplineSet
928 1328 m 1,0,-1
 928 1119 l 1,1,-1
 382 1119 l 1,2,-1
 382 768 l 1,3,-1
 807 768 l 1,4,-1
 807 567 l 1,5,-1
 382 567 l 1,6,-1
 382 209 l 1,7,-1
 929 209 l 1,8,-1
 928 0 l 1,9,-1
 118 0 l 1,10,-1
 118 1328 l 1,11,-1
 928 1328 l 1,0,-1
EndSplineSet
Validated: 1
Substitution2: "sous-table 'sups' Exposant lookups25" E.superior
Position2: "sous-table 'cpsp' Chasses pour composition en capitales lookups0" dx=40 dy=0 dh=80 dv=0
EndChar

StartChar: Eogonek
Encoding: 215 280 12
Width: 999
GlyphClass: 2
Flags: W
LayerCount: 2
Fore
SplineSet
881 -171 m 0,0,1
 898 -171 898 -171 905 -188 c 2,2,-1
 943 -282 l 1,3,4
 911 -303 911 -303 862.5 -317 c 128,-1,5
 814 -331 814 -331 760 -331 c 0,6,7
 663 -331 663 -331 611.5 -291 c 128,-1,8
 560 -251 560 -251 560 -188 c 0,9,10
 560 -137 560 -137 593.5 -89 c 128,-1,11
 627 -41 627 -41 692 0 c 1,12,-1
 118 0 l 1,13,-1
 118 1328 l 1,14,-1
 928 1328 l 1,15,-1
 928 1119 l 1,16,-1
 382 1119 l 1,17,-1
 382 768 l 1,18,-1
 807 768 l 1,19,-1
 807 567 l 1,20,-1
 382 567 l 1,21,-1
 382 209 l 1,22,-1
 929 209 l 1,23,-1
 928 0 l 1,24,-1
 842 0 l 1,25,26
 806 -20 806 -20 777.5 -52 c 128,-1,27
 749 -84 749 -84 749 -124 c 0,28,29
 749 -152 749 -152 766 -168 c 128,-1,30
 783 -184 783 -184 814 -184 c 0,31,32
 831 -184 831 -184 842 -182 c 128,-1,33
 853 -180 853 -180 860 -177.5 c 128,-1,34
 867 -175 867 -175 871.5 -173 c 128,-1,35
 876 -171 876 -171 881 -171 c 0,0,1
EndSplineSet
Validated: 1
Position2: "sous-table 'cpsp' Chasses pour composition en capitales lookups0" dx=40 dy=0 dh=80 dv=0
EndChar

StartChar: F
Encoding: 40 70 13
Width: 940
GlyphClass: 2
Flags: W
LayerCount: 2
Fore
SplineSet
890 1328 m 1,0,-1
 890 1119 l 1,1,-1
 373 1119 l 1,2,-1
 373 743 l 1,3,-1
 806 743 l 1,4,-1
 806 534 l 1,5,-1
 373 534 l 1,6,-1
 373 0 l 1,7,-1
 109 0 l 1,8,-1
 109 1328 l 1,9,-1
 890 1328 l 1,0,-1
EndSplineSet
Validated: 1
Substitution2: "sous-table 'sups' Exposant lookups25" F.superior
Position2: "sous-table 'cpsp' Chasses pour composition en capitales lookups0" dx=40 dy=0 dh=80 dv=0
EndChar

StartChar: G
Encoding: 41 71 14
Width: 1305
GlyphClass: 2
Flags: W
LayerCount: 2
Fore
SplineSet
1216 128 m 1,0,1
 1116 53 1116 53 1003 19.5 c 128,-1,2
 890 -14 890 -14 763 -14 c 0,3,4
 602 -14 602 -14 471.5 36.5 c 128,-1,5
 341 87 341 87 248 177.5 c 128,-1,6
 155 268 155 268 104.5 392.5 c 128,-1,7
 54 517 54 517 54 665 c 0,8,9
 54 814 54 814 102 938.5 c 128,-1,10
 150 1063 150 1063 239.5 1153 c 128,-1,11
 329 1243 329 1243 455.5 1293 c 128,-1,12
 582 1343 582 1343 738 1343 c 0,13,14
 819 1343 819 1343 889 1330 c 128,-1,15
 959 1317 959 1317 1019 1294 c 128,-1,16
 1079 1271 1079 1271 1128.5 1239 c 128,-1,17
 1178 1207 1178 1207 1218 1168 c 1,18,-1
 1143 1050 l 2,19,20
 1126 1022 1126 1022 1097.5 1015.5 c 128,-1,21
 1069 1009 1069 1009 1036 1029 c 0,22,23
 1005 1048 1005 1048 974 1064.5 c 128,-1,24
 943 1081 943 1081 907.5 1093.5 c 128,-1,25
 872 1106 872 1106 829 1113 c 128,-1,26
 786 1120 786 1120 730 1120 c 0,27,28
 636 1120 636 1120 561 1087.5 c 128,-1,29
 486 1055 486 1055 433 996 c 128,-1,30
 380 937 380 937 351.5 852.5 c 128,-1,31
 323 768 323 768 323 665 c 0,32,33
 323 553 323 553 354 465 c 128,-1,34
 385 377 385 377 441.5 316.5 c 128,-1,35
 498 256 498 256 578 224.5 c 128,-1,36
 658 193 658 193 756 193 c 0,37,38
 822 193 822 193 874.5 206.5 c 128,-1,39
 927 220 927 220 978 244 c 1,40,-1
 978 476 l 1,41,-1
 825 476 l 2,42,43
 801 476 801 476 786.5 490 c 128,-1,44
 772 504 772 504 772 524 c 2,45,-1
 772 672 l 1,46,-1
 1216 672 l 1,47,-1
 1216 128 l 1,0,1
EndSplineSet
Substitution2: "sous-table 'sups' Exposant lookups25" G.superior
Position2: "sous-table 'cpsp' Chasses pour composition en capitales lookups0" dx=40 dy=0 dh=80 dv=0
EndChar

StartChar: H
Encoding: 42 72 15
Width: 1292
GlyphClass: 2
Flags: W
LayerCount: 2
Fore
SplineSet
1179 0 m 1,0,-1
 915 0 l 1,1,-1
 915 575 l 1,2,-1
 377 575 l 1,3,-1
 377 0 l 1,4,-1
 113 0 l 1,5,-1
 113 1328 l 1,6,-1
 377 1328 l 1,7,-1
 377 761 l 1,8,-1
 915 761 l 1,9,-1
 915 1328 l 1,10,-1
 1179 1328 l 1,11,-1
 1179 0 l 1,0,-1
EndSplineSet
Validated: 1
Substitution2: "sous-table 'sups' Exposant lookups25" H.superior
Position2: "sous-table 'cpsp' Chasses pour composition en capitales lookups0" dx=40 dy=0 dh=80 dv=0
EndChar

StartChar: Hbar
Encoding: 229 294 16
Width: 1347
GlyphClass: 2
Flags: W
LayerCount: 2
Fore
SplineSet
1206 1102 m 1,0,-1
 1326 1102 l 1,1,-1
 1326 949 l 1,2,-1
 1206 949 l 1,3,-1
 1206 0 l 1,4,-1
 942 0 l 1,5,-1
 942 575 l 1,6,-1
 404 575 l 1,7,-1
 404 0 l 1,8,-1
 140 0 l 1,9,-1
 140 949 l 1,10,-1
 21 949 l 1,11,-1
 21 1102 l 1,12,-1
 140 1102 l 1,13,-1
 140 1328 l 1,14,-1
 404 1328 l 1,15,-1
 404 1102 l 1,16,-1
 942 1102 l 1,17,-1
 942 1328 l 1,18,-1
 1206 1328 l 1,19,-1
 1206 1102 l 1,0,-1
404 761 m 1,20,-1
 942 761 l 1,21,-1
 942 949 l 1,22,-1
 404 949 l 1,23,-1
 404 761 l 1,20,-1
EndSplineSet
Validated: 1
Position2: "sous-table 'cpsp' Chasses pour composition en capitales lookups0" dx=40 dy=0 dh=80 dv=0
EndChar

StartChar: I
Encoding: 43 73 17
Width: 546
GlyphClass: 2
Flags: W
LayerCount: 2
Fore
SplineSet
405 0 m 1,0,-1
 141 0 l 1,1,-1
 141 1328 l 1,2,-1
 405 1328 l 1,3,-1
 405 0 l 1,0,-1
EndSplineSet
Validated: 1
Substitution2: "sous-table 'sups' Exposant lookups25" I.superior
Position2: "sous-table 'cpsp' Chasses pour composition en capitales lookups0" dx=40 dy=0 dh=80 dv=0
EndChar

StartChar: Iogonek
Encoding: 237 302 18
Width: 546
GlyphClass: 2
Flags: W
LayerCount: 2
Fore
SplineSet
404 -171 m 0,0,1
 421 -171 421 -171 428 -188 c 2,2,-1
 466 -282 l 1,3,4
 434 -303 434 -303 385.5 -317 c 128,-1,5
 337 -331 337 -331 283 -331 c 0,6,7
 186 -331 186 -331 134.5 -291 c 128,-1,8
 83 -251 83 -251 83 -188 c 0,9,10
 83 -137 83 -137 116.5 -89 c 128,-1,11
 150 -41 150 -41 215 0 c 1,12,-1
 141 0 l 1,13,-1
 141 1328 l 1,14,-1
 405 1328 l 1,15,-1
 405 0 l 1,16,-1
 365 0 l 1,17,18
 329 -20 329 -20 300.5 -52 c 128,-1,19
 272 -84 272 -84 272 -124 c 0,20,21
 272 -152 272 -152 289 -168 c 128,-1,22
 306 -184 306 -184 337 -184 c 0,23,24
 354 -184 354 -184 365 -182 c 128,-1,25
 376 -180 376 -180 383 -177.5 c 128,-1,26
 390 -175 390 -175 394.5 -173 c 128,-1,27
 399 -171 399 -171 404 -171 c 0,0,1
EndSplineSet
Validated: 1
Position2: "sous-table 'cpsp' Chasses pour composition en capitales lookups0" dx=40 dy=0 dh=80 dv=0
EndChar

StartChar: J
Encoding: 44 74 19
Width: 678
GlyphClass: 2
Flags: W
LayerCount: 2
Fore
SplineSet
582 475 m 2,0,1
 582 364 582 364 558.5 273.5 c 128,-1,2
 535 183 535 183 486.5 119 c 128,-1,3
 438 55 438 55 364.5 20.5 c 128,-1,4
 291 -14 291 -14 192 -14 c 0,5,6
 147 -14 147 -14 104 -8.5 c 128,-1,7
 61 -3 61 -3 14 10 c 1,8,-1
 28 166 l 2,9,10
 30 186 30 186 44 199.5 c 128,-1,11
 58 213 58 213 84 213 c 0,12,13
 98 213 98 213 117 207 c 128,-1,14
 136 201 136 201 165 201 c 0,15,16
 205 201 205 201 234 215.5 c 128,-1,17
 263 230 263 230 282 262 c 128,-1,18
 301 294 301 294 310.5 344.5 c 128,-1,19
 320 395 320 395 320 468 c 2,20,-1
 320 1328 l 1,21,-1
 582 1328 l 1,22,-1
 582 475 l 2,0,1
EndSplineSet
Validated: 1
Substitution2: "sous-table 'sups' Exposant lookups25" J.superior
Position2: "sous-table 'cpsp' Chasses pour composition en capitales lookups0" dx=40 dy=0 dh=80 dv=0
EndChar

StartChar: K
Encoding: 45 75 20
Width: 1120
GlyphClass: 2
Flags: W
LayerCount: 2
Fore
SplineSet
359 777 m 1,0,-1
 401 777 l 2,1,2
 461 777 461 777 486 817 c 2,3,-1
 747 1274 l 1,4,5
 769 1304 769 1304 795.5 1316 c 128,-1,6
 822 1328 822 1328 860 1328 c 2,7,-1
 1089 1328 l 1,8,-1
 747 781 l 2,9,10
 710 728 710 728 668 706 c 1,11,12
 698 695 698 695 722 674 c 128,-1,13
 746 653 746 653 768 621 c 2,14,-1
 1116 0 l 1,15,-1
 883 0 l 2,16,17
 839 0 839 0 817.5 13.5 c 128,-1,18
 796 27 796 27 781 49 c 2,19,-1
 516 533 l 2,20,21
 501 557 501 557 480.5 568 c 128,-1,22
 460 579 460 579 424 579 c 2,23,-1
 359 579 l 1,24,-1
 359 0 l 1,25,-1
 96 0 l 1,26,-1
 96 1328 l 1,27,-1
 359 1328 l 1,28,-1
 359 777 l 1,0,-1
EndSplineSet
Validated: 1
Substitution2: "sous-table 'sups' Exposant lookups25" K.superior
Position2: "sous-table 'cpsp' Chasses pour composition en capitales lookups0" dx=40 dy=0 dh=80 dv=0
EndChar

StartChar: L
Encoding: 46 76 21
Width: 866
GlyphClass: 2
Flags: W
LayerCount: 2
Fore
SplineSet
371 216 m 1,0,-1
 832 216 l 1,1,-1
 832 0 l 1,2,-1
 108 0 l 1,3,-1
 108 1328 l 1,4,-1
 371 1328 l 1,5,-1
 371 216 l 1,0,-1
EndSplineSet
Validated: 1
Substitution2: "sous-table 'sups' Exposant lookups25" L.superior
Position2: "sous-table 'cpsp' Chasses pour composition en capitales lookups0" dx=40 dy=0 dh=80 dv=0
EndChar

StartChar: Lslash
Encoding: 256 321 22
Width: 886
GlyphClass: 2
Flags: W
LayerCount: 2
Fore
SplineSet
407 810 m 1,0,-1
 689 972 l 1,1,-1
 689 795 l 2,2,3
 689 758 689 758 659 743 c 2,4,-1
 407 592 l 1,5,-1
 407 216 l 1,6,-1
 868 216 l 1,7,-1
 868 0 l 1,8,-1
 144 0 l 1,9,-1
 144 463 l 1,10,-1
 20 396 l 1,11,-1
 20 577 l 2,12,13
 20 608 20 608 48 624 c 2,14,-1
 144 678 l 1,15,-1
 144 1328 l 1,16,-1
 407 1328 l 1,17,-1
 407 810 l 1,0,-1
EndSplineSet
Validated: 1
Position2: "sous-table 'cpsp' Chasses pour composition en capitales lookups0" dx=40 dy=0 dh=80 dv=0
EndChar

StartChar: M
Encoding: 47 77 24
Width: 1790
GlyphClass: 2
Flags: W
LayerCount: 2
Fore
SplineSet
838 567 m 2,0,1
 872 504 872 504 897 436 c 1,2,3
 911 471 911 471 925 504.5 c 128,-1,4
 939 538 939 538 956 569 c 2,5,-1
 1365 1287 l 2,6,7
 1373 1302 1373 1302 1381.5 1310.5 c 128,-1,8
 1390 1319 1390 1319 1400 1322.5 c 128,-1,9
 1410 1326 1410 1326 1423 1327 c 128,-1,10
 1436 1328 1436 1328 1453 1328 c 2,11,-1
 1651 1328 l 1,12,-1
 1651 0 l 1,13,-1
 1420 0 l 1,14,-1
 1420 831 l 2,15,16
 1420 858 1420 858 1421.5 889.5 c 128,-1,17
 1423 921 1423 921 1426 954 c 1,18,-1
 1007 212 l 2,19,20
 976 154 976 154 916 154 c 2,21,-1
 879 154 l 2,22,23
 818 154 818 154 787 212 c 2,24,-1
 363 958 l 1,25,26
 367 924 367 924 369 891.5 c 128,-1,27
 371 859 371 859 371 831 c 2,28,-1
 371 0 l 1,29,-1
 139 0 l 1,30,-1
 139 1328 l 1,31,-1
 338 1328 l 2,32,33
 355 1328 355 1328 367.5 1327 c 128,-1,34
 380 1326 380 1326 390.5 1322 c 128,-1,35
 401 1318 401 1318 409.5 1310 c 128,-1,36
 418 1302 418 1302 426 1287 c 2,37,-1
 838 567 l 2,0,1
EndSplineSet
Substitution2: "sous-table 'sups' Exposant lookups25" M.superior
Position2: "sous-table 'cpsp' Chasses pour composition en capitales lookups0" dx=40 dy=0 dh=80 dv=0
EndChar

StartChar: N
Encoding: 48 78 25
Width: 1349
GlyphClass: 2
Flags: W
LayerCount: 2
Fore
SplineSet
260 1328 m 2,0,1
 277 1328 277 1328 289 1326.5 c 128,-1,2
 301 1325 301 1325 310.5 1320.5 c 128,-1,3
 320 1316 320 1316 328.5 1308 c 128,-1,4
 337 1300 337 1300 348 1287 c 2,5,-1
 1002 425 l 1,6,7
 996 491 996 491 996 550 c 2,8,-1
 996 1328 l 1,9,-1
 1227 1328 l 1,10,-1
 1227 0 l 1,11,-1
 1092 0 l 2,12,13
 1061 0 1061 0 1040.5 10.5 c 128,-1,14
 1020 21 1020 21 1000 45 c 2,15,-1
 348 902 l 1,16,17
 354 840 354 840 354 787 c 2,18,-1
 354 0 l 1,19,-1
 122 0 l 1,20,-1
 122 1328 l 1,21,-1
 260 1328 l 2,0,1
EndSplineSet
Substitution2: "sous-table 'sups' Exposant lookups25" N.superior
Position2: "sous-table 'cpsp' Chasses pour composition en capitales lookups0" dx=40 dy=0 dh=80 dv=0
EndChar

StartChar: Eng
Encoding: 265 330 26
Width: 1313
GlyphClass: 2
Flags: W
LayerCount: 2
Fore
SplineSet
254 1328 m 2,0,1
 271 1328 271 1328 283 1326.5 c 128,-1,2
 295 1325 295 1325 304.5 1320.5 c 128,-1,3
 314 1316 314 1316 322.5 1308 c 128,-1,4
 331 1300 331 1300 342 1287 c 2,5,-1
 972 426 l 1,6,7
 969 458 969 458 967.5 490 c 128,-1,8
 966 522 966 522 966 550 c 2,9,-1
 966 1328 l 1,10,-1
 1197 1328 l 1,11,-1
 1197 42 l 2,12,13
 1197 -38 1197 -38 1179 -106 c 128,-1,14
 1161 -174 1161 -174 1121 -223 c 128,-1,15
 1081 -272 1081 -272 1018 -299.5 c 128,-1,16
 955 -327 955 -327 865 -327 c 0,17,18
 817 -327 817 -327 779 -318 c 128,-1,19
 741 -309 741 -309 697 -290 c 1,20,-1
 723 -186 l 2,21,22
 731 -157 731 -157 745 -148 c 128,-1,23
 759 -139 759 -139 776 -139 c 0,24,25
 789 -139 789 -139 803 -144.5 c 128,-1,26
 817 -150 817 -150 843 -150 c 0,27,28
 904 -150 904 -150 934.5 -110 c 128,-1,29
 965 -70 965 -70 965 15 c 2,30,-1
 965 52 l 1,31,-1
 342 902 l 1,32,33
 348 840 348 840 348 787 c 2,34,-1
 348 0 l 1,35,-1
 116 0 l 1,36,-1
 116 1328 l 1,37,-1
 254 1328 l 2,0,1
EndSplineSet
Substitution2: "sous-table 'ss03' Style 3 lookups33" Eng.ss03
Substitution2: "sous-table 'ss02' Style 2 lookups31" Eng.ss02
Substitution2: "sous-table 'ss01' Style 1 lookups29" Eng.ss01
Position2: "sous-table 'cpsp' Chasses pour composition en capitales lookups0" dx=40 dy=0 dh=80 dv=0
EndChar

StartChar: O
Encoding: 49 79 27
Width: 1385
GlyphClass: 2
Flags: W
LayerCount: 2
Fore
SplineSet
1338 665 m 0,0,1
 1338 519 1338 519 1292 394.5 c 128,-1,2
 1246 270 1246 270 1161.5 179 c 128,-1,3
 1077 88 1077 88 958 37 c 128,-1,4
 839 -14 839 -14 694 -14 c 256,5,6
 549 -14 549 -14 430 37 c 128,-1,7
 311 88 311 88 226 179 c 128,-1,8
 141 270 141 270 94.5 394.5 c 128,-1,9
 48 519 48 519 48 665 c 0,10,11
 48 810 48 810 94.5 934.5 c 128,-1,12
 141 1059 141 1059 226 1149.5 c 128,-1,13
 311 1240 311 1240 430 1291.5 c 128,-1,14
 549 1343 549 1343 694 1343 c 256,15,16
 839 1343 839 1343 958 1291.5 c 128,-1,17
 1077 1240 1077 1240 1161.5 1149 c 128,-1,18
 1246 1058 1246 1058 1292 934 c 128,-1,19
 1338 810 1338 810 1338 665 c 0,0,1
1070 665 m 0,20,21
 1070 771 1070 771 1044 855 c 128,-1,22
 1018 939 1018 939 969.5 998 c 128,-1,23
 921 1057 921 1057 851.5 1088.5 c 128,-1,24
 782 1120 782 1120 694 1120 c 256,25,26
 606 1120 606 1120 536 1088.5 c 128,-1,27
 466 1057 466 1057 417.5 998 c 128,-1,28
 369 939 369 939 343 855 c 128,-1,29
 317 771 317 771 317 665 c 0,30,31
 317 558 317 558 343 473.5 c 128,-1,32
 369 389 369 389 417.5 330.5 c 128,-1,33
 466 272 466 272 536 241 c 128,-1,34
 606 210 606 210 694 210 c 256,35,36
 782 210 782 210 851.5 241 c 128,-1,37
 921 272 921 272 969.5 330.5 c 128,-1,38
 1018 389 1018 389 1044 473.5 c 128,-1,39
 1070 558 1070 558 1070 665 c 0,20,21
EndSplineSet
Validated: 1
Substitution2: "sous-table 'sups' Exposant lookups25" O.superior
Position2: "sous-table 'cpsp' Chasses pour composition en capitales lookups0" dx=40 dy=0 dh=80 dv=0
EndChar

StartChar: Oslash
Encoding: 151 216 28
Width: 1394
GlyphClass: 2
Flags: W
LayerCount: 2
Fore
SplineSet
1346 665 m 0,0,1
 1346 519 1346 519 1299.5 394.5 c 128,-1,2
 1253 270 1253 270 1168.5 179 c 128,-1,3
 1084 88 1084 88 964.5 37 c 128,-1,4
 845 -14 845 -14 699 -14 c 0,5,6
 614 -14 614 -14 538 3.5 c 128,-1,7
 462 21 462 21 396 54 c 1,8,-1
 336 -33 l 2,9,10
 308 -71 308 -71 269.5 -87 c 128,-1,11
 231 -103 231 -103 193 -103 c 2,12,-1
 90 -103 l 1,13,-1
 261 146 l 1,14,15
 160 238 160 238 104.5 371 c 128,-1,16
 49 504 49 504 49 665 c 0,17,18
 49 810 49 810 96 934.5 c 128,-1,19
 143 1059 143 1059 228.5 1149.5 c 128,-1,20
 314 1240 314 1240 433.5 1291.5 c 128,-1,21
 553 1343 553 1343 699 1343 c 0,22,23
 793 1343 793 1343 875 1321.5 c 128,-1,24
 957 1300 957 1300 1028 1260 c 1,25,-1
 1073 1325 l 2,26,27
 1086 1342 1086 1342 1096.5 1354.5 c 128,-1,28
 1107 1367 1107 1367 1118.5 1374.5 c 128,-1,29
 1130 1382 1130 1382 1144.5 1385.5 c 128,-1,30
 1159 1389 1159 1389 1180 1389 c 2,31,-1
 1315 1389 l 1,32,-1
 1157 1160 l 1,33,34
 1248 1068 1248 1068 1297 941.5 c 128,-1,35
 1346 815 1346 815 1346 665 c 0,0,1
318 665 m 0,36,37
 318 567 318 567 339.5 488.5 c 128,-1,38
 361 410 361 410 403 352 c 1,39,-1
 896 1068 l 1,40,41
 812 1120 812 1120 699 1120 c 0,42,43
 610 1120 610 1120 539 1088.5 c 128,-1,44
 468 1057 468 1057 419 998 c 128,-1,45
 370 939 370 939 344 855 c 128,-1,46
 318 771 318 771 318 665 c 0,36,37
1078 665 m 0,47,48
 1078 750 1078 750 1060.5 821 c 128,-1,49
 1043 892 1043 892 1011 948 c 1,50,-1
 528 246 l 1,51,52
 601 210 601 210 699 210 c 0,53,54
 787 210 787 210 857.5 241 c 128,-1,55
 928 272 928 272 977 330.5 c 128,-1,56
 1026 389 1026 389 1052 473.5 c 128,-1,57
 1078 558 1078 558 1078 665 c 0,47,48
EndSplineSet
Validated: 1
Position2: "sous-table 'cpsp' Chasses pour composition en capitales lookups0" dx=40 dy=0 dh=80 dv=0
EndChar

StartChar: OE
Encoding: 273 338 29
Width: 1790
GlyphClass: 2
Flags: W
LayerCount: 2
Fore
SplineSet
1726 1328 m 1,0,-1
 1726 1119 l 1,1,-1
 1215 1119 l 1,2,-1
 1215 768 l 1,3,-1
 1611 768 l 1,4,-1
 1611 567 l 1,5,-1
 1215 567 l 1,6,-1
 1215 209 l 1,7,-1
 1726 209 l 1,8,-1
 1726 0 l 1,9,-1
 982 0 l 1,10,-1
 982 145 l 1,11,12
 910 70 910 70 815.5 28 c 128,-1,13
 721 -14 721 -14 606 -14 c 0,14,15
 479 -14 479 -14 375 37 c 128,-1,16
 271 88 271 88 197.5 179 c 128,-1,17
 124 270 124 270 83.5 394.5 c 128,-1,18
 43 519 43 519 43 665 c 0,19,20
 43 810 43 810 83.5 934.5 c 128,-1,21
 124 1059 124 1059 197.5 1149.5 c 128,-1,22
 271 1240 271 1240 375 1291.5 c 128,-1,23
 479 1343 479 1343 606 1343 c 0,24,25
 721 1343 721 1343 815.5 1300.5 c 128,-1,26
 910 1258 910 1258 982 1183 c 1,27,-1
 982 1328 l 1,28,-1
 1726 1328 l 1,0,-1
951 665 m 0,29,30
 951 771 951 771 929.5 856.5 c 128,-1,31
 908 942 908 942 866.5 1002 c 128,-1,32
 825 1062 825 1062 766 1094.5 c 128,-1,33
 707 1127 707 1127 632 1127 c 0,34,35
 556 1127 556 1127 496.5 1094.5 c 128,-1,36
 437 1062 437 1062 396 1002 c 128,-1,37
 355 942 355 942 333.5 856.5 c 128,-1,38
 312 771 312 771 312 665 c 0,39,40
 312 558 312 558 333.5 472.5 c 128,-1,41
 355 387 355 387 396 327 c 128,-1,42
 437 267 437 267 496.5 234.5 c 128,-1,43
 556 202 556 202 632 202 c 0,44,45
 707 202 707 202 766 234.5 c 128,-1,46
 825 267 825 267 866.5 327 c 128,-1,47
 908 387 908 387 929.5 472.5 c 128,-1,48
 951 558 951 558 951 665 c 0,29,30
EndSplineSet
Validated: 1
Position2: "sous-table 'cpsp' Chasses pour composition en capitales lookups0" dx=40 dy=0 dh=80 dv=0
EndChar

StartChar: P
Encoding: 50 80 30
Width: 1090
GlyphClass: 2
Flags: W
LayerCount: 2
Fore
SplineSet
378 461 m 1,0,-1
 378 0 l 1,1,-1
 115 0 l 1,2,-1
 115 1328 l 1,3,-1
 542 1328 l 2,4,5
 671 1328 671 1328 764 1296 c 128,-1,6
 857 1264 857 1264 918 1207.5 c 128,-1,7
 979 1151 979 1151 1008 1073 c 128,-1,8
 1037 995 1037 995 1037 902 c 0,9,10
 1037 804 1037 804 1006.5 723 c 128,-1,11
 976 642 976 642 914.5 584 c 128,-1,12
 853 526 853 526 760 493.5 c 128,-1,13
 667 461 667 461 542 461 c 2,14,-1
 378 461 l 1,0,-1
378 665 m 1,15,-1
 542 665 l 2,16,17
 662 665 662 665 718 728.5 c 128,-1,18
 774 792 774 792 774 902 c 0,19,20
 774 1005 774 1005 717 1065.5 c 128,-1,21
 660 1126 660 1126 542 1126 c 2,22,-1
 378 1126 l 1,23,-1
 378 665 l 1,15,-1
EndSplineSet
Validated: 1
Substitution2: "sous-table 'sups' Exposant lookups25" P.superior
Position2: "sous-table 'cpsp' Chasses pour composition en capitales lookups0" dx=40 dy=0 dh=80 dv=0
EndChar

StartChar: Thorn
Encoding: 157 222 31
Width: 1090
GlyphClass: 2
Flags: W
LayerCount: 2
Fore
SplineSet
379 238 m 1,0,-1
 379 0 l 1,1,-1
 116 0 l 1,2,-1
 116 1328 l 1,3,-1
 379 1328 l 1,4,-1
 379 1104 l 1,5,-1
 542 1104 l 2,6,7
 671 1104 671 1104 765 1072 c 128,-1,8
 859 1040 859 1040 919.5 983 c 128,-1,9
 980 926 980 926 1009.5 848 c 128,-1,10
 1039 770 1039 770 1039 677 c 0,11,12
 1039 580 1039 580 1008.5 499 c 128,-1,13
 978 418 978 418 916 360 c 128,-1,14
 854 302 854 302 761 270 c 128,-1,15
 668 238 668 238 542 238 c 2,16,-1
 379 238 l 1,0,-1
379 441 m 1,17,-1
 542 441 l 2,18,19
 663 441 663 441 719.5 504.5 c 128,-1,20
 776 568 776 568 776 677 c 0,21,22
 776 780 776 780 718.5 841 c 128,-1,23
 661 902 661 902 542 902 c 2,24,-1
 379 902 l 1,25,-1
 379 441 l 1,17,-1
EndSplineSet
Validated: 1
Position2: "sous-table 'cpsp' Chasses pour composition en capitales lookups0" dx=40 dy=0 dh=80 dv=0
EndChar

StartChar: Q
Encoding: 51 81 32
Width: 1405
GlyphClass: 2
Flags: W
LayerCount: 2
Fore
SplineSet
1348 665 m 0,0,1
 1348 496 1348 496 1287.5 358.5 c 128,-1,2
 1227 221 1227 221 1118 129 c 1,3,-1
 1459 -257 l 1,4,-1
 1243 -257 l 2,5,6
 1196 -257 1196 -257 1159.5 -245 c 128,-1,7
 1123 -233 1123 -233 1091 -198 c 2,8,-1
 907 15 l 1,9,10
 811 -14 811 -14 704 -14 c 0,11,12
 559 -14 559 -14 440 37 c 128,-1,13
 321 88 321 88 236 179 c 128,-1,14
 151 270 151 270 104.5 394.5 c 128,-1,15
 58 519 58 519 58 665 c 0,16,17
 58 810 58 810 104.5 934.5 c 128,-1,18
 151 1059 151 1059 236 1149.5 c 128,-1,19
 321 1240 321 1240 440 1291.5 c 128,-1,20
 559 1343 559 1343 704 1343 c 256,21,22
 849 1343 849 1343 968 1291.5 c 128,-1,23
 1087 1240 1087 1240 1171.5 1149 c 128,-1,24
 1256 1058 1256 1058 1302 934 c 128,-1,25
 1348 810 1348 810 1348 665 c 0,0,1
1080 665 m 0,26,27
 1080 771 1080 771 1054 855 c 128,-1,28
 1028 939 1028 939 979.5 998 c 128,-1,29
 931 1057 931 1057 861.5 1088.5 c 128,-1,30
 792 1120 792 1120 704 1120 c 256,31,32
 616 1120 616 1120 546 1088.5 c 128,-1,33
 476 1057 476 1057 427.5 998 c 128,-1,34
 379 939 379 939 353 855 c 128,-1,35
 327 771 327 771 327 665 c 0,36,37
 327 558 327 558 353 473.5 c 128,-1,38
 379 389 379 389 427.5 330.5 c 128,-1,39
 476 272 476 272 546 241 c 128,-1,40
 616 210 616 210 704 210 c 256,41,42
 792 210 792 210 861.5 241 c 128,-1,43
 931 272 931 272 979.5 330.5 c 128,-1,44
 1028 389 1028 389 1054 473.5 c 128,-1,45
 1080 558 1080 558 1080 665 c 0,26,27
EndSplineSet
Validated: 1
Substitution2: "sous-table 'sups' Exposant lookups25" Q.superior
Position2: "sous-table 'cpsp' Chasses pour composition en capitales lookups0" dx=40 dy=0 dh=80 dv=0
EndChar

StartChar: R
Encoding: 52 82 33
Width: 1153
GlyphClass: 2
Flags: W
LayerCount: 2
Fore
SplineSet
382 511 m 1,0,-1
 382 0 l 1,1,-1
 118 0 l 1,2,-1
 118 1328 l 1,3,-1
 518 1328 l 2,4,5
 651 1328 651 1328 746 1299.5 c 128,-1,6
 841 1271 841 1271 901.5 1220 c 128,-1,7
 962 1169 962 1169 990 1098 c 128,-1,8
 1018 1027 1018 1027 1018 942 c 0,9,10
 1018 877 1018 877 1000 818.5 c 128,-1,11
 982 760 982 760 947.5 711.5 c 128,-1,12
 913 663 913 663 863 625.5 c 128,-1,13
 813 588 813 588 748 565 c 1,14,15
 773 551 773 551 795 531.5 c 128,-1,16
 817 512 817 512 836 484 c 2,17,-1
 1133 0 l 1,18,-1
 896 0 l 2,19,20
 833 0 833 0 799 53 c 2,21,-1
 557 467 l 2,22,23
 542 491 542 491 523.5 501 c 128,-1,24
 505 511 505 511 471 511 c 2,25,-1
 382 511 l 1,0,-1
382 698 m 1,26,-1
 516 698 l 2,27,28
 580 698 580 698 626.5 715 c 128,-1,29
 673 732 673 732 703 762 c 128,-1,30
 733 792 733 792 747.5 833.5 c 128,-1,31
 762 875 762 875 762 924 c 0,32,33
 762 1021 762 1021 702 1073.5 c 128,-1,34
 642 1126 642 1126 518 1126 c 2,35,-1
 382 1126 l 1,36,-1
 382 698 l 1,26,-1
EndSplineSet
Validated: 1
Substitution2: "sous-table 'sups' Exposant lookups25" R.superior
Position2: "sous-table 'cpsp' Chasses pour composition en capitales lookups0" dx=40 dy=0 dh=80 dv=0
EndChar

StartChar: S
Encoding: 53 83 34
Width: 968
GlyphClass: 2
Flags: W
LayerCount: 2
Fore
SplineSet
821 1078 m 2,0,1
 811 1058 811 1058 797.5 1049.5 c 128,-1,2
 784 1041 784 1041 764 1041 c 0,3,4
 745 1041 745 1041 723 1055 c 128,-1,5
 701 1069 701 1069 671.5 1085.5 c 128,-1,6
 642 1102 642 1102 603 1116 c 128,-1,7
 564 1130 564 1130 513 1130 c 0,8,9
 423 1130 423 1130 377.5 1086 c 128,-1,10
 332 1042 332 1042 332 971 c 0,11,12
 332 926 332 926 356.5 896.5 c 128,-1,13
 381 867 381 867 421.5 845.5 c 128,-1,14
 462 824 462 824 513.5 807 c 128,-1,15
 565 790 565 790 619 770.5 c 128,-1,16
 673 751 673 751 724.5 724.5 c 128,-1,17
 776 698 776 698 816.5 658 c 128,-1,18
 857 618 857 618 881.5 560 c 128,-1,19
 906 502 906 502 906 419 c 0,20,21
 906 329 906 329 876.5 250 c 128,-1,22
 847 171 847 171 790 112.5 c 128,-1,23
 733 54 733 54 650.5 20 c 128,-1,24
 568 -14 568 -14 462 -14 c 0,25,26
 402 -14 402 -14 342.5 -1.5 c 128,-1,27
 283 11 283 11 228 34 c 128,-1,28
 173 57 173 57 124 89 c 128,-1,29
 75 121 75 121 38 161 c 1,30,-1
 116 286 l 2,31,32
 125 301 125 301 140.5 310 c 128,-1,33
 156 319 156 319 174 319 c 0,34,35
 198 319 198 319 223.5 300.5 c 128,-1,36
 249 282 249 282 283 259.5 c 128,-1,37
 317 237 317 237 362 218.5 c 128,-1,38
 407 200 407 200 469 200 c 0,39,40
 559 200 559 200 609 246 c 128,-1,41
 659 292 659 292 659 382 c 0,42,43
 659 433 659 433 634.5 465 c 128,-1,44
 610 497 610 497 570 518.5 c 128,-1,45
 530 540 530 540 478.5 555.5 c 128,-1,46
 427 571 427 571 373.5 589 c 128,-1,47
 320 607 320 607 268.5 632.5 c 128,-1,48
 217 658 217 658 177 700 c 128,-1,49
 137 742 137 742 112.5 804 c 128,-1,50
 88 866 88 866 88 958 c 0,51,52
 88 1031 88 1031 116 1100.5 c 128,-1,53
 144 1170 144 1170 198 1224 c 128,-1,54
 252 1278 252 1278 330.5 1310.5 c 128,-1,55
 409 1343 409 1343 510 1343 c 0,56,57
 624 1343 624 1343 721.5 1306 c 128,-1,58
 819 1269 819 1269 888 1202 c 1,59,-1
 821 1078 l 2,0,1
EndSplineSet
Validated: 1
Substitution2: "sous-table 'sups' Exposant lookups25" S.superior
Position2: "sous-table 'cpsp' Chasses pour composition en capitales lookups0" dx=40 dy=0 dh=80 dv=0
EndChar

StartChar: Scedilla
Encoding: 285 350 35
Width: 968
GlyphClass: 2
Flags: W
LayerCount: 2
Fore
SplineSet
376 -222 m 0,0,1
 390 -222 390 -222 405.5 -228 c 128,-1,2
 421 -234 421 -234 448 -234 c 0,3,4
 478 -234 478 -234 492.5 -223 c 128,-1,5
 507 -212 507 -212 507 -197 c 0,6,7
 507 -171 507 -171 474.5 -159.5 c 128,-1,8
 442 -148 442 -148 370 -138 c 1,9,-1
 412 -12 l 1,10,11
 358 -8 358 -8 305.5 6.5 c 128,-1,12
 253 21 253 21 204.5 43.5 c 128,-1,13
 156 66 156 66 113.5 95.5 c 128,-1,14
 71 125 71 125 38 161 c 1,15,-1
 116 286 l 2,16,17
 125 301 125 301 140.5 310 c 128,-1,18
 156 319 156 319 174 319 c 0,19,20
 198 319 198 319 223.5 300.5 c 128,-1,21
 249 282 249 282 283 259.5 c 128,-1,22
 317 237 317 237 362 218.5 c 128,-1,23
 407 200 407 200 469 200 c 0,24,25
 559 200 559 200 609 246 c 128,-1,26
 659 292 659 292 659 382 c 0,27,28
 659 433 659 433 634.5 465 c 128,-1,29
 610 497 610 497 570 518.5 c 128,-1,30
 530 540 530 540 478.5 555.5 c 128,-1,31
 427 571 427 571 373.5 589 c 128,-1,32
 320 607 320 607 268.5 632.5 c 128,-1,33
 217 658 217 658 177 700 c 128,-1,34
 137 742 137 742 112.5 804 c 128,-1,35
 88 866 88 866 88 958 c 0,36,37
 88 1031 88 1031 116 1100.5 c 128,-1,38
 144 1170 144 1170 198 1224 c 128,-1,39
 252 1278 252 1278 330.5 1310.5 c 128,-1,40
 409 1343 409 1343 510 1343 c 0,41,42
 624 1343 624 1343 721.5 1306 c 128,-1,43
 819 1269 819 1269 888 1202 c 1,44,-1
 821 1078 l 2,45,46
 811 1058 811 1058 797.5 1049.5 c 128,-1,47
 784 1041 784 1041 764 1041 c 0,48,49
 745 1041 745 1041 723 1055 c 128,-1,50
 701 1069 701 1069 671.5 1085.5 c 128,-1,51
 642 1102 642 1102 603 1116 c 128,-1,52
 564 1130 564 1130 513 1130 c 0,53,54
 423 1130 423 1130 377.5 1086 c 128,-1,55
 332 1042 332 1042 332 971 c 0,56,57
 332 926 332 926 356.5 896.5 c 128,-1,58
 381 867 381 867 421.5 845.5 c 128,-1,59
 462 824 462 824 513.5 807 c 128,-1,60
 565 790 565 790 619 770.5 c 128,-1,61
 673 751 673 751 724.5 724.5 c 128,-1,62
 776 698 776 698 816.5 658 c 128,-1,63
 857 618 857 618 881.5 560 c 128,-1,64
 906 502 906 502 906 419 c 0,65,66
 906 339 906 339 883 268.5 c 128,-1,67
 860 198 860 198 815.5 141.5 c 128,-1,68
 771 85 771 85 706 47 c 128,-1,69
 641 9 641 9 558 -6 c 1,70,-1
 544 -56 l 1,71,72
 635 -77 635 -77 670.5 -114.5 c 128,-1,73
 706 -152 706 -152 706 -201 c 0,74,75
 706 -234 706 -234 688.5 -260 c 128,-1,76
 671 -286 671 -286 639.5 -305 c 128,-1,77
 608 -324 608 -324 563.5 -334 c 128,-1,78
 519 -344 519 -344 465 -344 c 0,79,80
 427 -344 427 -344 392.5 -339 c 128,-1,81
 358 -334 358 -334 324 -324 c 1,82,-1
 347 -246 l 2,83,84
 353 -222 353 -222 376 -222 c 0,0,1
EndSplineSet
Validated: 1
Substitution2: "sous-table 'salt' Alternatives stylistiques dans Latin lookup 8" uni0218
Position2: "sous-table 'cpsp' Chasses pour composition en capitales lookups0" dx=40 dy=0 dh=80 dv=0
EndChar

StartChar: T
Encoding: 54 84 36
Width: 1014
GlyphClass: 2
Flags: W
LayerCount: 2
Fore
SplineSet
996 1328 m 1,0,-1
 996 1114 l 1,1,-1
 638 1114 l 1,2,-1
 638 0 l 1,3,-1
 376 0 l 1,4,-1
 376 1114 l 1,5,-1
 18 1114 l 1,6,-1
 18 1328 l 1,7,-1
 996 1328 l 1,0,-1
EndSplineSet
Validated: 1
Substitution2: "sous-table 'sups' Exposant lookups25" T.superior
Position2: "sous-table 'cpsp' Chasses pour composition en capitales lookups0" dx=40 dy=0 dh=80 dv=0
EndChar

StartChar: Tbar
Encoding: 293 358 37
Width: 1014
GlyphClass: 2
Flags: W
LayerCount: 2
Fore
SplineSet
996 1328 m 1,0,-1
 996 1114 l 1,1,-1
 638 1114 l 1,2,-1
 638 782 l 1,3,-1
 934 782 l 1,4,-1
 934 634 l 1,5,-1
 638 634 l 1,6,-1
 638 0 l 1,7,-1
 376 0 l 1,8,-1
 376 634 l 1,9,-1
 152 634 l 1,10,-1
 152 782 l 1,11,-1
 376 782 l 1,12,-1
 376 1114 l 1,13,-1
 18 1114 l 1,14,-1
 18 1328 l 1,15,-1
 996 1328 l 1,0,-1
EndSplineSet
Validated: 1
Position2: "sous-table 'cpsp' Chasses pour composition en capitales lookups0" dx=40 dy=0 dh=80 dv=0
EndChar

StartChar: U
Encoding: 55 85 38
Width: 1337
GlyphClass: 2
Flags: W
LayerCount: 2
Fore
SplineSet
669 212 m 256,0,1
 739 212 739 212 793.5 235 c 128,-1,2
 848 258 848 258 885.5 300 c 128,-1,3
 923 342 923 342 943 402 c 128,-1,4
 963 462 963 462 963 536 c 2,5,-1
 963 1328 l 1,6,-1
 1225 1328 l 1,7,-1
 1225 536 l 2,8,9
 1225 416 1225 416 1186.5 315 c 128,-1,10
 1148 214 1148 214 1076 140.5 c 128,-1,11
 1004 67 1004 67 901 26 c 128,-1,12
 798 -15 798 -15 669 -15 c 256,13,14
 540 -15 540 -15 436.5 26 c 128,-1,15
 333 67 333 67 261 140.5 c 128,-1,16
 189 214 189 214 150.5 315 c 128,-1,17
 112 416 112 416 112 536 c 2,18,-1
 112 1328 l 1,19,-1
 375 1328 l 1,20,-1
 375 536 l 2,21,22
 375 462 375 462 395 402 c 128,-1,23
 415 342 415 342 452.5 300 c 128,-1,24
 490 258 490 258 544.5 235 c 128,-1,25
 599 212 599 212 669 212 c 256,0,1
EndSplineSet
Validated: 1
Substitution2: "sous-table 'sups' Exposant lookups25" U.superior
Position2: "sous-table 'cpsp' Chasses pour composition en capitales lookups0" dx=40 dy=0 dh=80 dv=0
EndChar

StartChar: Uogonek
Encoding: 305 370 39
Width: 1337
GlyphClass: 2
Flags: W
LayerCount: 2
Fore
SplineSet
824 -171 m 0,0,1
 841 -171 841 -171 848 -188 c 2,2,-1
 886 -282 l 1,3,4
 854 -303 854 -303 805.5 -317 c 128,-1,5
 757 -331 757 -331 703 -331 c 0,6,7
 606 -331 606 -331 554.5 -291 c 128,-1,8
 503 -251 503 -251 503 -188 c 0,9,10
 503 -141 503 -141 531.5 -96 c 128,-1,11
 560 -51 560 -51 615 -13 c 1,12,13
 498 -4 498 -4 404.5 40 c 128,-1,14
 311 84 311 84 246 156.5 c 128,-1,15
 181 229 181 229 146.5 325.5 c 128,-1,16
 112 422 112 422 112 536 c 2,17,-1
 112 1328 l 1,18,-1
 375 1328 l 1,19,-1
 375 536 l 2,20,21
 375 462 375 462 395 402 c 128,-1,22
 415 342 415 342 452.5 300 c 128,-1,23
 490 258 490 258 544.5 235 c 128,-1,24
 599 212 599 212 669 212 c 256,25,26
 739 212 739 212 793.5 235 c 128,-1,27
 848 258 848 258 885.5 300 c 128,-1,28
 923 342 923 342 943 402 c 128,-1,29
 963 462 963 462 963 536 c 2,30,-1
 963 1328 l 1,31,-1
 1225 1328 l 1,32,-1
 1225 536 l 2,33,34
 1225 428 1225 428 1194 335.5 c 128,-1,35
 1163 243 1163 243 1105 172 c 128,-1,36
 1047 101 1047 101 963 54.5 c 128,-1,37
 879 8 879 8 773 -7 c 1,38,39
 741 -28 741 -28 716.5 -57.5 c 128,-1,40
 692 -87 692 -87 692 -124 c 0,41,42
 692 -152 692 -152 709 -168 c 128,-1,43
 726 -184 726 -184 757 -184 c 0,44,45
 774 -184 774 -184 785 -182 c 128,-1,46
 796 -180 796 -180 803 -177.5 c 128,-1,47
 810 -175 810 -175 814.5 -173 c 128,-1,48
 819 -171 819 -171 824 -171 c 0,0,1
EndSplineSet
Validated: 1
Position2: "sous-table 'cpsp' Chasses pour composition en capitales lookups0" dx=40 dy=0 dh=80 dv=0
EndChar

StartChar: V
Encoding: 56 86 40
Width: 1211
GlyphClass: 2
Flags: W
LayerCount: 2
Fore
SplineSet
1 1328 m 1,0,-1
 212 1328 l 2,1,2
 246 1328 246 1328 267.5 1312 c 128,-1,3
 289 1296 289 1296 300 1270 c 2,4,-1
 550 486 l 2,5,6
 565 445 565 445 580 397 c 128,-1,7
 595 349 595 349 608 297 c 1,8,9
 619 350 619 350 632.5 398.5 c 128,-1,10
 646 447 646 447 662 488 c 2,11,-1
 911 1270 l 2,12,13
 919 1293 919 1293 942 1310.5 c 128,-1,14
 965 1328 965 1328 998 1328 c 2,15,-1
 1210 1328 l 1,16,-1
 724 0 l 1,17,-1
 487 0 l 1,18,-1
 1 1328 l 1,0,-1
EndSplineSet
Validated: 1
Substitution2: "sous-table 'sups' Exposant lookups25" V.superior
Position2: "sous-table 'cpsp' Chasses pour composition en capitales lookups0" dx=40 dy=0 dh=80 dv=0
EndChar

StartChar: W
Encoding: 57 87 41
Width: 1856
GlyphClass: 2
Flags: W
LayerCount: 2
Fore
SplineSet
9 1328 m 1,0,-1
 229 1328 l 2,1,2
 264 1328 264 1328 286.5 1312 c 128,-1,3
 309 1296 309 1296 317 1270 c 2,4,-1
 513 503 l 2,5,6
 530 443 530 443 545 364 c 1,7,8
 553 403 553 403 561 438.5 c 128,-1,9
 569 474 569 474 580 504 c 2,10,-1
 812 1270 l 2,11,12
 820 1293 820 1293 843 1310.5 c 128,-1,13
 866 1328 866 1328 898 1328 c 2,14,-1
 975 1328 l 2,15,16
 1010 1328 1010 1328 1031.5 1312.5 c 128,-1,17
 1053 1297 1053 1297 1062 1270 c 2,18,-1
 1294 503 l 2,19,20
 1304 474 1304 474 1312.5 439.5 c 128,-1,21
 1321 405 1321 405 1329 367 c 1,22,23
 1336 405 1336 405 1343.5 439 c 128,-1,24
 1351 473 1351 473 1359 502 c 2,25,-1
 1555 1270 l 2,26,27
 1562 1293 1562 1293 1585.5 1310.5 c 128,-1,28
 1609 1328 1609 1328 1641 1328 c 2,29,-1
 1847 1328 l 1,30,-1
 1453 0 l 1,31,-1
 1215 0 l 1,32,-1
 952 883 l 2,33,34
 946 900 946 900 940.5 921 c 128,-1,35
 935 942 935 942 930 965 c 1,36,37
 925 942 925 942 919 921 c 128,-1,38
 913 900 913 900 908 883 c 2,39,-1
 640 0 l 1,40,-1
 403 0 l 1,41,-1
 9 1328 l 1,0,-1
EndSplineSet
Validated: 1
Substitution2: "sous-table 'sups' Exposant lookups25" W.superior
Position2: "sous-table 'cpsp' Chasses pour composition en capitales lookups0" dx=40 dy=0 dh=80 dv=0
EndChar

StartChar: X
Encoding: 58 88 42
Width: 1128
GlyphClass: 2
Flags: W
LayerCount: 2
Fore
SplineSet
386 683 m 1,0,-1
 21 1328 l 1,1,-1
 285 1328 l 2,2,3
 311 1328 311 1328 322.5 1321.5 c 128,-1,4
 334 1315 334 1315 344 1299 c 2,5,-1
 584 838 l 1,6,-1
 600 867 l 1,7,-1
 810 1294 l 2,8,9
 821 1311 821 1311 833 1319.5 c 128,-1,10
 845 1328 845 1328 862 1328 c 2,11,-1
 1113 1328 l 1,12,-1
 744 695 l 1,13,-1
 1121 0 l 1,14,-1
 860 0 l 2,15,16
 833 0 833 0 817.5 13.5 c 128,-1,17
 802 27 802 27 791 44 c 2,18,-1
 550 523 l 1,19,20
 548 518 548 518 545 513.5 c 128,-1,21
 542 509 542 509 540 504 c 2,22,-1
 316 45 l 2,23,24
 305 28 305 28 291 14 c 128,-1,25
 277 0 277 0 254 0 c 2,26,-1
 7 0 l 1,27,-1
 386 683 l 1,0,-1
EndSplineSet
Validated: 1
Substitution2: "sous-table 'sups' Exposant lookups25" X.superior
Position2: "sous-table 'cpsp' Chasses pour composition en capitales lookups0" dx=40 dy=0 dh=80 dv=0
EndChar

StartChar: Y
Encoding: 59 89 43
Width: 1064
GlyphClass: 2
Flags: W
LayerCount: 2
Fore
SplineSet
662 512 m 1,0,-1
 662 0 l 1,1,-1
 402 0 l 1,2,-1
 402 514 l 1,3,-1
 -15 1328 l 1,4,-1
 218 1328 l 2,5,6
 250 1328 250 1328 270 1312 c 128,-1,7
 290 1296 290 1296 303 1270 c 2,8,-1
 467 841 l 1,9,10
 488 801 488 801 504.5 766 c 128,-1,11
 521 731 521 731 534 696 c 1,12,13
 545 731 545 731 561 766 c 128,-1,14
 577 801 577 801 597 840 c 1,15,-1
 760 1270 l 2,16,17
 771 1291 771 1291 792 1309.5 c 128,-1,18
 813 1328 813 1328 846 1328 c 2,19,-1
 1079 1328 l 1,20,-1
 662 512 l 1,0,-1
EndSplineSet
Validated: 1
Substitution2: "sous-table 'sups' Exposant lookups25" Y.superior
Position2: "sous-table 'cpsp' Chasses pour composition en capitales lookups0" dx=40 dy=0 dh=80 dv=0
EndChar

StartChar: Z
Encoding: 60 90 44
Width: 979
GlyphClass: 2
Flags: W
LayerCount: 2
Fore
SplineSet
949 1328 m 1,0,-1
 949 1231 l 2,1,2
 949 1188 949 1188 924 1152 c 2,3,-1
 352 209 l 1,4,-1
 933 209 l 1,5,-1
 933 0 l 1,6,-1
 34 0 l 1,7,-1
 34 102 l 2,8,9
 34 142 34 142 57 174 c 2,10,-1
 629 1119 l 1,11,-1
 78 1119 l 1,12,-1
 78 1328 l 1,13,-1
 949 1328 l 1,0,-1
EndSplineSet
Validated: 1
Substitution2: "sous-table 'sups' Exposant lookups25" Z.superior
Position2: "sous-table 'cpsp' Chasses pour composition en capitales lookups0" dx=40 dy=0 dh=80 dv=0
EndChar

StartChar: a
Encoding: 67 97 45
Width: 1011
GlyphClass: 2
Flags: W
LayerCount: 2
Fore
SplineSet
789 0 m 2,0,1
 753 0 753 0 734 10.5 c 128,-1,2
 715 21 715 21 704 53 c 2,3,-1
 682 119 l 1,4,5
 644 86 644 86 609 61 c 128,-1,6
 574 36 574 36 536.5 19 c 128,-1,7
 499 2 499 2 456.5 -6.5 c 128,-1,8
 414 -15 414 -15 362 -15 c 0,9,10
 298 -15 298 -15 245 2.5 c 128,-1,11
 192 20 192 20 153.5 54 c 128,-1,12
 115 88 115 88 94 138.5 c 128,-1,13
 73 189 73 189 73 255 c 0,14,15
 73 310 73 310 101 365 c 128,-1,16
 129 420 129 420 196.5 464.5 c 128,-1,17
 264 509 264 509 376.5 538.5 c 128,-1,18
 489 568 489 568 657 572 c 1,19,-1
 657 625 l 2,20,21
 657 721 657 721 617 766 c 128,-1,22
 577 811 577 811 502 811 c 0,23,24
 446 811 446 811 409.5 798 c 128,-1,25
 373 785 373 785 345 769.5 c 128,-1,26
 317 754 317 754 293 741 c 128,-1,27
 269 728 269 728 239 728 c 0,28,29
 213 728 213 728 194.5 741.5 c 128,-1,30
 176 755 176 755 165 774 c 2,31,-1
 119 854 l 1,32,33
 205 934 205 934 309 973 c 128,-1,34
 413 1012 413 1012 534 1012 c 0,35,36
 621 1012 621 1012 690 983.5 c 128,-1,37
 759 955 759 955 807 903.5 c 128,-1,38
 855 852 855 852 880 781 c 128,-1,39
 905 710 905 710 905 625 c 2,40,-1
 905 0 l 1,41,-1
 789 0 l 2,0,1
441 158 m 0,42,43
 509 158 509 158 558.5 182.5 c 128,-1,44
 608 207 608 207 657 258 c 1,45,-1
 657 418 l 1,46,47
 558 414 558 414 492.5 401.5 c 128,-1,48
 427 389 427 389 388 369.5 c 128,-1,49
 349 350 349 350 332.5 324 c 128,-1,50
 316 298 316 298 316 268 c 0,51,52
 316 208 316 208 349.5 183 c 128,-1,53
 383 158 383 158 441 158 c 0,42,43
EndSplineSet
Validated: 1
Substitution2: "sous-table 'ordn' Ordinaux dans Latin lookup 39" a.superior
Substitution2: "sous-table 'sups' Exposant lookups25" a.superior
EndChar

StartChar: aogonek
Encoding: 196 261 46
Width: 1011
GlyphClass: 2
Flags: W
LayerCount: 2
Fore
SplineSet
938 -174 m 0,0,1
 955 -174 955 -174 962 -191 c 2,2,-1
 1000 -285 l 1,3,4
 968 -306 968 -306 919.5 -320 c 128,-1,5
 871 -334 871 -334 817 -334 c 0,6,7
 720 -334 720 -334 668.5 -294 c 128,-1,8
 617 -254 617 -254 617 -191 c 0,9,10
 617 -138 617 -138 652.5 -88.5 c 128,-1,11
 688 -39 688 -39 757 2 c 1,12,13
 737 6 737 6 724.5 17.5 c 128,-1,14
 712 29 712 29 704 53 c 2,15,-1
 682 119 l 1,16,17
 644 86 644 86 609 61 c 128,-1,18
 574 36 574 36 536.5 19 c 128,-1,19
 499 2 499 2 456.5 -6.5 c 128,-1,20
 414 -15 414 -15 362 -15 c 0,21,22
 298 -15 298 -15 245 2.5 c 128,-1,23
 192 20 192 20 153.5 54 c 128,-1,24
 115 88 115 88 94 138.5 c 128,-1,25
 73 189 73 189 73 255 c 0,26,27
 73 310 73 310 101 365 c 128,-1,28
 129 420 129 420 196.5 464.5 c 128,-1,29
 264 509 264 509 376.5 538.5 c 128,-1,30
 489 568 489 568 657 572 c 1,31,-1
 657 625 l 2,32,33
 657 721 657 721 617 766 c 128,-1,34
 577 811 577 811 502 811 c 0,35,36
 446 811 446 811 409.5 798 c 128,-1,37
 373 785 373 785 345 769.5 c 128,-1,38
 317 754 317 754 293 741 c 128,-1,39
 269 728 269 728 239 728 c 0,40,41
 213 728 213 728 194.5 741.5 c 128,-1,42
 176 755 176 755 165 774 c 2,43,-1
 119 854 l 1,44,45
 205 934 205 934 309 973 c 128,-1,46
 413 1012 413 1012 534 1012 c 0,47,48
 621 1012 621 1012 690 983.5 c 128,-1,49
 759 955 759 955 807 903.5 c 128,-1,50
 855 852 855 852 880 781 c 128,-1,51
 905 710 905 710 905 625 c 2,52,-1
 905 0 l 1,53,54
 886 -10 886 -10 868.5 -23.5 c 128,-1,55
 851 -37 851 -37 837 -53 c 128,-1,56
 823 -69 823 -69 814.5 -87.5 c 128,-1,57
 806 -106 806 -106 806 -127 c 0,58,59
 806 -155 806 -155 823 -171 c 128,-1,60
 840 -187 840 -187 871 -187 c 0,61,62
 888 -187 888 -187 899 -185 c 128,-1,63
 910 -183 910 -183 917 -180.5 c 128,-1,64
 924 -178 924 -178 928.5 -176 c 128,-1,65
 933 -174 933 -174 938 -174 c 0,0,1
441 158 m 0,66,67
 509 158 509 158 558.5 182.5 c 128,-1,68
 608 207 608 207 657 258 c 1,69,-1
 657 418 l 1,70,71
 558 414 558 414 492.5 401.5 c 128,-1,72
 427 389 427 389 388 369.5 c 128,-1,73
 349 350 349 350 332.5 324 c 128,-1,74
 316 298 316 298 316 268 c 0,75,76
 316 208 316 208 349.5 183 c 128,-1,77
 383 158 383 158 441 158 c 0,66,67
EndSplineSet
Validated: 1
EndChar

StartChar: ae
Encoding: 165 230 47
Width: 1587
GlyphClass: 2
Flags: W
LayerCount: 2
Fore
SplineSet
1126 1009 m 0,0,1
 1211 1009 1211 1009 1284 976 c 128,-1,2
 1357 943 1357 943 1410.5 882 c 128,-1,3
 1464 821 1464 821 1494.5 734 c 128,-1,4
 1525 647 1525 647 1525 538 c 0,5,6
 1525 509 1525 509 1522.5 490 c 128,-1,7
 1520 471 1520 471 1514 460 c 128,-1,8
 1508 449 1508 449 1497 444.5 c 128,-1,9
 1486 440 1486 440 1469 440 c 2,10,-1
 902 440 l 1,11,12
 916 306 916 306 980 243.5 c 128,-1,13
 1044 181 1044 181 1144 181 c 0,14,15
 1209 181 1209 181 1249.5 193.5 c 128,-1,16
 1290 206 1290 206 1316 220.5 c 128,-1,17
 1342 235 1342 235 1360.5 247.5 c 128,-1,18
 1379 260 1379 260 1400 260 c 0,19,20
 1419 260 1419 260 1431 254 c 128,-1,21
 1443 248 1443 248 1451 237 c 2,22,-1
 1519 149 l 1,23,24
 1478 101 1478 101 1429.5 69.5 c 128,-1,25
 1381 38 1381 38 1328.5 19.5 c 128,-1,26
 1276 1 1276 1 1223 -7 c 128,-1,27
 1170 -15 1170 -15 1120 -15 c 0,28,29
 1017 -15 1017 -15 926.5 30.5 c 128,-1,30
 836 76 836 76 776 175 c 1,31,32
 746 125 746 125 704 89 c 128,-1,33
 662 53 662 53 611 30 c 128,-1,34
 560 7 560 7 503 -4 c 128,-1,35
 446 -15 446 -15 386 -15 c 0,36,37
 313 -15 313 -15 255 3.5 c 128,-1,38
 197 22 197 22 156.5 58 c 128,-1,39
 116 94 116 94 94.5 146.5 c 128,-1,40
 73 199 73 199 73 267 c 0,41,42
 73 322 73 322 101.5 378.5 c 128,-1,43
 130 435 130 435 198 482 c 128,-1,44
 266 529 266 529 379 560 c 128,-1,45
 492 591 492 591 661 595 c 1,46,-1
 661 625 l 2,47,48
 661 721 661 721 620.5 770.5 c 128,-1,49
 580 820 580 820 504 820 c 0,50,51
 448 820 448 820 411 805.5 c 128,-1,52
 374 791 374 791 346 774 c 128,-1,53
 318 757 318 757 294 742.5 c 128,-1,54
 270 728 270 728 240 728 c 0,55,56
 214 728 214 728 195.5 741.5 c 128,-1,57
 177 755 177 755 166 774 c 2,58,-1
 119 855 l 1,59,60
 207 934 207 934 300.5 973 c 128,-1,61
 394 1012 394 1012 508 1012 c 0,62,63
 618 1012 618 1012 690.5 971.5 c 128,-1,64
 763 931 763 931 801 859 c 1,65,66
 856 928 856 928 937 968.5 c 128,-1,67
 1018 1009 1018 1009 1126 1009 c 0,0,1
661 441 m 1,68,69
 562 436 562 436 495.5 422 c 128,-1,70
 429 408 429 408 389 386 c 128,-1,71
 349 364 349 364 332.5 336.5 c 128,-1,72
 316 309 316 309 316 279 c 0,73,74
 316 217 316 217 351 187.5 c 128,-1,75
 386 158 386 158 448 158 c 0,76,77
 493 158 493 158 532 172 c 128,-1,78
 571 186 571 186 599.5 215.5 c 128,-1,79
 628 245 628 245 644.5 291.5 c 128,-1,80
 661 338 661 338 661 404 c 2,81,-1
 661 441 l 1,68,69
1115 828 m 0,82,83
 1020 828 1020 828 967 766.5 c 128,-1,84
 914 705 914 705 902 593 c 1,85,-1
 1299 593 l 1,86,87
 1299 638 1299 638 1288 680 c 128,-1,88
 1277 722 1277 722 1254.5 755 c 128,-1,89
 1232 788 1232 788 1197.5 808 c 128,-1,90
 1163 828 1163 828 1115 828 c 0,82,83
EndSplineSet
Validated: 1
EndChar

StartChar: b
Encoding: 68 98 48
Width: 1099
GlyphClass: 2
Flags: W
LayerCount: 2
Fore
SplineSet
124 0 m 1,0,-1
 124 1437 l 1,1,-1
 378 1437 l 1,2,-1
 378 876 l 1,3,4
 436 936 436 936 507 972.5 c 128,-1,5
 578 1009 578 1009 667 1009 c 0,6,7
 752 1009 752 1009 820 975 c 128,-1,8
 888 941 888 941 936 877.5 c 128,-1,9
 984 814 984 814 1010 724 c 128,-1,10
 1036 634 1036 634 1036 522 c 0,11,12
 1036 401 1036 401 1006 302 c 128,-1,13
 976 203 976 203 921 132.5 c 128,-1,14
 866 62 866 62 789.5 23.5 c 128,-1,15
 713 -15 713 -15 619 -15 c 0,16,17
 573 -15 573 -15 536.5 -6 c 128,-1,18
 500 3 500 3 469 19.5 c 128,-1,19
 438 36 438 36 412.5 59.5 c 128,-1,20
 387 83 387 83 363 112 c 1,21,-1
 352 48 l 2,22,23
 347 21 347 21 332 10.5 c 128,-1,24
 317 0 317 0 293 0 c 2,25,-1
 124 0 l 1,0,-1
579 811 m 0,26,27
 515 811 515 811 468 782.5 c 128,-1,28
 421 754 421 754 378 700 c 1,29,-1
 378 262 l 1,30,31
 416 215 416 215 460 196 c 128,-1,32
 504 177 504 177 554 177 c 256,33,34
 604 177 604 177 645 195.5 c 128,-1,35
 686 214 686 214 714.5 254.5 c 128,-1,36
 743 295 743 295 758.5 358.5 c 128,-1,37
 774 422 774 422 774 512 c 0,38,39
 774 592 774 592 761 648.5 c 128,-1,40
 748 705 748 705 723.5 741 c 128,-1,41
 699 777 699 777 662.5 794 c 128,-1,42
 626 811 626 811 579 811 c 0,26,27
EndSplineSet
Validated: 1
Substitution2: "sous-table 'ordn' Ordinaux dans Latin lookup 39" b.superior
Substitution2: "sous-table 'sups' Exposant lookups25" b.superior
EndChar

StartChar: c
Encoding: 69 99 49
Width: 857
GlyphClass: 2
Flags: W
LayerCount: 2
Fore
SplineSet
761 776 m 2,0,1
 750 762 750 762 739 753.5 c 128,-1,2
 728 745 728 745 708 745 c 0,3,4
 689 745 689 745 673 756 c 128,-1,5
 657 767 657 767 636.5 780.5 c 128,-1,6
 616 794 616 794 588.5 805 c 128,-1,7
 561 816 561 816 519 816 c 0,8,9
 467 816 467 816 428.5 794 c 128,-1,10
 390 772 390 772 365 731 c 128,-1,11
 340 690 340 690 327.5 631 c 128,-1,12
 315 572 315 572 315 499 c 0,13,14
 315 344 315 344 368 260.5 c 128,-1,15
 421 177 421 177 514 177 c 0,16,17
 563 177 563 177 592 191 c 128,-1,18
 621 205 621 205 641 221.5 c 128,-1,19
 661 238 661 238 677.5 252 c 128,-1,20
 694 266 694 266 717 266 c 0,21,22
 746 266 746 266 762 243 c 2,23,-1
 836 149 l 1,24,25
 796 101 796 101 751 69.5 c 128,-1,26
 706 38 706 38 658.5 19 c 128,-1,27
 611 0 611 0 562.5 -7.5 c 128,-1,28
 514 -15 514 -15 467 -15 c 0,29,30
 383 -15 383 -15 308.5 19.5 c 128,-1,31
 234 54 234 54 177.5 120 c 128,-1,32
 121 186 121 186 88 281.5 c 128,-1,33
 55 377 55 377 55 499 c 0,34,35
 55 608 55 608 84 701 c 128,-1,36
 113 794 113 794 169.5 862.5 c 128,-1,37
 226 931 226 931 309.5 970 c 128,-1,38
 393 1009 393 1009 503 1009 c 0,39,40
 607 1009 607 1009 686 972.5 c 128,-1,41
 765 936 765 936 828 867 c 1,42,-1
 761 776 l 2,0,1
EndSplineSet
Validated: 1
Substitution2: "sous-table 'ordn' Ordinaux dans Latin lookup 39" c.superior
Substitution2: "sous-table 'sups' Exposant lookups25" c.superior
EndChar

StartChar: ccedilla
Encoding: 166 231 50
Width: 857
GlyphClass: 2
Flags: W
LayerCount: 2
Fore
SplineSet
370 -222 m 256,0,1
 383 -222 383 -222 396 -228 c 128,-1,2
 409 -234 409 -234 430 -234 c 0,3,4
 455 -234 455 -234 466 -223 c 128,-1,5
 477 -212 477 -212 477 -197 c 0,6,7
 477 -171 477 -171 449 -159.5 c 128,-1,8
 421 -148 421 -148 357 -138 c 1,9,-1
 398 -9 l 1,10,11
 326 4 326 4 263.5 44 c 128,-1,12
 201 84 201 84 154.5 148.5 c 128,-1,13
 108 213 108 213 81.5 301 c 128,-1,14
 55 389 55 389 55 499 c 0,15,16
 55 608 55 608 84 701 c 128,-1,17
 113 794 113 794 169.5 862.5 c 128,-1,18
 226 931 226 931 309.5 970 c 128,-1,19
 393 1009 393 1009 503 1009 c 0,20,21
 607 1009 607 1009 686 972.5 c 128,-1,22
 765 936 765 936 828 867 c 1,23,-1
 761 776 l 2,24,25
 750 762 750 762 739 753.5 c 128,-1,26
 728 745 728 745 708 745 c 0,27,28
 689 745 689 745 673 756 c 128,-1,29
 657 767 657 767 636.5 780.5 c 128,-1,30
 616 794 616 794 588.5 805 c 128,-1,31
 561 816 561 816 519 816 c 0,32,33
 467 816 467 816 428.5 794 c 128,-1,34
 390 772 390 772 365 731 c 128,-1,35
 340 690 340 690 327.5 631 c 128,-1,36
 315 572 315 572 315 499 c 0,37,38
 315 344 315 344 368 260.5 c 128,-1,39
 421 177 421 177 514 177 c 0,40,41
 563 177 563 177 592 191 c 128,-1,42
 621 205 621 205 641 221.5 c 128,-1,43
 661 238 661 238 677.5 252 c 128,-1,44
 694 266 694 266 717 266 c 0,45,46
 746 266 746 266 762 243 c 2,47,-1
 836 149 l 1,48,49
 771 72 771 72 695 35.5 c 128,-1,50
 619 -1 619 -1 541 -10 c 1,51,-1
 530 -56 l 1,52,53
 572 -67 572 -67 600 -81.5 c 128,-1,54
 628 -96 628 -96 645 -114.5 c 128,-1,55
 662 -133 662 -133 669 -154.5 c 128,-1,56
 676 -176 676 -176 676 -201 c 0,57,58
 676 -234 676 -234 659.5 -260 c 128,-1,59
 643 -286 643 -286 613 -305 c 128,-1,60
 583 -324 583 -324 541 -334 c 128,-1,61
 499 -344 499 -344 448 -344 c 0,62,63
 413 -344 413 -344 382 -339 c 128,-1,64
 351 -334 351 -334 319 -324 c 1,65,-1
 342 -246 l 2,66,67
 345 -235 345 -235 351 -228.5 c 128,-1,68
 357 -222 357 -222 370 -222 c 256,0,1
EndSplineSet
Validated: 1
EndChar

StartChar: c_h.dlig
Encoding: 2117 -1 51
Width: 1917
GlyphClass: 3
Flags: W
LayerCount: 2
Fore
SplineSet
761 776 m 2,0,1
 750 762 750 762 739 753.5 c 128,-1,2
 728 745 728 745 708 745 c 0,3,4
 689 745 689 745 673 756 c 128,-1,5
 657 767 657 767 636.5 780.5 c 128,-1,6
 616 794 616 794 588.5 805 c 128,-1,7
 561 816 561 816 519 816 c 0,8,9
 467 816 467 816 428.5 794 c 128,-1,10
 390 772 390 772 365 731 c 128,-1,11
 340 690 340 690 327.5 631 c 128,-1,12
 315 572 315 572 315 499 c 0,13,14
 315 344 315 344 368 260.5 c 128,-1,15
 421 177 421 177 514 177 c 0,16,17
 563 177 563 177 592 191 c 128,-1,18
 621 205 621 205 641 221.5 c 128,-1,19
 661 238 661 238 677.5 252 c 128,-1,20
 694 266 694 266 717 266 c 0,21,22
 746 266 746 266 762 243 c 2,23,-1
 836 149 l 1,24,25
 796 101 796 101 751 69.5 c 128,-1,26
 706 38 706 38 658.5 19 c 128,-1,27
 611 0 611 0 562.5 -7.5 c 128,-1,28
 514 -15 514 -15 467 -15 c 0,29,30
 383 -15 383 -15 308.5 19.5 c 128,-1,31
 234 54 234 54 177.5 120 c 128,-1,32
 121 186 121 186 88 281.5 c 128,-1,33
 55 377 55 377 55 499 c 0,34,35
 55 608 55 608 84 701 c 128,-1,36
 113 794 113 794 169.5 862.5 c 128,-1,37
 226 931 226 931 309.5 970 c 128,-1,38
 393 1009 393 1009 503 1009 c 0,39,40
 519 1009 519 1009 534 1008 c 128,-1,41
 549 1007 549 1007 564 1005 c 1,42,43
 538 1053 538 1053 522 1103.5 c 128,-1,44
 506 1154 506 1154 506 1208 c 0,45,46
 506 1269 506 1269 528.5 1324 c 128,-1,47
 551 1379 551 1379 595 1421 c 128,-1,48
 639 1463 639 1463 703.5 1488 c 128,-1,49
 768 1513 768 1513 852 1513 c 0,50,51
 918 1513 918 1513 967 1501 c 128,-1,52
 1016 1489 1016 1489 1055.5 1475 c 128,-1,53
 1095 1461 1095 1461 1127.5 1449 c 128,-1,54
 1160 1437 1160 1437 1192 1437 c 1,55,-1
 1192 893 l 1,56,57
 1249 945 1249 945 1315.5 977 c 128,-1,58
 1382 1009 1382 1009 1474 1009 c 0,59,60
 1555 1009 1555 1009 1617 981 c 128,-1,61
 1679 953 1679 953 1721 903 c 128,-1,62
 1763 853 1763 853 1784.5 783.5 c 128,-1,63
 1806 714 1806 714 1806 632 c 2,64,-1
 1806 0 l 1,65,-1
 1552 0 l 1,66,-1
 1552 632 l 2,67,68
 1552 717 1552 717 1513 764 c 128,-1,69
 1474 811 1474 811 1396 811 c 0,70,71
 1338 811 1338 811 1287.5 786 c 128,-1,72
 1237 761 1237 761 1192 716 c 1,73,-1
 1192 0 l 1,74,-1
 938 0 l 1,75,-1
 938 1319 l 1,76,77
 934 1335 934 1335 920.5 1347.5 c 128,-1,78
 907 1360 907 1360 887 1368.5 c 128,-1,79
 867 1377 867 1377 842.5 1381.5 c 128,-1,80
 818 1386 818 1386 793 1386 c 0,81,82
 749 1386 749 1386 717.5 1371 c 128,-1,83
 686 1356 686 1356 665 1331 c 128,-1,84
 644 1306 644 1306 634 1274 c 128,-1,85
 624 1242 624 1242 624 1208 c 0,86,87
 624 1166 624 1166 638 1125.5 c 128,-1,88
 652 1085 652 1085 674.5 1047 c 128,-1,89
 697 1009 697 1009 725 975 c 128,-1,90
 753 941 753 941 781 912 c 0,91,92
 794 901 794 901 805.5 890 c 128,-1,93
 817 879 817 879 828 867 c 1,94,-1
 761 776 l 2,0,1
EndSplineSet
Validated: 1
Ligature2: "sous-table 'dlig' Ligatures facultatives  dans Latin lookup 36" c h
EndChar

StartChar: c_k.dlig
Encoding: 2118 -1 52
Width: 1800
GlyphClass: 3
Flags: W
LayerCount: 2
Fore
SplineSet
761 776 m 2,0,1
 750 762 750 762 739 753.5 c 128,-1,2
 728 745 728 745 708 745 c 0,3,4
 689 745 689 745 673 756 c 128,-1,5
 657 767 657 767 636.5 780.5 c 128,-1,6
 616 794 616 794 588.5 805 c 128,-1,7
 561 816 561 816 519 816 c 0,8,9
 467 816 467 816 428.5 794 c 128,-1,10
 390 772 390 772 365 731 c 128,-1,11
 340 690 340 690 327.5 631 c 128,-1,12
 315 572 315 572 315 499 c 0,13,14
 315 344 315 344 368 260.5 c 128,-1,15
 421 177 421 177 514 177 c 0,16,17
 563 177 563 177 592 191 c 128,-1,18
 621 205 621 205 641 221.5 c 128,-1,19
 661 238 661 238 677.5 252 c 128,-1,20
 694 266 694 266 717 266 c 0,21,22
 746 266 746 266 762 243 c 2,23,-1
 836 149 l 1,24,25
 796 101 796 101 751 69.5 c 128,-1,26
 706 38 706 38 658.5 19 c 128,-1,27
 611 0 611 0 562.5 -7.5 c 128,-1,28
 514 -15 514 -15 467 -15 c 0,29,30
 383 -15 383 -15 308.5 19.5 c 128,-1,31
 234 54 234 54 177.5 120 c 128,-1,32
 121 186 121 186 88 281.5 c 128,-1,33
 55 377 55 377 55 499 c 0,34,35
 55 608 55 608 84 701 c 128,-1,36
 113 794 113 794 169.5 862.5 c 128,-1,37
 226 931 226 931 309.5 970 c 128,-1,38
 393 1009 393 1009 503 1009 c 0,39,40
 530 1009 530 1009 554 1006 c 1,41,42
 526 1054 526 1054 509 1104.5 c 128,-1,43
 492 1155 492 1155 492 1208 c 0,44,45
 492 1269 492 1269 514.5 1324 c 128,-1,46
 537 1379 537 1379 581 1421 c 128,-1,47
 625 1463 625 1463 689.5 1488 c 128,-1,48
 754 1513 754 1513 838 1513 c 0,49,50
 904 1513 904 1513 953 1501 c 128,-1,51
 1002 1489 1002 1489 1041.5 1475 c 128,-1,52
 1081 1461 1081 1461 1113.5 1449 c 128,-1,53
 1146 1437 1146 1437 1178 1437 c 1,54,-1
 1178 619 l 1,55,-1
 1217 619 l 2,56,57
 1241 619 1241 619 1253.5 626 c 128,-1,58
 1266 633 1266 633 1279 652 c 2,59,-1
 1461 950 l 2,60,61
 1476 970 1476 970 1495.5 981.5 c 128,-1,62
 1515 993 1515 993 1544 993 c 2,63,-1
 1776 993 l 1,64,-1
 1536 628 l 2,65,66
 1519 606 1519 606 1500.5 589 c 128,-1,67
 1482 572 1482 572 1460 558 c 1,68,69
 1480 543 1480 543 1495.5 523.5 c 128,-1,70
 1511 504 1511 504 1526 481 c 2,71,-1
 1787 0 l 1,72,-1
 1559 0 l 2,73,74
 1501 0 1501 0 1475 44 c 2,75,-1
 1293 414 l 2,76,77
 1281 437 1281 437 1267.5 444 c 128,-1,78
 1254 451 1254 451 1229 451 c 2,79,-1
 1178 451 l 1,80,-1
 1178 0 l 1,81,-1
 924 0 l 1,82,-1
 924 1319 l 1,83,84
 920 1335 920 1335 906.5 1347.5 c 128,-1,85
 893 1360 893 1360 873 1368.5 c 128,-1,86
 853 1377 853 1377 828.5 1381.5 c 128,-1,87
 804 1386 804 1386 779 1386 c 0,88,89
 735 1386 735 1386 703.5 1371 c 128,-1,90
 672 1356 672 1356 651 1331 c 128,-1,91
 630 1306 630 1306 620 1274 c 128,-1,92
 610 1242 610 1242 610 1208 c 0,93,94
 610 1167 610 1167 625 1127 c 128,-1,95
 640 1087 640 1087 663.5 1050 c 128,-1,96
 687 1013 687 1013 716.5 979 c 128,-1,97
 746 945 746 945 775 916 c 0,98,99
 789 905 789 905 802 893 c 128,-1,100
 815 881 815 881 828 867 c 1,101,-1
 761 776 l 2,0,1
EndSplineSet
Validated: 1
Ligature2: "sous-table 'dlig' Ligatures facultatives  dans Latin lookup 36" c k
EndChar

StartChar: c_t.dlig
Encoding: 2119 -1 53
Width: 1550
GlyphClass: 3
Flags: W
LayerCount: 2
Fore
SplineSet
1265 986 m 1,0,-1
 1497 986 l 1,1,-1
 1497 806 l 1,2,-1
 1265 806 l 1,3,-1
 1265 281 l 2,4,5
 1265 237 1265 237 1282 212.5 c 128,-1,6
 1299 188 1299 188 1331 188 c 0,7,8
 1348 188 1348 188 1359.5 192.5 c 128,-1,9
 1371 197 1371 197 1379.5 203 c 128,-1,10
 1388 209 1388 209 1395 213.5 c 128,-1,11
 1402 218 1402 218 1411 218 c 0,12,13
 1422 218 1422 218 1428.5 212.5 c 128,-1,14
 1435 207 1435 207 1443 195 c 2,15,-1
 1520 72 l 1,16,17
 1469 29 1469 29 1404.5 7 c 128,-1,18
 1340 -15 1340 -15 1271 -15 c 0,19,20
 1208 -15 1208 -15 1159.5 4.5 c 128,-1,21
 1111 24 1111 24 1078 60 c 128,-1,22
 1045 96 1045 96 1028 147.5 c 128,-1,23
 1011 199 1011 199 1011 264 c 2,24,-1
 1011 806 l 1,25,-1
 928 806 l 2,26,27
 908 806 908 806 894 819.5 c 128,-1,28
 880 833 880 833 880 859 c 2,29,-1
 880 960 l 1,30,-1
 1039 991 l 1,31,32
 1049 1018 1049 1018 1059 1048.5 c 128,-1,33
 1069 1079 1069 1079 1076.5 1110 c 128,-1,34
 1084 1141 1084 1141 1088.5 1171 c 128,-1,35
 1093 1201 1093 1201 1093 1228 c 0,36,37
 1093 1264 1093 1264 1085.5 1297 c 128,-1,38
 1078 1330 1078 1330 1058.5 1355 c 128,-1,39
 1039 1380 1039 1380 1005.5 1395 c 128,-1,40
 972 1410 972 1410 920 1410 c 0,41,42
 861 1410 861 1410 814.5 1389 c 128,-1,43
 768 1368 768 1368 736 1332.5 c 128,-1,44
 704 1297 704 1297 687.5 1251 c 128,-1,45
 671 1205 671 1205 671 1155 c 0,46,47
 671 1099 671 1099 690.5 1043 c 128,-1,48
 710 987 710 987 749 936 c 1,49,50
 770 922 770 922 789.5 904.5 c 128,-1,51
 809 887 809 887 828 867 c 1,52,-1
 761 776 l 2,53,54
 750 762 750 762 739 753.5 c 128,-1,55
 728 745 728 745 708 745 c 0,56,57
 689 745 689 745 673 756 c 128,-1,58
 657 767 657 767 636.5 780.5 c 128,-1,59
 616 794 616 794 588.5 805 c 128,-1,60
 561 816 561 816 519 816 c 0,61,62
 467 816 467 816 428.5 794 c 128,-1,63
 390 772 390 772 365 731 c 128,-1,64
 340 690 340 690 327.5 631 c 128,-1,65
 315 572 315 572 315 499 c 0,66,67
 315 344 315 344 368 260.5 c 128,-1,68
 421 177 421 177 514 177 c 0,69,70
 563 177 563 177 592 191 c 128,-1,71
 621 205 621 205 641 221.5 c 128,-1,72
 661 238 661 238 677.5 252 c 128,-1,73
 694 266 694 266 717 266 c 0,74,75
 746 266 746 266 762 243 c 2,76,-1
 836 149 l 1,77,78
 796 101 796 101 751 69.5 c 128,-1,79
 706 38 706 38 658.5 19 c 128,-1,80
 611 0 611 0 562.5 -7.5 c 128,-1,81
 514 -15 514 -15 467 -15 c 0,82,83
 383 -15 383 -15 308.5 19.5 c 128,-1,84
 234 54 234 54 177.5 120 c 128,-1,85
 121 186 121 186 88 281.5 c 128,-1,86
 55 377 55 377 55 499 c 0,87,88
 55 608 55 608 84 701 c 128,-1,89
 113 794 113 794 169.5 862.5 c 128,-1,90
 226 931 226 931 309.5 970 c 128,-1,91
 393 1009 393 1009 503 1009 c 0,92,93
 542 1009 542 1009 578 1003 c 1,94,95
 565 1040 565 1040 559 1077.5 c 128,-1,96
 553 1115 553 1115 553 1153 c 0,97,98
 553 1222 553 1222 575.5 1287 c 128,-1,99
 598 1352 598 1352 644 1402 c 128,-1,100
 690 1452 690 1452 758.5 1482.5 c 128,-1,101
 827 1513 827 1513 920 1513 c 256,102,103
 1013 1513 1013 1513 1078.5 1484.5 c 128,-1,104
 1144 1456 1144 1456 1185.5 1409.5 c 128,-1,105
 1227 1363 1227 1363 1246 1304.5 c 128,-1,106
 1265 1246 1265 1246 1265 1185 c 2,107,-1
 1265 986 l 1,0,-1
EndSplineSet
Validated: 1
Ligature2: "sous-table 'dlig' Ligatures facultatives  dans Latin lookup 36" c t
EndChar

StartChar: ccedilla_t.dlig
Encoding: 2120 -1 54
Width: 1550
GlyphClass: 3
Flags: W
LayerCount: 2
Fore
SplineSet
1265 986 m 1,0,-1
 1497 986 l 1,1,-1
 1497 806 l 1,2,-1
 1265 806 l 1,3,-1
 1265 281 l 2,4,5
 1265 237 1265 237 1282 212.5 c 128,-1,6
 1299 188 1299 188 1331 188 c 0,7,8
 1348 188 1348 188 1359.5 192.5 c 128,-1,9
 1371 197 1371 197 1379.5 203 c 128,-1,10
 1388 209 1388 209 1395 213.5 c 128,-1,11
 1402 218 1402 218 1411 218 c 0,12,13
 1422 218 1422 218 1428.5 212.5 c 128,-1,14
 1435 207 1435 207 1443 195 c 2,15,-1
 1520 72 l 1,16,17
 1469 29 1469 29 1404.5 7 c 128,-1,18
 1340 -15 1340 -15 1271 -15 c 0,19,20
 1208 -15 1208 -15 1159.5 4.5 c 128,-1,21
 1111 24 1111 24 1078 60 c 128,-1,22
 1045 96 1045 96 1028 147.5 c 128,-1,23
 1011 199 1011 199 1011 264 c 2,24,-1
 1011 806 l 1,25,-1
 928 806 l 2,26,27
 908 806 908 806 894 819.5 c 128,-1,28
 880 833 880 833 880 859 c 2,29,-1
 880 960 l 1,30,-1
 1039 991 l 1,31,32
 1049 1018 1049 1018 1059 1048.5 c 128,-1,33
 1069 1079 1069 1079 1076.5 1110 c 128,-1,34
 1084 1141 1084 1141 1088.5 1171 c 128,-1,35
 1093 1201 1093 1201 1093 1228 c 0,36,37
 1093 1264 1093 1264 1085.5 1297 c 128,-1,38
 1078 1330 1078 1330 1058.5 1355 c 128,-1,39
 1039 1380 1039 1380 1005.5 1395 c 128,-1,40
 972 1410 972 1410 920 1410 c 0,41,42
 861 1410 861 1410 814.5 1389 c 128,-1,43
 768 1368 768 1368 736 1332.5 c 128,-1,44
 704 1297 704 1297 687.5 1251 c 128,-1,45
 671 1205 671 1205 671 1155 c 0,46,47
 671 1099 671 1099 690.5 1043 c 128,-1,48
 710 987 710 987 749 936 c 1,49,50
 770 922 770 922 789.5 904.5 c 128,-1,51
 809 887 809 887 828 867 c 1,52,-1
 761 776 l 2,53,54
 750 762 750 762 739 753.5 c 128,-1,55
 728 745 728 745 708 745 c 0,56,57
 689 745 689 745 673 756 c 128,-1,58
 657 767 657 767 636.5 780.5 c 128,-1,59
 616 794 616 794 588.5 805 c 128,-1,60
 561 816 561 816 519 816 c 0,61,62
 467 816 467 816 428.5 794 c 128,-1,63
 390 772 390 772 365 731 c 128,-1,64
 340 690 340 690 327.5 631 c 128,-1,65
 315 572 315 572 315 499 c 0,66,67
 315 344 315 344 368 260.5 c 128,-1,68
 421 177 421 177 514 177 c 0,69,70
 563 177 563 177 592 191 c 128,-1,71
 621 205 621 205 641 221.5 c 128,-1,72
 661 238 661 238 677.5 252 c 128,-1,73
 694 266 694 266 717 266 c 0,74,75
 746 266 746 266 762 243 c 2,76,-1
 836 149 l 1,77,78
 771 71 771 71 694 35 c 128,-1,79
 617 -1 617 -1 539 -10 c 1,80,-1
 527 -56 l 1,81,82
 618 -77 618 -77 653.5 -114.5 c 128,-1,83
 689 -152 689 -152 689 -201 c 0,84,85
 689 -234 689 -234 671.5 -260 c 128,-1,86
 654 -286 654 -286 622.5 -305 c 128,-1,87
 591 -324 591 -324 546.5 -334 c 128,-1,88
 502 -344 502 -344 448 -344 c 0,89,90
 410 -344 410 -344 375.5 -339 c 128,-1,91
 341 -334 341 -334 307 -324 c 1,92,-1
 330 -246 l 2,93,94
 336 -222 336 -222 359 -222 c 0,95,96
 373 -222 373 -222 388.5 -228 c 128,-1,97
 404 -234 404 -234 431 -234 c 0,98,99
 461 -234 461 -234 475.5 -223 c 128,-1,100
 490 -212 490 -212 490 -197 c 0,101,102
 490 -171 490 -171 457.5 -159.5 c 128,-1,103
 425 -148 425 -148 353 -138 c 1,104,-1
 396 -8 l 1,105,106
 324 5 324 5 262 45 c 128,-1,107
 200 85 200 85 154 149.5 c 128,-1,108
 108 214 108 214 81.5 302 c 128,-1,109
 55 390 55 390 55 499 c 256,110,111
 55 608 55 608 84 701 c 128,-1,112
 113 794 113 794 169.5 862.5 c 128,-1,113
 226 931 226 931 309.5 970 c 128,-1,114
 393 1009 393 1009 503 1009 c 0,115,116
 542 1009 542 1009 578 1003 c 1,117,118
 565 1040 565 1040 559 1077.5 c 128,-1,119
 553 1115 553 1115 553 1153 c 0,120,121
 553 1222 553 1222 575.5 1287 c 128,-1,122
 598 1352 598 1352 644 1402 c 128,-1,123
 690 1452 690 1452 758.5 1482.5 c 128,-1,124
 827 1513 827 1513 920 1513 c 256,125,126
 1013 1513 1013 1513 1078.5 1484.5 c 128,-1,127
 1144 1456 1144 1456 1185.5 1409.5 c 128,-1,128
 1227 1363 1227 1363 1246 1304.5 c 128,-1,129
 1265 1246 1265 1246 1265 1185 c 2,130,-1
 1265 986 l 1,0,-1
EndSplineSet
Validated: 1
Ligature2: "sous-table 'dlig' Ligatures facultatives  dans Latin lookup 36" ccedilla t
EndChar

StartChar: d
Encoding: 70 100 55
Width: 1099
GlyphClass: 2
Flags: W
LayerCount: 2
Fore
SplineSet
818 0 m 2,0,1
 795 0 795 0 778.5 11.5 c 128,-1,2
 762 23 762 23 757 46 c 2,3,-1
 735 135 l 1,4,5
 676 68 676 68 600 26.5 c 128,-1,6
 524 -15 524 -15 422 -15 c 0,7,8
 343 -15 343 -15 277 19 c 128,-1,9
 211 53 211 53 163.5 118 c 128,-1,10
 116 183 116 183 89.5 277.5 c 128,-1,11
 63 372 63 372 63 494 c 0,12,13
 63 605 63 605 93 699.5 c 128,-1,14
 123 794 123 794 178 863.5 c 128,-1,15
 233 933 233 933 310.5 972.5 c 128,-1,16
 388 1012 388 1012 483 1012 c 0,17,18
 563 1012 563 1012 619.5 987.5 c 128,-1,19
 676 963 676 963 721 920 c 1,20,-1
 721 1437 l 1,21,-1
 975 1437 l 1,22,-1
 975 0 l 1,23,-1
 818 0 l 2,0,1
511 186 m 0,24,25
 546 186 546 186 575.5 193.5 c 128,-1,26
 605 201 605 201 630 215 c 128,-1,27
 655 229 655 229 677.5 249.5 c 128,-1,28
 700 270 700 270 721 297 c 1,29,-1
 721 735 l 1,30,31
 683 783 683 783 638.5 801.5 c 128,-1,32
 594 820 594 820 543 820 c 0,33,34
 494 820 494 820 453.5 800.5 c 128,-1,35
 413 781 413 781 384.5 741 c 128,-1,36
 356 701 356 701 340.5 639.5 c 128,-1,37
 325 578 325 578 325 494 c 0,38,39
 325 409 325 409 338 350.5 c 128,-1,40
 351 292 351 292 375 255.5 c 128,-1,41
 399 219 399 219 433.5 202.5 c 128,-1,42
 468 186 468 186 511 186 c 0,24,25
EndSplineSet
Validated: 1
Substitution2: "sous-table 'ordn' Ordinaux dans Latin lookup 39" d.superior
Substitution2: "sous-table 'sups' Exposant lookups25" d.superior
EndChar

StartChar: dcroat
Encoding: 208 273 57
Width: 1165
GlyphClass: 2
Flags: W
LayerCount: 2
Fore
SplineSet
545 1245 m 1,0,-1
 774 1245 l 1,1,-1
 774 1437 l 1,2,-1
 1028 1437 l 1,3,-1
 1028 1245 l 1,4,-1
 1174 1245 l 1,5,-1
 1174 1090 l 1,6,-1
 1028 1090 l 1,7,-1
 1028 0 l 1,8,-1
 873 0 l 2,9,10
 848 0 848 0 832 11.5 c 128,-1,11
 816 23 816 23 811 46 c 2,12,-1
 788 137 l 1,13,14
 756 103 756 103 720 75 c 128,-1,15
 684 47 684 47 643 27 c 128,-1,16
 602 7 602 7 555 -4 c 128,-1,17
 508 -15 508 -15 453 -15 c 0,18,19
 368 -15 368 -15 297.5 16.5 c 128,-1,20
 227 48 227 48 176 110 c 128,-1,21
 125 172 125 172 97 264 c 128,-1,22
 69 356 69 356 69 477 c 0,23,24
 69 588 69 588 100.5 681 c 128,-1,25
 132 774 132 774 190.5 840.5 c 128,-1,26
 249 907 249 907 331.5 944 c 128,-1,27
 414 981 414 981 516 981 c 0,28,29
 603 981 603 981 664 955 c 128,-1,30
 725 929 725 929 774 886 c 1,31,-1
 774 1090 l 1,32,-1
 545 1090 l 1,33,-1
 545 1245 l 1,0,-1
541 186 m 0,34,35
 618 186 618 186 672 215 c 128,-1,36
 726 244 726 244 774 298 c 1,37,-1
 774 705 l 1,38,39
 731 751 731 751 682 769 c 128,-1,40
 633 787 633 787 576 787 c 0,41,42
 520 787 520 787 475 770.5 c 128,-1,43
 430 754 430 754 398 717 c 128,-1,44
 366 680 366 680 348.5 621 c 128,-1,45
 331 562 331 562 331 477 c 0,46,47
 331 393 331 393 345.5 337 c 128,-1,48
 360 281 360 281 387.5 247.5 c 128,-1,49
 415 214 415 214 454 200 c 128,-1,50
 493 186 493 186 541 186 c 0,34,35
EndSplineSet
Validated: 1
EndChar

StartChar: eth
Encoding: 175 240 58
Width: 1099
GlyphClass: 2
Flags: W
LayerCount: 2
Fore
SplineSet
365 1023 m 2,0,1
 350 1048 350 1048 356.5 1070 c 128,-1,2
 363 1092 363 1092 388 1106 c 2,3,-1
 453 1142 l 1,4,5
 396 1163 396 1163 332 1181 c 0,6,7
 299 1190 299 1190 281.5 1219 c 128,-1,8
 264 1248 264 1248 281 1299 c 2,9,-1
 311 1386 l 1,10,11
 409 1370 409 1370 499.5 1339.5 c 128,-1,12
 590 1309 590 1309 671 1262 c 1,13,-1
 841 1370 l 1,14,-1
 892 1288 l 2,15,16
 906 1265 906 1265 900 1244 c 128,-1,17
 894 1223 894 1223 872 1210 c 2,18,-1
 799 1169 l 1,19,20
 907 1071 907 1071 970.5 927.5 c 128,-1,21
 1034 784 1034 784 1034 588 c 0,22,23
 1034 445 1034 445 1001.5 333 c 128,-1,24
 969 221 969 221 905.5 144 c 128,-1,25
 842 67 842 67 749 26.5 c 128,-1,26
 656 -14 656 -14 536 -14 c 0,27,28
 435 -14 435 -14 349 18 c 128,-1,29
 263 50 263 50 199 111 c 128,-1,30
 135 172 135 172 99 260 c 128,-1,31
 63 348 63 348 63 459 c 0,32,33
 63 547 63 547 94.5 627 c 128,-1,34
 126 707 126 707 183.5 768 c 128,-1,35
 241 829 241 829 322 864.5 c 128,-1,36
 403 900 403 900 503 900 c 0,37,38
 593 900 593 900 666.5 869 c 128,-1,39
 740 838 740 838 797 778 c 1,40,41
 777 873 777 873 731 943 c 128,-1,42
 685 1013 685 1013 606 1066 c 1,43,-1
 413 943 l 1,44,-1
 365 1023 l 2,0,1
543 178 m 0,45,46
 595 178 595 178 639.5 197 c 128,-1,47
 684 216 684 216 717.5 259 c 128,-1,48
 751 302 751 302 771 371.5 c 128,-1,49
 791 441 791 441 794 543 c 1,50,51
 779 577 779 577 758 607 c 128,-1,52
 737 637 737 637 707.5 659 c 128,-1,53
 678 681 678 681 640.5 694 c 128,-1,54
 603 707 603 707 556 707 c 0,55,56
 497 707 497 707 452 687.5 c 128,-1,57
 407 668 407 668 376.5 634 c 128,-1,58
 346 600 346 600 330.5 555 c 128,-1,59
 315 510 315 510 315 458 c 0,60,61
 315 389 315 389 333 337 c 128,-1,62
 351 285 351 285 381.5 249.5 c 128,-1,63
 412 214 412 214 453.5 196 c 128,-1,64
 495 178 495 178 543 178 c 0,45,46
EndSplineSet
Validated: 33
EndChar

StartChar: e
Encoding: 71 101 59
Width: 1031
GlyphClass: 2
Flags: W
LayerCount: 2
Fore
SplineSet
539 1009 m 0,0,1
 633 1009 633 1009 712 978.5 c 128,-1,2
 791 948 791 948 848 890.5 c 128,-1,3
 905 833 905 833 937 749 c 128,-1,4
 969 665 969 665 969 557 c 0,5,6
 969 528 969 528 966 509.5 c 128,-1,7
 963 491 963 491 956.5 480 c 128,-1,8
 950 469 950 469 938.5 464.5 c 128,-1,9
 927 460 927 460 910 460 c 2,10,-1
 316 460 l 1,11,12
 322 388 322 388 342 335 c 128,-1,13
 362 282 362 282 395 248 c 128,-1,14
 428 214 428 214 473 197.5 c 128,-1,15
 518 181 518 181 573 181 c 256,16,17
 628 181 628 181 668.5 194.5 c 128,-1,18
 709 208 709 208 739.5 223.5 c 128,-1,19
 770 239 770 239 794 252.5 c 128,-1,20
 818 266 818 266 841 266 c 0,21,22
 869 266 869 266 887 243 c 2,23,-1
 960 149 l 1,24,25
 919 101 919 101 869 69.5 c 128,-1,26
 819 38 819 38 765.5 19.5 c 128,-1,27
 712 1 712 1 657 -7 c 128,-1,28
 602 -15 602 -15 551 -15 c 0,29,30
 448 -15 448 -15 359 19 c 128,-1,31
 270 53 270 53 204 120.5 c 128,-1,32
 138 188 138 188 100.5 287.5 c 128,-1,33
 63 387 63 387 63 518 c 0,34,35
 63 619 63 619 96 708.5 c 128,-1,36
 129 798 129 798 190.5 864.5 c 128,-1,37
 252 931 252 931 340 970 c 128,-1,38
 428 1009 428 1009 539 1009 c 0,0,1
544 828 m 0,39,40
 447 828 447 828 392 771.5 c 128,-1,41
 337 715 337 715 321 612 c 1,42,-1
 741 612 l 1,43,44
 741 655 741 655 729.5 694 c 128,-1,45
 718 733 718 733 693.5 763 c 128,-1,46
 669 793 669 793 632 810.5 c 128,-1,47
 595 828 595 828 544 828 c 0,39,40
EndSplineSet
Validated: 1
Substitution2: "sous-table 'ordn' Ordinaux dans Latin lookup 39" e.superior
Substitution2: "sous-table 'sups' Exposant lookups25" e.superior
EndChar

StartChar: eogonek
Encoding: 216 281 60
Width: 1031
GlyphClass: 2
Flags: W
LayerCount: 2
Fore
SplineSet
703 -174 m 0,0,1
 720 -174 720 -174 727 -191 c 2,2,-1
 765 -285 l 1,3,4
 733 -306 733 -306 684.5 -320 c 128,-1,5
 636 -334 636 -334 582 -334 c 0,6,7
 485 -334 485 -334 433.5 -294 c 128,-1,8
 382 -254 382 -254 382 -191 c 0,9,10
 382 -143 382 -143 411.5 -97 c 128,-1,11
 441 -51 441 -51 499 -12 c 1,12,13
 406 -4 406 -4 326 33.5 c 128,-1,14
 246 71 246 71 187.5 138 c 128,-1,15
 129 205 129 205 96 300 c 128,-1,16
 63 395 63 395 63 518 c 0,17,18
 63 619 63 619 96 708.5 c 128,-1,19
 129 798 129 798 190.5 864.5 c 128,-1,20
 252 931 252 931 340 970 c 128,-1,21
 428 1009 428 1009 539 1009 c 0,22,23
 633 1009 633 1009 712 978.5 c 128,-1,24
 791 948 791 948 848 890.5 c 128,-1,25
 905 833 905 833 937 749 c 128,-1,26
 969 665 969 665 969 557 c 0,27,28
 969 528 969 528 966 509.5 c 128,-1,29
 963 491 963 491 956.5 480 c 128,-1,30
 950 469 950 469 938.5 464.5 c 128,-1,31
 927 460 927 460 910 460 c 2,32,-1
 316 460 l 1,33,34
 322 388 322 388 342 335 c 128,-1,35
 362 282 362 282 395 248 c 128,-1,36
 428 214 428 214 473 197.5 c 128,-1,37
 518 181 518 181 573 181 c 256,38,39
 628 181 628 181 668.5 194.5 c 128,-1,40
 709 208 709 208 739.5 223.5 c 128,-1,41
 770 239 770 239 794 252.5 c 128,-1,42
 818 266 818 266 841 266 c 0,43,44
 869 266 869 266 887 243 c 2,45,-1
 960 149 l 1,46,47
 897 77 897 77 817.5 41 c 128,-1,48
 738 5 738 5 657 -7 c 1,49,50
 623 -27 623 -27 597 -58 c 128,-1,51
 571 -89 571 -89 571 -127 c 0,52,53
 571 -155 571 -155 588 -171 c 128,-1,54
 605 -187 605 -187 636 -187 c 0,55,56
 653 -187 653 -187 664 -185 c 128,-1,57
 675 -183 675 -183 682 -180.5 c 128,-1,58
 689 -178 689 -178 693.5 -176 c 128,-1,59
 698 -174 698 -174 703 -174 c 0,0,1
544 828 m 0,60,61
 447 828 447 828 392 771.5 c 128,-1,62
 337 715 337 715 321 612 c 1,63,-1
 741 612 l 1,64,65
 741 655 741 655 729.5 694 c 128,-1,66
 718 733 718 733 693.5 763 c 128,-1,67
 669 793 669 793 632 810.5 c 128,-1,68
 595 828 595 828 544 828 c 0,60,61
EndSplineSet
Validated: 1
EndChar

StartChar: f
Encoding: 72 102 61
Width: 648
GlyphClass: 2
Flags: W
LayerCount: 2
Fore
SplineSet
156 0 m 1,0,-1
 156 806 l 1,1,-1
 85 820 l 2,2,3
 56 825 56 825 38 840 c 128,-1,4
 20 855 20 855 20 883 c 2,5,-1
 20 986 l 1,6,-1
 156 986 l 1,7,-1
 156 1055 l 2,8,9
 156 1140 156 1140 181 1208 c 128,-1,10
 206 1276 206 1276 253 1324 c 128,-1,11
 300 1372 300 1372 367 1397.5 c 128,-1,12
 434 1423 434 1423 519 1423 c 0,13,14
 552 1423 552 1423 581 1418.5 c 128,-1,15
 610 1414 610 1414 641 1405 c 1,16,-1
 635 1278 l 2,17,18
 633 1249 633 1249 611 1241 c 128,-1,19
 589 1233 589 1233 562 1233 c 0,20,21
 524 1233 524 1233 494 1224 c 128,-1,22
 464 1215 464 1215 443.5 1193.5 c 128,-1,23
 423 1172 423 1172 412.5 1136 c 128,-1,24
 402 1100 402 1100 402 1047 c 2,25,-1
 402 986 l 1,26,-1
 632 986 l 1,27,-1
 632 806 l 1,28,-1
 410 806 l 1,29,-1
 410 0 l 1,30,-1
 156 0 l 1,0,-1
EndSplineSet
Validated: 1
Substitution2: "sous-table 'ordn' Ordinaux dans Latin lookup 39" f.superior
Substitution2: "sous-table 'sups' Exposant lookups25" f.superior
EndChar

StartChar: f_b.liga
Encoding: 2121 -1 62
Width: 1730
GlyphClass: 3
Flags: W
LayerCount: 2
Fore
SplineSet
767 0 m 1,0,-1
 767 1272 l 1,1,2
 735 1283 735 1283 700.5 1290 c 128,-1,3
 666 1297 666 1297 632 1297 c 0,4,5
 577 1297 577 1297 534.5 1278.5 c 128,-1,6
 492 1260 492 1260 463.5 1226.5 c 128,-1,7
 435 1193 435 1193 420.5 1147.5 c 128,-1,8
 406 1102 406 1102 406 1048 c 2,9,-1
 406 986 l 1,10,-1
 643 986 l 1,11,-1
 643 806 l 1,12,-1
 414 806 l 1,13,-1
 414 0 l 1,14,-1
 160 0 l 1,15,-1
 160 806 l 1,16,-1
 85 820 l 2,17,18
 56 825 56 825 38.5 840 c 128,-1,19
 21 855 21 855 21 883 c 2,20,-1
 21 986 l 1,21,-1
 160 986 l 1,22,-1
 160 1048 l 2,23,24
 160 1137 160 1137 187 1212.5 c 128,-1,25
 214 1288 214 1288 272.5 1343 c 128,-1,26
 331 1398 331 1398 424 1429 c 128,-1,27
 517 1460 517 1460 648 1460 c 0,28,29
 693 1460 693 1460 733 1456.5 c 128,-1,30
 773 1453 773 1453 814.5 1449 c 128,-1,31
 856 1445 856 1445 902.5 1441.5 c 128,-1,32
 949 1438 949 1438 1007 1437 c 2,33,-1
 1021 1437 l 1,34,-1
 1032 1437 l 1,35,-1
 1021 1429 l 1,36,-1
 1021 876 l 1,37,38
 1079 936 1079 936 1150 972.5 c 128,-1,39
 1221 1009 1221 1009 1310 1009 c 0,40,41
 1395 1009 1395 1009 1463 975 c 128,-1,42
 1531 941 1531 941 1579 877.5 c 128,-1,43
 1627 814 1627 814 1653 724 c 128,-1,44
 1679 634 1679 634 1679 522 c 0,45,46
 1679 401 1679 401 1649 302 c 128,-1,47
 1619 203 1619 203 1564 132.5 c 128,-1,48
 1509 62 1509 62 1432.5 23.5 c 128,-1,49
 1356 -15 1356 -15 1262 -15 c 0,50,51
 1216 -15 1216 -15 1179.5 -6 c 128,-1,52
 1143 3 1143 3 1112 19.5 c 128,-1,53
 1081 36 1081 36 1055.5 59.5 c 128,-1,54
 1030 83 1030 83 1006 112 c 1,55,-1
 995 48 l 2,56,57
 990 21 990 21 975 10.5 c 128,-1,58
 960 0 960 0 936 0 c 2,59,-1
 767 0 l 1,0,-1
1222 811 m 0,60,61
 1158 811 1158 811 1111 782.5 c 128,-1,62
 1064 754 1064 754 1021 700 c 1,63,-1
 1021 262 l 1,64,65
 1059 215 1059 215 1103 196 c 128,-1,66
 1147 177 1147 177 1197 177 c 256,67,68
 1247 177 1247 177 1288 195.5 c 128,-1,69
 1329 214 1329 214 1357.5 254.5 c 128,-1,70
 1386 295 1386 295 1401.5 358.5 c 128,-1,71
 1417 422 1417 422 1417 512 c 0,72,73
 1417 592 1417 592 1404 648.5 c 128,-1,74
 1391 705 1391 705 1366.5 741 c 128,-1,75
 1342 777 1342 777 1305.5 794 c 128,-1,76
 1269 811 1269 811 1222 811 c 0,60,61
EndSplineSet
Validated: 1
Ligature2: "sous-table 'liga' Ligatures standard dans Latin lookup 37" f b
EndChar

StartChar: f_f_b.liga
Encoding: 2122 -1 63
Width: 2313
GlyphClass: 3
Flags: W
LayerCount: 2
Fore
SplineSet
157 0 m 1,0,-1
 157 806 l 1,1,-1
 85 820 l 2,2,3
 56 825 56 825 38 840 c 128,-1,4
 20 855 20 855 20 883 c 2,5,-1
 20 986 l 1,6,-1
 157 986 l 1,7,-1
 157 1037 l 2,8,9
 157 1122 157 1122 182 1190.5 c 128,-1,10
 207 1259 207 1259 254.5 1307 c 128,-1,11
 302 1355 302 1355 369.5 1380.5 c 128,-1,12
 437 1406 437 1406 523 1406 c 0,13,14
 556 1406 556 1406 585.5 1401 c 128,-1,15
 615 1396 615 1396 645 1388 c 1,16,-1
 640 1261 l 2,17,18
 638 1232 638 1232 615.5 1223.5 c 128,-1,19
 593 1215 593 1215 566 1215 c 0,20,21
 527 1215 527 1215 497 1206 c 128,-1,22
 467 1197 467 1197 446.5 1175.5 c 128,-1,23
 426 1154 426 1154 415 1118.5 c 128,-1,24
 404 1083 404 1083 404 1029 c 2,25,-1
 404 986 l 1,26,-1
 758 986 l 1,27,-1
 758 1048 l 2,28,29
 758 1137 758 1137 785 1212.5 c 128,-1,30
 812 1288 812 1288 870 1343 c 128,-1,31
 928 1398 928 1398 1020 1429 c 128,-1,32
 1112 1460 1112 1460 1242 1460 c 0,33,34
 1290 1460 1290 1460 1331.5 1456.5 c 128,-1,35
 1373 1453 1373 1453 1417 1448.5 c 128,-1,36
 1461 1444 1461 1444 1511 1440.5 c 128,-1,37
 1561 1437 1561 1437 1624 1437 c 1,38,-1
 1609 1426 l 1,39,-1
 1609 876 l 1,40,41
 1667 936 1667 936 1738 972.5 c 128,-1,42
 1809 1009 1809 1009 1898 1009 c 0,43,44
 1983 1009 1983 1009 2051 975 c 128,-1,45
 2119 941 2119 941 2167 877.5 c 128,-1,46
 2215 814 2215 814 2241 724 c 128,-1,47
 2267 634 2267 634 2267 522 c 0,48,49
 2267 401 2267 401 2237 302 c 128,-1,50
 2207 203 2207 203 2152 132.5 c 128,-1,51
 2097 62 2097 62 2020.5 23.5 c 128,-1,52
 1944 -15 1944 -15 1850 -15 c 0,53,54
 1804 -15 1804 -15 1767.5 -6 c 128,-1,55
 1731 3 1731 3 1700 19.5 c 128,-1,56
 1669 36 1669 36 1643.5 59.5 c 128,-1,57
 1618 83 1618 83 1594 112 c 1,58,-1
 1583 48 l 2,59,60
 1578 21 1578 21 1563 10.5 c 128,-1,61
 1548 0 1548 0 1524 0 c 2,62,-1
 1355 0 l 1,63,-1
 1355 1274 l 1,64,65
 1324 1285 1324 1285 1291 1291 c 128,-1,66
 1258 1297 1258 1297 1226 1297 c 0,67,68
 1172 1297 1172 1297 1130.5 1278.5 c 128,-1,69
 1089 1260 1089 1260 1061 1226.5 c 128,-1,70
 1033 1193 1033 1193 1018.5 1147.5 c 128,-1,71
 1004 1102 1004 1102 1004 1048 c 2,72,-1
 1004 986 l 1,73,-1
 1237 986 l 1,74,-1
 1237 806 l 1,75,-1
 1012 806 l 1,76,-1
 1012 0 l 1,77,-1
 758 0 l 1,78,-1
 758 806 l 1,79,-1
 411 806 l 1,80,-1
 411 0 l 1,81,-1
 157 0 l 1,0,-1
1810 811 m 0,82,83
 1746 811 1746 811 1699 782.5 c 128,-1,84
 1652 754 1652 754 1609 700 c 1,85,-1
 1609 262 l 1,86,87
 1647 215 1647 215 1691 196 c 128,-1,88
 1735 177 1735 177 1785 177 c 256,89,90
 1835 177 1835 177 1876 195.5 c 128,-1,91
 1917 214 1917 214 1945.5 254.5 c 128,-1,92
 1974 295 1974 295 1989.5 358.5 c 128,-1,93
 2005 422 2005 422 2005 512 c 0,94,95
 2005 592 2005 592 1992 648.5 c 128,-1,96
 1979 705 1979 705 1954.5 741 c 128,-1,97
 1930 777 1930 777 1893.5 794 c 128,-1,98
 1857 811 1857 811 1810 811 c 0,82,83
EndSplineSet
Validated: 1
Ligature2: "sous-table 'liga' Ligatures standard dans Latin lookup 37" f f b
EndChar

StartChar: uniFB00
Encoding: 2106 64256 64
Width: 1230
GlyphClass: 3
Flags: W
LayerCount: 2
Fore
SplineSet
153 0 m 1,0,-1
 153 806 l 1,1,-1
 84 820 l 2,2,3
 55 825 55 825 37.5 840 c 128,-1,4
 20 855 20 855 20 883 c 2,5,-1
 20 986 l 1,6,-1
 153 986 l 1,7,-1
 153 1037 l 2,8,9
 153 1122 153 1122 178 1190.5 c 128,-1,10
 203 1259 203 1259 249.5 1307 c 128,-1,11
 296 1355 296 1355 363 1380.5 c 128,-1,12
 430 1406 430 1406 514 1406 c 0,13,14
 546 1406 546 1406 575 1401 c 128,-1,15
 604 1396 604 1396 634 1388 c 1,16,-1
 628 1261 l 2,17,18
 626 1232 626 1232 604.5 1223.5 c 128,-1,19
 583 1215 583 1215 557 1215 c 0,20,21
 519 1215 519 1215 490 1206 c 128,-1,22
 461 1197 461 1197 440.5 1175.5 c 128,-1,23
 420 1154 420 1154 409.5 1118.5 c 128,-1,24
 399 1083 399 1083 399 1029 c 2,25,-1
 399 986 l 1,26,-1
 742 986 l 1,27,-1
 742 1071 l 2,28,29
 742 1156 742 1156 767 1224 c 128,-1,30
 792 1292 792 1292 838.5 1340 c 128,-1,31
 885 1388 885 1388 952 1413.5 c 128,-1,32
 1019 1439 1019 1439 1103 1439 c 0,33,34
 1135 1439 1135 1439 1164 1434.5 c 128,-1,35
 1193 1430 1193 1430 1223 1421 c 1,36,-1
 1218 1295 l 2,37,38
 1218 1281 1218 1281 1211.5 1272 c 128,-1,39
 1205 1263 1205 1263 1194.5 1258 c 128,-1,40
 1184 1253 1184 1253 1171.5 1251 c 128,-1,41
 1159 1249 1159 1249 1146 1249 c 0,42,43
 1108 1249 1108 1249 1079 1240 c 128,-1,44
 1050 1231 1050 1231 1029.5 1209.5 c 128,-1,45
 1009 1188 1009 1188 998.5 1152 c 128,-1,46
 988 1116 988 1116 988 1063 c 2,47,-1
 988 986 l 1,48,-1
 1215 986 l 1,49,-1
 1215 806 l 1,50,-1
 996 806 l 1,51,-1
 996 0 l 1,52,-1
 742 0 l 1,53,-1
 742 806 l 1,54,-1
 407 806 l 1,55,-1
 407 0 l 1,56,-1
 153 0 l 1,0,-1
EndSplineSet
Validated: 1
Ligature2: "sous-table 'liga' Ligatures standard dans Latin lookup 37" f f
EndChar

StartChar: f_h.liga
Encoding: 2123 -1 65
Width: 1730
GlyphClass: 3
Flags: W
LayerCount: 2
Fore
SplineSet
772 0 m 1,0,-1
 772 1271 l 1,1,2
 740 1283 740 1283 704.5 1290 c 128,-1,3
 669 1297 669 1297 634 1297 c 0,4,5
 578 1297 578 1297 535.5 1278.5 c 128,-1,6
 493 1260 493 1260 464.5 1226.5 c 128,-1,7
 436 1193 436 1193 421 1147.5 c 128,-1,8
 406 1102 406 1102 406 1048 c 2,9,-1
 406 986 l 1,10,-1
 645 986 l 1,11,-1
 645 806 l 1,12,-1
 414 806 l 1,13,-1
 414 0 l 1,14,-1
 160 0 l 1,15,-1
 160 806 l 1,16,-1
 85 820 l 2,17,18
 56 825 56 825 38.5 840 c 128,-1,19
 21 855 21 855 21 883 c 2,20,-1
 21 986 l 1,21,-1
 160 986 l 1,22,-1
 160 1048 l 2,23,24
 160 1137 160 1137 187 1212.5 c 128,-1,25
 214 1288 214 1288 273 1343 c 128,-1,26
 332 1398 332 1398 425 1429 c 128,-1,27
 518 1460 518 1460 650 1460 c 0,28,29
 698 1460 698 1460 740 1456.5 c 128,-1,30
 782 1453 782 1453 826 1448.5 c 128,-1,31
 870 1444 870 1444 920 1440.5 c 128,-1,32
 970 1437 970 1437 1034 1437 c 1,33,-1
 1026 1431 l 1,34,-1
 1026 893 l 1,35,36
 1083 945 1083 945 1149.5 977 c 128,-1,37
 1216 1009 1216 1009 1308 1009 c 0,38,39
 1389 1009 1389 1009 1451 981 c 128,-1,40
 1513 953 1513 953 1555 903 c 128,-1,41
 1597 853 1597 853 1618.5 783.5 c 128,-1,42
 1640 714 1640 714 1640 632 c 2,43,-1
 1640 0 l 1,44,-1
 1386 0 l 1,45,-1
 1386 632 l 2,46,47
 1386 717 1386 717 1347 764 c 128,-1,48
 1308 811 1308 811 1230 811 c 0,49,50
 1172 811 1172 811 1121.5 786 c 128,-1,51
 1071 761 1071 761 1026 716 c 1,52,-1
 1026 0 l 1,53,-1
 772 0 l 1,0,-1
EndSplineSet
Validated: 1
Ligature2: "sous-table 'liga' Ligatures standard dans Latin lookup 37" f h
EndChar

StartChar: f_f_h.liga
Encoding: 2124 -1 66
Width: 2313
GlyphClass: 3
Flags: W
LayerCount: 2
Fore
SplineSet
157 0 m 1,0,-1
 157 806 l 1,1,-1
 85 820 l 2,2,3
 56 825 56 825 38 840 c 128,-1,4
 20 855 20 855 20 883 c 2,5,-1
 20 986 l 1,6,-1
 157 986 l 1,7,-1
 157 1037 l 2,8,9
 157 1122 157 1122 182 1190.5 c 128,-1,10
 207 1259 207 1259 254.5 1307 c 128,-1,11
 302 1355 302 1355 369.5 1380.5 c 128,-1,12
 437 1406 437 1406 523 1406 c 0,13,14
 556 1406 556 1406 585.5 1401 c 128,-1,15
 615 1396 615 1396 645 1388 c 1,16,-1
 640 1261 l 2,17,18
 638 1232 638 1232 615.5 1223.5 c 128,-1,19
 593 1215 593 1215 566 1215 c 0,20,21
 527 1215 527 1215 497 1206 c 128,-1,22
 467 1197 467 1197 446.5 1175.5 c 128,-1,23
 426 1154 426 1154 415 1118.5 c 128,-1,24
 404 1083 404 1083 404 1029 c 2,25,-1
 404 986 l 1,26,-1
 758 986 l 1,27,-1
 758 1048 l 2,28,29
 758 1137 758 1137 785 1212.5 c 128,-1,30
 812 1288 812 1288 870 1343 c 128,-1,31
 928 1398 928 1398 1020 1429 c 128,-1,32
 1112 1460 1112 1460 1242 1460 c 0,33,34
 1290 1460 1290 1460 1331.5 1456.5 c 128,-1,35
 1373 1453 1373 1453 1417 1448.5 c 128,-1,36
 1461 1444 1461 1444 1511 1440.5 c 128,-1,37
 1561 1437 1561 1437 1624 1437 c 1,38,-1
 1608 1425 l 1,39,-1
 1608 893 l 1,40,41
 1665 945 1665 945 1731.5 977 c 128,-1,42
 1798 1009 1798 1009 1890 1009 c 0,43,44
 1971 1009 1971 1009 2033 981 c 128,-1,45
 2095 953 2095 953 2137 903 c 128,-1,46
 2179 853 2179 853 2200.5 783.5 c 128,-1,47
 2222 714 2222 714 2222 632 c 2,48,-1
 2222 0 l 1,49,-1
 1968 0 l 1,50,-1
 1968 632 l 2,51,52
 1968 717 1968 717 1929 764 c 128,-1,53
 1890 811 1890 811 1812 811 c 0,54,55
 1754 811 1754 811 1703.5 786 c 128,-1,56
 1653 761 1653 761 1608 716 c 1,57,-1
 1608 0 l 1,58,-1
 1354 0 l 1,59,-1
 1354 1274 l 1,60,61
 1323 1285 1323 1285 1290.5 1291 c 128,-1,62
 1258 1297 1258 1297 1226 1297 c 0,63,64
 1172 1297 1172 1297 1130.5 1278.5 c 128,-1,65
 1089 1260 1089 1260 1061 1226.5 c 128,-1,66
 1033 1193 1033 1193 1018.5 1147.5 c 128,-1,67
 1004 1102 1004 1102 1004 1048 c 2,68,-1
 1004 986 l 1,69,-1
 1237 986 l 1,70,-1
 1237 806 l 1,71,-1
 1012 806 l 1,72,-1
 1012 0 l 1,73,-1
 758 0 l 1,74,-1
 758 806 l 1,75,-1
 411 806 l 1,76,-1
 411 0 l 1,77,-1
 157 0 l 1,0,-1
EndSplineSet
Validated: 1
Ligature2: "sous-table 'liga' Ligatures standard dans Latin lookup 37" f f h
EndChar

StartChar: f_igrave.liga
Encoding: 2125 -1 68
Width: 1135
GlyphClass: 3
Flags: W
LayerCount: 2
Fore
SplineSet
160 0 m 1,0,-1
 160 806 l 1,1,-1
 85 820 l 2,2,3
 56 825 56 825 38.5 840 c 128,-1,4
 21 855 21 855 21 883 c 2,5,-1
 21 986 l 1,6,-1
 160 986 l 1,7,-1
 160 1097 l 2,8,9
 160 1254 160 1254 237 1342 c 128,-1,10
 314 1430 314 1430 457 1430 c 0,11,12
 483 1430 483 1430 504.5 1428 c 128,-1,13
 526 1426 526 1426 546 1418 c 1,14,-1
 546 1414 l 1,15,-1
 753 1414 l 2,16,17
 794 1414 794 1414 814 1400.5 c 128,-1,18
 834 1387 834 1387 849 1361 c 2,19,-1
 983 1126 l 1,20,-1
 839 1126 l 2,21,22
 810 1126 810 1126 792.5 1133.5 c 128,-1,23
 775 1141 775 1141 756 1161 c 2,24,-1
 546 1381 l 1,25,-1
 546 1281 l 2,26,27
 546 1261 546 1261 530.5 1254.5 c 128,-1,28
 515 1248 515 1248 495 1248 c 0,29,30
 445 1248 445 1248 425.5 1213 c 128,-1,31
 406 1178 406 1178 406 1097 c 2,32,-1
 406 986 l 1,33,-1
 1003 986 l 1,34,-1
 1003 0 l 1,35,-1
 749 0 l 1,36,-1
 749 806 l 1,37,-1
 414 806 l 1,38,-1
 414 0 l 1,39,-1
 160 0 l 1,0,-1
EndSplineSet
Validated: 1
Ligature2: "sous-table 'liga' Ligatures standard dans Latin lookup 37" f igrave
EndChar

StartChar: f_imacron.liga
Encoding: 2129 -1 72
Width: 1153
GlyphClass: 3
Flags: W
LayerCount: 2
Fore
SplineSet
172 0 m 1,0,-1
 172 806 l 1,1,-1
 97 820 l 2,2,3
 68 825 68 825 50.5 840 c 128,-1,4
 33 855 33 855 33 883 c 2,5,-1
 33 986 l 1,6,-1
 172 986 l 1,7,-1
 172 1097 l 2,8,9
 172 1254 172 1254 249 1342 c 128,-1,10
 326 1430 326 1430 469 1430 c 0,11,12
 495 1430 495 1430 516.5 1428 c 128,-1,13
 538 1426 538 1426 558 1418 c 1,14,-1
 558 1281 l 2,15,16
 558 1261 558 1261 542.5 1254.5 c 128,-1,17
 527 1248 527 1248 507 1248 c 0,18,19
 457 1248 457 1248 437.5 1213 c 128,-1,20
 418 1178 418 1178 418 1097 c 2,21,-1
 418 986 l 1,22,-1
 1015 986 l 1,23,-1
 1015 0 l 1,24,-1
 761 0 l 1,25,-1
 761 806 l 1,26,-1
 426 806 l 1,27,-1
 426 0 l 1,28,-1
 172 0 l 1,0,-1
598 1329 m 1,29,-1
 1181 1329 l 1,30,-1
 1181 1168 l 1,31,-1
 598 1168 l 1,32,-1
 598 1329 l 1,29,-1
EndSplineSet
Validated: 1
Ligature2: "sous-table 'liga' Ligatures standard dans Latin lookup 37" f imacron
EndChar

StartChar: f_iogonek.liga
Encoding: 2131 -1 74
Width: 1135
GlyphClass: 3
Flags: W
LayerCount: 2
Fore
SplineSet
160 0 m 1,0,-1
 160 806 l 1,1,-1
 85 820 l 2,2,3
 56 825 56 825 38.5 840 c 128,-1,4
 21 855 21 855 21 883 c 2,5,-1
 21 986 l 1,6,-1
 160 986 l 1,7,-1
 160 1097 l 2,8,9
 160 1254 160 1254 237 1342 c 128,-1,10
 314 1430 314 1430 457 1430 c 0,11,12
 483 1430 483 1430 504.5 1428 c 128,-1,13
 526 1426 526 1426 546 1418 c 1,14,-1
 546 1281 l 2,15,16
 546 1261 546 1261 530.5 1254.5 c 128,-1,17
 515 1248 515 1248 495 1248 c 0,18,19
 445 1248 445 1248 425.5 1213 c 128,-1,20
 406 1178 406 1178 406 1097 c 2,21,-1
 406 986 l 1,22,-1
 1003 986 l 1,23,-1
 1003 0 l 1,24,-1
 973 0 l 1,25,26
 954 -10 954 -10 936.5 -23.5 c 128,-1,27
 919 -37 919 -37 905 -53 c 128,-1,28
 891 -69 891 -69 882.5 -87.5 c 128,-1,29
 874 -106 874 -106 874 -127 c 0,30,31
 874 -155 874 -155 891 -171 c 128,-1,32
 908 -187 908 -187 939 -187 c 0,33,34
 956 -187 956 -187 967 -185 c 128,-1,35
 978 -183 978 -183 985 -180.5 c 128,-1,36
 992 -178 992 -178 996.5 -176 c 128,-1,37
 1001 -174 1001 -174 1006 -174 c 0,38,39
 1023 -174 1023 -174 1030 -191 c 2,40,-1
 1068 -285 l 1,41,42
 1036 -306 1036 -306 987.5 -320 c 128,-1,43
 939 -334 939 -334 885 -334 c 0,44,45
 788 -334 788 -334 736.5 -294 c 128,-1,46
 685 -254 685 -254 685 -191 c 0,47,48
 685 -139 685 -139 719.5 -90 c 128,-1,49
 754 -41 754 -41 821 0 c 1,50,-1
 749 0 l 1,51,-1
 749 806 l 1,52,-1
 414 806 l 1,53,-1
 414 0 l 1,54,-1
 160 0 l 1,0,-1
1041 1281 m 256,55,56
 1041 1248 1041 1248 1028 1219.5 c 128,-1,57
 1015 1191 1015 1191 993 1169.5 c 128,-1,58
 971 1148 971 1148 941 1135.5 c 128,-1,59
 911 1123 911 1123 878 1123 c 0,60,61
 846 1123 846 1123 817.5 1135.5 c 128,-1,62
 789 1148 789 1148 767.5 1169.5 c 128,-1,63
 746 1191 746 1191 733.5 1219.5 c 128,-1,64
 721 1248 721 1248 721 1281 c 256,65,66
 721 1314 721 1314 733.5 1343 c 128,-1,67
 746 1372 746 1372 767.5 1393.5 c 128,-1,68
 789 1415 789 1415 817.5 1427.5 c 128,-1,69
 846 1440 846 1440 878 1440 c 0,70,71
 911 1440 911 1440 941 1427.5 c 128,-1,72
 971 1415 971 1415 993 1393.5 c 128,-1,73
 1015 1372 1015 1372 1028 1343 c 128,-1,74
 1041 1314 1041 1314 1041 1281 c 256,55,56
EndSplineSet
Validated: 1
Ligature2: "sous-table 'liga' Ligatures standard dans Latin lookup 37" f iogonek
EndChar

StartChar: f_dotlessi.liga
Encoding: 2132 -1 75
Width: 1135
GlyphClass: 3
Flags: W
LayerCount: 2
Fore
SplineSet
160 0 m 1,0,-1
 160 806 l 1,1,-1
 85 820 l 2,2,3
 56 825 56 825 38.5 840 c 128,-1,4
 21 855 21 855 21 883 c 2,5,-1
 21 986 l 1,6,-1
 160 986 l 1,7,-1
 160 1097 l 2,8,9
 160 1254 160 1254 237 1342 c 128,-1,10
 314 1430 314 1430 457 1430 c 0,11,12
 483 1430 483 1430 504.5 1428 c 128,-1,13
 526 1426 526 1426 546 1418 c 1,14,-1
 546 1281 l 2,15,16
 546 1261 546 1261 530.5 1254.5 c 128,-1,17
 515 1248 515 1248 495 1248 c 0,18,19
 445 1248 445 1248 425.5 1213 c 128,-1,20
 406 1178 406 1178 406 1097 c 2,21,-1
 406 986 l 1,22,-1
 1003 986 l 1,23,-1
 1003 0 l 1,24,-1
 749 0 l 1,25,-1
 749 806 l 1,26,-1
 414 806 l 1,27,-1
 414 0 l 1,28,-1
 160 0 l 1,0,-1
EndSplineSet
Validated: 1
Ligature2: "sous-table 'liga' Ligatures standard dans Latin lookup 37" f dotlessi
EndChar

StartChar: f_f_igrave.liga
Encoding: 2133 -1 77
Width: 1718
GlyphClass: 3
Flags: W
LayerCount: 2
Fore
SplineSet
1335 0 m 1,0,-1
 1335 806 l 1,1,-1
 1008 806 l 1,2,-1
 1008 0 l 1,3,-1
 754 0 l 1,4,-1
 754 806 l 1,5,-1
 411 806 l 1,6,-1
 411 0 l 1,7,-1
 157 0 l 1,8,-1
 157 806 l 1,9,-1
 85 820 l 2,10,11
 56 825 56 825 38 840 c 128,-1,12
 20 855 20 855 20 883 c 2,13,-1
 20 986 l 1,14,-1
 157 986 l 1,15,-1
 157 1037 l 2,16,17
 157 1122 157 1122 182 1190.5 c 128,-1,18
 207 1259 207 1259 254 1307 c 128,-1,19
 301 1355 301 1355 368.5 1380.5 c 128,-1,20
 436 1406 436 1406 521 1406 c 0,21,22
 554 1406 554 1406 583 1401 c 128,-1,23
 612 1396 612 1396 643 1388 c 1,24,-1
 637 1261 l 2,25,26
 636 1247 636 1247 629.5 1238 c 128,-1,27
 623 1229 623 1229 613 1224 c 128,-1,28
 603 1219 603 1219 590 1217 c 128,-1,29
 577 1215 577 1215 564 1215 c 0,30,31
 526 1215 526 1215 496 1206 c 128,-1,32
 466 1197 466 1197 445.5 1175.5 c 128,-1,33
 425 1154 425 1154 414 1118.5 c 128,-1,34
 403 1083 403 1083 403 1029 c 2,35,-1
 403 986 l 1,36,-1
 754 986 l 1,37,-1
 754 1097 l 2,38,39
 754 1175 754 1175 773.5 1237 c 128,-1,40
 793 1299 793 1299 830.5 1342 c 128,-1,41
 868 1385 868 1385 922.5 1407.5 c 128,-1,42
 977 1430 977 1430 1047 1430 c 0,43,44
 1073 1430 1073 1430 1094.5 1428 c 128,-1,45
 1116 1426 1116 1426 1137 1418 c 1,46,-1
 1137 1414 l 1,47,-1
 1347 1414 l 2,48,49
 1388 1414 1388 1414 1408 1400.5 c 128,-1,50
 1428 1387 1428 1387 1443 1361 c 2,51,-1
 1577 1126 l 1,52,-1
 1433 1126 l 2,53,54
 1404 1126 1404 1126 1386.5 1133.5 c 128,-1,55
 1369 1141 1369 1141 1350 1161 c 2,56,-1
 1137 1384 l 1,57,-1
 1137 1281 l 2,58,59
 1137 1261 1137 1261 1121.5 1254.5 c 128,-1,60
 1106 1248 1106 1248 1086 1248 c 0,61,62
 1037 1248 1037 1248 1018.5 1213 c 128,-1,63
 1000 1178 1000 1178 1000 1097 c 2,64,-1
 1000 986 l 1,65,-1
 1589 986 l 1,66,-1
 1589 0 l 1,67,-1
 1335 0 l 1,0,-1
EndSplineSet
Validated: 1
Ligature2: "sous-table 'liga' Ligatures standard dans Latin lookup 37" f f igrave
EndChar

StartChar: f_f_imacron.liga
Encoding: 2137 -1 81
Width: 1736
GlyphClass: 3
Flags: W
LayerCount: 2
Fore
SplineSet
169 0 m 1,0,-1
 169 806 l 1,1,-1
 97 820 l 2,2,3
 68 825 68 825 50 840 c 128,-1,4
 32 855 32 855 32 883 c 2,5,-1
 32 986 l 1,6,-1
 169 986 l 1,7,-1
 169 1037 l 2,8,9
 169 1122 169 1122 194 1190.5 c 128,-1,10
 219 1259 219 1259 266 1307 c 128,-1,11
 313 1355 313 1355 380.5 1380.5 c 128,-1,12
 448 1406 448 1406 533 1406 c 0,13,14
 566 1406 566 1406 595 1401 c 128,-1,15
 624 1396 624 1396 655 1388 c 1,16,-1
 649 1261 l 2,17,18
 648 1247 648 1247 641.5 1238 c 128,-1,19
 635 1229 635 1229 625 1224 c 128,-1,20
 615 1219 615 1219 602 1217 c 128,-1,21
 589 1215 589 1215 576 1215 c 0,22,23
 538 1215 538 1215 508 1206 c 128,-1,24
 478 1197 478 1197 457.5 1175.5 c 128,-1,25
 437 1154 437 1154 426 1118.5 c 128,-1,26
 415 1083 415 1083 415 1029 c 2,27,-1
 415 986 l 1,28,-1
 766 986 l 1,29,-1
 766 1097 l 2,30,31
 766 1175 766 1175 785.5 1237 c 128,-1,32
 805 1299 805 1299 842.5 1342 c 128,-1,33
 880 1385 880 1385 934.5 1407.5 c 128,-1,34
 989 1430 989 1430 1059 1430 c 0,35,36
 1085 1430 1085 1430 1106.5 1428 c 128,-1,37
 1128 1426 1128 1426 1149 1418 c 1,38,-1
 1149 1281 l 2,39,40
 1149 1261 1149 1261 1133.5 1254.5 c 128,-1,41
 1118 1248 1118 1248 1098 1248 c 0,42,43
 1049 1248 1049 1248 1030.5 1213 c 128,-1,44
 1012 1178 1012 1178 1012 1097 c 2,45,-1
 1012 986 l 1,46,-1
 1601 986 l 1,47,-1
 1601 0 l 1,48,-1
 1347 0 l 1,49,-1
 1347 806 l 1,50,-1
 1020 806 l 1,51,-1
 1020 0 l 1,52,-1
 766 0 l 1,53,-1
 766 806 l 1,54,-1
 423 806 l 1,55,-1
 423 0 l 1,56,-1
 169 0 l 1,0,-1
1188 1329 m 1,57,-1
 1771 1329 l 1,58,-1
 1771 1168 l 1,59,-1
 1188 1168 l 1,60,-1
 1188 1329 l 1,57,-1
EndSplineSet
Validated: 1
Ligature2: "sous-table 'liga' Ligatures standard dans Latin lookup 37" f f imacron
EndChar

StartChar: f_f_dotlessi.liga
Encoding: 2140 -1 84
Width: 1718
GlyphClass: 3
Flags: W
LayerCount: 2
Fore
SplineSet
1335 0 m 1,0,-1
 1335 806 l 1,1,-1
 1008 806 l 1,2,-1
 1008 0 l 1,3,-1
 754 0 l 1,4,-1
 754 806 l 1,5,-1
 411 806 l 1,6,-1
 411 0 l 1,7,-1
 157 0 l 1,8,-1
 157 806 l 1,9,-1
 85 820 l 2,10,11
 56 825 56 825 38 840 c 128,-1,12
 20 855 20 855 20 883 c 2,13,-1
 20 986 l 1,14,-1
 157 986 l 1,15,-1
 157 1037 l 2,16,17
 157 1122 157 1122 182 1190.5 c 128,-1,18
 207 1259 207 1259 254 1307 c 128,-1,19
 301 1355 301 1355 368.5 1380.5 c 128,-1,20
 436 1406 436 1406 521 1406 c 0,21,22
 554 1406 554 1406 583 1401 c 128,-1,23
 612 1396 612 1396 643 1388 c 1,24,-1
 637 1261 l 2,25,26
 636 1247 636 1247 629.5 1238 c 128,-1,27
 623 1229 623 1229 613 1224 c 128,-1,28
 603 1219 603 1219 590 1217 c 128,-1,29
 577 1215 577 1215 564 1215 c 0,30,31
 526 1215 526 1215 496 1206 c 128,-1,32
 466 1197 466 1197 445.5 1175.5 c 128,-1,33
 425 1154 425 1154 414 1118.5 c 128,-1,34
 403 1083 403 1083 403 1029 c 2,35,-1
 403 986 l 1,36,-1
 754 986 l 1,37,-1
 754 1097 l 2,38,39
 754 1175 754 1175 773.5 1237 c 128,-1,40
 793 1299 793 1299 830.5 1342 c 128,-1,41
 868 1385 868 1385 922.5 1407.5 c 128,-1,42
 977 1430 977 1430 1047 1430 c 0,43,44
 1073 1430 1073 1430 1094.5 1428 c 128,-1,45
 1116 1426 1116 1426 1137 1418 c 1,46,-1
 1137 1281 l 2,47,48
 1137 1261 1137 1261 1121.5 1254.5 c 128,-1,49
 1106 1248 1106 1248 1086 1248 c 0,50,51
 1037 1248 1037 1248 1018.5 1213 c 128,-1,52
 1000 1178 1000 1178 1000 1097 c 2,53,-1
 1000 986 l 1,54,-1
 1589 986 l 1,55,-1
 1589 0 l 1,56,-1
 1335 0 l 1,0,-1
EndSplineSet
Validated: 1
Ligature2: "sous-table 'liga' Ligatures standard dans Latin lookup 37" f f dotlessi
EndChar

StartChar: f_k.liga
Encoding: 2143 -1 87
Width: 1613
GlyphClass: 3
Flags: W
LayerCount: 2
Fore
SplineSet
148 0 m 1,0,-1
 148 807 l 1,1,-1
 83 820 l 2,2,3
 54 825 54 825 36.5 840 c 128,-1,4
 19 855 19 855 19 883 c 2,5,-1
 19 986 l 1,6,-1
 148 986 l 1,7,-1
 148 1048 l 2,8,9
 148 1137 148 1137 174 1212.5 c 128,-1,10
 200 1288 200 1288 256 1343 c 128,-1,11
 312 1398 312 1398 400.5 1429 c 128,-1,12
 489 1460 489 1460 615 1460 c 0,13,14
 659 1460 659 1460 697.5 1456.5 c 128,-1,15
 736 1453 736 1453 776 1449 c 128,-1,16
 816 1445 816 1445 860.5 1441.5 c 128,-1,17
 905 1438 905 1438 961 1437 c 2,18,-1
 987 1437 l 1,19,-1
 987 619 l 1,20,-1
 1026 619 l 2,21,22
 1050 619 1050 619 1062.5 626 c 128,-1,23
 1075 633 1075 633 1088 652 c 2,24,-1
 1270 950 l 2,25,26
 1285 970 1285 970 1304.5 981.5 c 128,-1,27
 1324 993 1324 993 1353 993 c 2,28,-1
 1585 993 l 1,29,-1
 1345 628 l 2,30,31
 1328 606 1328 606 1309.5 589 c 128,-1,32
 1291 572 1291 572 1269 558 c 1,33,34
 1289 543 1289 543 1304.5 523.5 c 128,-1,35
 1320 504 1320 504 1335 481 c 2,36,-1
 1596 0 l 1,37,-1
 1368 0 l 2,38,39
 1310 0 1310 0 1284 44 c 2,40,-1
 1102 414 l 2,41,42
 1090 437 1090 437 1076.5 444 c 128,-1,43
 1063 451 1063 451 1038 451 c 2,44,-1
 987 451 l 1,45,-1
 987 0 l 1,46,-1
 733 0 l 1,47,-1
 733 1268 l 1,48,49
 701 1281 701 1281 667 1289 c 128,-1,50
 633 1297 633 1297 598 1297 c 0,51,52
 549 1297 549 1297 511 1278.5 c 128,-1,53
 473 1260 473 1260 447 1226.5 c 128,-1,54
 421 1193 421 1193 407.5 1147.5 c 128,-1,55
 394 1102 394 1102 394 1048 c 2,56,-1
 394 986 l 1,57,-1
 610 986 l 1,58,-1
 610 806 l 1,59,-1
 402 806 l 1,60,-1
 402 0 l 1,61,-1
 148 0 l 1,0,-1
EndSplineSet
Validated: 1
Ligature2: "sous-table 'liga' Ligatures standard dans Latin lookup 37" f k
EndChar

StartChar: f_f_k.liga
Encoding: 2144 -1 88
Width: 2197
GlyphClass: 3
Flags: W
LayerCount: 2
Fore
SplineSet
149 0 m 1,0,-1
 149 807 l 1,1,-1
 83 820 l 2,2,3
 54 825 54 825 36.5 840 c 128,-1,4
 19 855 19 855 19 883 c 2,5,-1
 19 986 l 1,6,-1
 149 986 l 1,7,-1
 149 1037 l 2,8,9
 149 1122 149 1122 173 1190.5 c 128,-1,10
 197 1259 197 1259 243 1307 c 128,-1,11
 289 1355 289 1355 355 1380.5 c 128,-1,12
 421 1406 421 1406 504 1406 c 0,13,14
 536 1406 536 1406 564 1401 c 128,-1,15
 592 1396 592 1396 622 1388 c 1,16,-1
 616 1261 l 2,17,18
 614 1232 614 1232 592.5 1223.5 c 128,-1,19
 571 1215 571 1215 547 1215 c 0,20,21
 511 1215 511 1215 482.5 1206 c 128,-1,22
 454 1197 454 1197 434.5 1175.5 c 128,-1,23
 415 1154 415 1154 405 1118.5 c 128,-1,24
 395 1083 395 1083 395 1029 c 2,25,-1
 395 986 l 1,26,-1
 725 986 l 1,27,-1
 725 1048 l 2,28,29
 725 1137 725 1137 751 1212.5 c 128,-1,30
 777 1288 777 1288 833.5 1343 c 128,-1,31
 890 1398 890 1398 979 1429 c 128,-1,32
 1068 1460 1068 1460 1194 1460 c 0,33,34
 1240 1460 1240 1460 1281 1456.5 c 128,-1,35
 1322 1453 1322 1453 1364.5 1448.5 c 128,-1,36
 1407 1444 1407 1444 1455.5 1440.5 c 128,-1,37
 1504 1437 1504 1437 1567 1437 c 2,38,-1
 1569 1437 l 1,39,-1
 1569 619 l 1,40,-1
 1608 619 l 2,41,42
 1632 619 1632 619 1644.5 626 c 128,-1,43
 1657 633 1657 633 1670 652 c 2,44,-1
 1852 950 l 2,45,46
 1867 970 1867 970 1886.5 981.5 c 128,-1,47
 1906 993 1906 993 1935 993 c 2,48,-1
 2167 993 l 1,49,-1
 1927 628 l 2,50,51
 1910 606 1910 606 1891.5 589 c 128,-1,52
 1873 572 1873 572 1851 558 c 1,53,54
 1871 543 1871 543 1886.5 523.5 c 128,-1,55
 1902 504 1902 504 1917 481 c 2,56,-1
 2178 0 l 1,57,-1
 1950 0 l 2,58,59
 1892 0 1892 0 1866 44 c 2,60,-1
 1684 414 l 2,61,62
 1672 437 1672 437 1658.5 444 c 128,-1,63
 1645 451 1645 451 1620 451 c 2,64,-1
 1569 451 l 1,65,-1
 1569 0 l 1,66,-1
 1315 0 l 1,67,-1
 1315 1268 l 1,68,69
 1283 1281 1283 1281 1248 1289 c 128,-1,70
 1213 1297 1213 1297 1178 1297 c 0,71,72
 1128 1297 1128 1297 1089.5 1278.5 c 128,-1,73
 1051 1260 1051 1260 1024.5 1226.5 c 128,-1,74
 998 1193 998 1193 984.5 1147.5 c 128,-1,75
 971 1102 971 1102 971 1048 c 2,76,-1
 971 986 l 1,77,-1
 1189 986 l 1,78,-1
 1189 806 l 1,79,-1
 979 806 l 1,80,-1
 979 0 l 1,81,-1
 725 0 l 1,82,-1
 725 806 l 1,83,-1
 403 806 l 1,84,-1
 403 0 l 1,85,-1
 149 0 l 1,0,-1
EndSplineSet
Validated: 1
Ligature2: "sous-table 'liga' Ligatures standard dans Latin lookup 37" f f k
EndChar

StartChar: uniFB02
Encoding: 2108 64258 89
Width: 1135
GlyphClass: 3
Flags: W
LayerCount: 2
Fore
SplineSet
155 0 m 1,0,-1
 155 806 l 1,1,-1
 85 820 l 2,2,3
 56 825 56 825 38 840 c 128,-1,4
 20 855 20 855 20 883 c 2,5,-1
 20 986 l 1,6,-1
 155 986 l 1,7,-1
 155 1026 l 2,8,9
 155 1104 155 1104 178 1177 c 128,-1,10
 201 1250 201 1250 249.5 1305.5 c 128,-1,11
 298 1361 298 1361 372.5 1394.5 c 128,-1,12
 447 1428 447 1428 549 1428 c 0,13,14
 628 1428 628 1428 699.5 1422.5 c 128,-1,15
 771 1417 771 1417 842 1416 c 2,16,-1
 1007 1416 l 1,17,-1
 1007 0 l 1,18,-1
 755 0 l 1,19,-1
 755 1241 l 1,20,21
 707 1243 707 1243 663.5 1245.5 c 128,-1,22
 620 1248 620 1248 591 1248 c 0,23,24
 497 1248 497 1248 449 1191 c 128,-1,25
 401 1134 401 1134 401 1026 c 2,26,-1
 401 986 l 1,27,-1
 610 986 l 1,28,-1
 610 806 l 1,29,-1
 409 806 l 1,30,-1
 409 0 l 1,31,-1
 155 0 l 1,0,-1
EndSplineSet
Validated: 1
Ligature2: "sous-table 'liga' Ligatures standard dans Latin lookup 37" f l
EndChar

StartChar: uniFB04
Encoding: 2110 64260 90
Width: 1718
GlyphClass: 3
Flags: W
LayerCount: 2
Fore
SplineSet
153 0 m 1,0,-1
 153 806 l 1,1,-1
 84 820 l 2,2,3
 55 825 55 825 37.5 840 c 128,-1,4
 20 855 20 855 20 883 c 2,5,-1
 20 986 l 1,6,-1
 153 986 l 1,7,-1
 153 1037 l 2,8,9
 153 1122 153 1122 178 1190.5 c 128,-1,10
 203 1259 203 1259 249.5 1307 c 128,-1,11
 296 1355 296 1355 363 1380.5 c 128,-1,12
 430 1406 430 1406 514 1406 c 0,13,14
 547 1406 547 1406 575.5 1401 c 128,-1,15
 604 1396 604 1396 635 1388 c 1,16,-1
 629 1261 l 2,17,18
 628 1247 628 1247 621.5 1238 c 128,-1,19
 615 1229 615 1229 605 1224 c 128,-1,20
 595 1219 595 1219 582.5 1217 c 128,-1,21
 570 1215 570 1215 557 1215 c 0,22,23
 519 1215 519 1215 490 1206 c 128,-1,24
 461 1197 461 1197 441 1175.5 c 128,-1,25
 421 1154 421 1154 410.5 1118.5 c 128,-1,26
 400 1083 400 1083 400 1029 c 2,27,-1
 400 986 l 1,28,-1
 743 986 l 1,29,-1
 743 1026 l 2,30,31
 743 1104 743 1104 766 1177 c 128,-1,32
 789 1250 789 1250 837 1305.5 c 128,-1,33
 885 1361 885 1361 959 1394.5 c 128,-1,34
 1033 1428 1033 1428 1135 1428 c 0,35,36
 1221 1428 1221 1428 1297 1422 c 128,-1,37
 1373 1416 1373 1416 1449 1416 c 2,38,-1
 1591 1416 l 1,39,-1
 1591 0 l 1,40,-1
 1339 0 l 1,41,-1
 1339 1242 l 1,42,43
 1292 1244 1292 1244 1249 1246 c 128,-1,44
 1206 1248 1206 1248 1177 1248 c 0,45,46
 1084 1248 1084 1248 1036.5 1191 c 128,-1,47
 989 1134 989 1134 989 1026 c 2,48,-1
 989 986 l 1,49,-1
 1216 986 l 1,50,-1
 1216 806 l 1,51,-1
 997 806 l 1,52,-1
 997 0 l 1,53,-1
 743 0 l 1,54,-1
 743 806 l 1,55,-1
 407 806 l 1,56,-1
 407 0 l 1,57,-1
 153 0 l 1,0,-1
EndSplineSet
Validated: 1
Ligature2: "sous-table 'liga' Ligatures standard dans Latin lookup 37" f f l
EndChar

StartChar: f_t.liga
Encoding: 2145 -1 91
Width: 1302
GlyphClass: 3
Flags: W
LayerCount: 2
Fore
SplineSet
1012 806 m 1,0,-1
 1012 281 l 2,1,2
 1012 237 1012 237 1030.5 212.5 c 128,-1,3
 1049 188 1049 188 1081 188 c 0,4,5
 1099 188 1099 188 1111 192.5 c 128,-1,6
 1123 197 1123 197 1132 203 c 128,-1,7
 1141 209 1141 209 1148.5 213.5 c 128,-1,8
 1156 218 1156 218 1164 218 c 0,9,10
 1175 218 1175 218 1182 212.5 c 128,-1,11
 1189 207 1189 207 1197 195 c 2,12,-1
 1274 72 l 1,13,14
 1222 29 1222 29 1156.5 7 c 128,-1,15
 1091 -15 1091 -15 1021 -15 c 0,16,17
 894 -15 894 -15 826 59.5 c 128,-1,18
 758 134 758 134 758 264 c 2,19,-1
 758 806 l 1,20,-1
 408 806 l 1,21,-1
 408 0 l 1,22,-1
 154 0 l 1,23,-1
 154 806 l 1,24,-1
 84 820 l 2,25,26
 55 825 55 825 37.5 840 c 128,-1,27
 20 855 20 855 20 883 c 2,28,-1
 20 986 l 1,29,-1
 154 986 l 1,30,-1
 154 1055 l 2,31,32
 154 1140 154 1140 179 1208 c 128,-1,33
 204 1276 204 1276 250.5 1324 c 128,-1,34
 297 1372 297 1372 364 1397.5 c 128,-1,35
 431 1423 431 1423 515 1423 c 0,36,37
 548 1423 548 1423 577 1418.5 c 128,-1,38
 606 1414 606 1414 636 1405 c 1,39,-1
 630 1278 l 2,40,41
 629 1264 629 1264 622.5 1255 c 128,-1,42
 616 1246 616 1246 606 1241 c 128,-1,43
 596 1236 596 1236 583.5 1234.5 c 128,-1,44
 571 1233 571 1233 558 1233 c 0,45,46
 520 1233 520 1233 491 1224 c 128,-1,47
 462 1215 462 1215 441.5 1193.5 c 128,-1,48
 421 1172 421 1172 410.5 1136 c 128,-1,49
 400 1100 400 1100 400 1047 c 2,50,-1
 400 986 l 1,51,-1
 770 986 l 1,52,-1
 824 1251 l 2,53,54
 833 1292 833 1292 880 1292 c 2,55,-1
 1012 1292 l 1,56,-1
 1012 986 l 1,57,-1
 1250 986 l 1,58,-1
 1250 806 l 1,59,-1
 1012 806 l 1,0,-1
EndSplineSet
Validated: 1
Ligature2: "sous-table 'liga' Ligatures standard dans Latin lookup 37" f t
EndChar

StartChar: f_f_t.liga
Encoding: 2146 -1 92
Width: 1886
GlyphClass: 3
Flags: W
LayerCount: 2
Fore
SplineSet
153 0 m 1,0,-1
 153 806 l 1,1,-1
 84 820 l 2,2,3
 55 825 55 825 37.5 840 c 128,-1,4
 20 855 20 855 20 883 c 2,5,-1
 20 986 l 1,6,-1
 153 986 l 1,7,-1
 153 1037 l 2,8,9
 153 1122 153 1122 178 1190.5 c 128,-1,10
 203 1259 203 1259 249.5 1307 c 128,-1,11
 296 1355 296 1355 363 1380.5 c 128,-1,12
 430 1406 430 1406 514 1406 c 0,13,14
 546 1406 546 1406 575 1401 c 128,-1,15
 604 1396 604 1396 634 1388 c 1,16,-1
 628 1261 l 2,17,18
 626 1232 626 1232 604.5 1223.5 c 128,-1,19
 583 1215 583 1215 557 1215 c 0,20,21
 519 1215 519 1215 490 1206 c 128,-1,22
 461 1197 461 1197 440.5 1175.5 c 128,-1,23
 420 1154 420 1154 409.5 1118.5 c 128,-1,24
 399 1083 399 1083 399 1029 c 2,25,-1
 399 986 l 1,26,-1
 742 986 l 1,27,-1
 742 1055 l 2,28,29
 742 1140 742 1140 766.5 1208 c 128,-1,30
 791 1276 791 1276 837.5 1324 c 128,-1,31
 884 1372 884 1372 951 1397.5 c 128,-1,32
 1018 1423 1018 1423 1102 1423 c 0,33,34
 1134 1423 1134 1423 1163 1418.5 c 128,-1,35
 1192 1414 1192 1414 1222 1405 c 1,36,-1
 1218 1278 l 2,37,38
 1217 1264 1217 1264 1210.5 1255 c 128,-1,39
 1204 1246 1204 1246 1194 1241 c 128,-1,40
 1184 1236 1184 1236 1171 1234.5 c 128,-1,41
 1158 1233 1158 1233 1145 1233 c 0,42,43
 1107 1233 1107 1233 1078 1224 c 128,-1,44
 1049 1215 1049 1215 1029 1193.5 c 128,-1,45
 1009 1172 1009 1172 998.5 1136 c 128,-1,46
 988 1100 988 1100 988 1047 c 2,47,-1
 988 986 l 1,48,-1
 1356 986 l 1,49,-1
 1409 1251 l 2,50,51
 1420 1292 1420 1292 1465 1292 c 2,52,-1
 1598 1292 l 1,53,-1
 1598 986 l 1,54,-1
 1834 986 l 1,55,-1
 1834 806 l 1,56,-1
 1598 806 l 1,57,-1
 1598 281 l 2,58,59
 1598 237 1598 237 1616 212.5 c 128,-1,60
 1634 188 1634 188 1666 188 c 0,61,62
 1684 188 1684 188 1695.5 192.5 c 128,-1,63
 1707 197 1707 197 1716 203 c 128,-1,64
 1725 209 1725 209 1732.5 213.5 c 128,-1,65
 1740 218 1740 218 1748 218 c 0,66,67
 1768 218 1768 218 1782 195 c 2,68,-1
 1858 72 l 1,69,70
 1806 29 1806 29 1741 7 c 128,-1,71
 1676 -15 1676 -15 1605 -15 c 0,72,73
 1479 -15 1479 -15 1411.5 59.5 c 128,-1,74
 1344 134 1344 134 1344 264 c 2,75,-1
 1344 806 l 1,76,-1
 996 806 l 1,77,-1
 996 0 l 1,78,-1
 742 0 l 1,79,-1
 742 806 l 1,80,-1
 407 806 l 1,81,-1
 407 0 l 1,82,-1
 153 0 l 1,0,-1
EndSplineSet
Validated: 1
Ligature2: "sous-table 'liga' Ligatures standard dans Latin lookup 37" f f t
EndChar

StartChar: g
Encoding: 73 103 93
Width: 1099
GlyphClass: 2
Flags: W
LayerCount: 2
Fore
SplineSet
976 993 m 1,0,-1
 976 78 l 2,1,2
 976 -14 976 -14 942 -91 c 128,-1,3
 908 -168 908 -168 844 -224 c 128,-1,4
 780 -280 780 -280 688 -311.5 c 128,-1,5
 596 -343 596 -343 480 -343 c 0,6,7
 415 -343 415 -343 359.5 -333 c 128,-1,8
 304 -323 304 -323 258.5 -306 c 128,-1,9
 213 -289 213 -289 176 -266 c 128,-1,10
 139 -243 139 -243 111 -217 c 1,11,-1
 170 -121 l 2,12,13
 181 -104 181 -104 196 -94.5 c 128,-1,14
 211 -85 211 -85 235 -85 c 0,15,16
 258 -85 258 -85 278 -97 c 128,-1,17
 298 -109 298 -109 323.5 -124 c 128,-1,18
 349 -139 349 -139 384 -151 c 128,-1,19
 419 -163 419 -163 473 -163 c 0,20,21
 536 -163 536 -163 582.5 -145 c 128,-1,22
 629 -127 629 -127 660 -95.5 c 128,-1,23
 691 -64 691 -64 706.5 -23 c 128,-1,24
 722 18 722 18 722 65 c 2,25,-1
 722 131 l 1,26,27
 693 100 693 100 664 78 c 128,-1,28
 635 56 635 56 603.5 41.5 c 128,-1,29
 572 27 572 27 536 20 c 128,-1,30
 500 13 500 13 455 13 c 0,31,32
 364 13 364 13 291.5 47.5 c 128,-1,33
 219 82 219 82 168 146.5 c 128,-1,34
 117 211 117 211 90 303 c 128,-1,35
 63 395 63 395 63 511 c 0,36,37
 63 616 63 616 93 707 c 128,-1,38
 123 798 123 798 178 865.5 c 128,-1,39
 233 933 233 933 310.5 972 c 128,-1,40
 388 1011 388 1011 484 1011 c 0,41,42
 529 1011 529 1011 566.5 1003 c 128,-1,43
 604 995 604 995 635.5 980.5 c 128,-1,44
 667 966 667 966 693.5 945 c 128,-1,45
 720 924 720 924 744 898 c 1,46,-1
 757 948 l 2,47,48
 763 971 763 971 779.5 982 c 128,-1,49
 796 993 796 993 820 993 c 2,50,-1
 976 993 l 1,0,-1
524 213 m 0,51,52
 587 213 587 213 633 241 c 128,-1,53
 679 269 679 269 722 323 c 1,54,-1
 722 736 l 1,55,56
 684 781 684 781 639.5 800.5 c 128,-1,57
 595 820 595 820 544 820 c 0,58,59
 445 820 445 820 385 744 c 128,-1,60
 325 668 325 668 325 511 c 256,61,62
 325 354 325 354 377 283.5 c 128,-1,63
 429 213 429 213 524 213 c 0,51,52
EndSplineSet
Validated: 1
Substitution2: "sous-table 'ordn' Ordinaux dans Latin lookup 39" g.superior
Substitution2: "sous-table 'ss04' Style 4 lookups34" g.salt
Substitution2: "sous-table 'salt' Alternatives stylistiques lookups28" g.salt
Substitution2: "sous-table 'sups' Exposant lookups25" g.superior
EndChar

StartChar: g.salt
Encoding: 2147 -1 94
Width: 971
GlyphClass: 2
Flags: W
LayerCount: 2
Fore
SplineSet
461 1010 m 0,0,1
 521 1010 521 1010 574.5 997 c 128,-1,2
 628 984 628 984 673 960 c 1,3,-1
 949 960 l 1,4,-1
 949 865 l 2,5,6
 949 843 949 843 936.5 830 c 128,-1,7
 924 817 924 817 895 811 c 2,8,-1
 817 795 l 1,9,10
 835 745 835 745 835 689 c 0,11,12
 835 615 835 615 806.5 555.5 c 128,-1,13
 778 496 778 496 727.5 454 c 128,-1,14
 677 412 677 412 608.5 389.5 c 128,-1,15
 540 367 540 367 461 367 c 0,16,17
 437 367 437 367 414 369 c 128,-1,18
 391 371 391 371 368 375 c 1,19,20
 331 351 331 351 331 319 c 0,21,22
 331 290 331 290 357 277 c 128,-1,23
 383 264 383 264 425 258.5 c 128,-1,24
 467 253 467 253 521 251.5 c 128,-1,25
 575 250 575 250 631.5 245 c 128,-1,26
 688 240 688 240 742 228 c 128,-1,27
 796 216 796 216 838 189 c 128,-1,28
 880 162 880 162 906 117 c 128,-1,29
 932 72 932 72 932 1 c 0,30,31
 932 -65 932 -65 901 -127.5 c 128,-1,32
 870 -190 870 -190 811 -239 c 128,-1,33
 752 -288 752 -288 666 -317.5 c 128,-1,34
 580 -347 580 -347 470 -347 c 0,35,36
 362 -347 362 -347 282 -325 c 128,-1,37
 202 -303 202 -303 150 -267 c 128,-1,38
 98 -231 98 -231 72.5 -183.5 c 128,-1,39
 47 -136 47 -136 47 -85 c 0,40,41
 47 -18 47 -18 85 28.5 c 128,-1,42
 123 75 123 75 190 103 c 1,43,44
 155 123 155 123 133.5 158 c 128,-1,45
 112 193 112 193 112 247 c 0,46,47
 112 269 112 269 119.5 292.5 c 128,-1,48
 127 316 127 316 143 339.5 c 128,-1,49
 159 363 159 363 182 384 c 128,-1,50
 205 405 205 405 237 422 c 1,51,52
 165 463 165 463 123.5 530.5 c 128,-1,53
 82 598 82 598 82 689 c 0,54,55
 82 763 82 763 111 822.5 c 128,-1,56
 140 882 140 882 190.5 923.5 c 128,-1,57
 241 965 241 965 310.5 987.5 c 128,-1,58
 380 1010 380 1010 461 1010 c 0,0,1
698 -42 m 256,59,60
 698 -15 698 -15 683 2 c 128,-1,61
 668 19 668 19 642 28.5 c 128,-1,62
 616 38 616 38 581 42.5 c 128,-1,63
 546 47 546 47 506.5 49.5 c 128,-1,64
 467 52 467 52 424.5 54 c 128,-1,65
 382 56 382 56 341 61 c 1,66,67
 308 40 308 40 287.5 12 c 128,-1,68
 267 -16 267 -16 267 -53 c 0,69,70
 267 -78 267 -78 277.5 -99 c 128,-1,71
 288 -120 288 -120 312 -135 c 128,-1,72
 336 -150 336 -150 376 -158.5 c 128,-1,73
 416 -167 416 -167 475 -167 c 0,74,75
 537 -167 537 -167 579.5 -157.5 c 128,-1,76
 622 -148 622 -148 648.5 -131.5 c 128,-1,77
 675 -115 675 -115 686.5 -92 c 128,-1,78
 698 -69 698 -69 698 -42 c 256,59,60
461 530 m 0,79,80
 538 530 538 530 574.5 572 c 128,-1,81
 611 614 611 614 611 683 c 0,82,83
 611 753 611 753 574.5 793.5 c 128,-1,84
 538 834 538 834 461 834 c 0,85,86
 385 834 385 834 348.5 793.5 c 128,-1,87
 312 753 312 753 312 683 c 0,88,89
 312 615 312 615 348.5 572.5 c 128,-1,90
 385 530 385 530 461 530 c 0,79,80
EndSplineSet
Validated: 1
EndChar

StartChar: h
Encoding: 74 104 95
Width: 1099
GlyphClass: 2
Flags: W
LayerCount: 2
Fore
SplineSet
125 0 m 1,0,-1
 125 1437 l 1,1,-1
 379 1437 l 1,2,-1
 379 893 l 1,3,4
 436 945 436 945 502.5 977 c 128,-1,5
 569 1009 569 1009 661 1009 c 0,6,7
 742 1009 742 1009 804 981 c 128,-1,8
 866 953 866 953 908 903 c 128,-1,9
 950 853 950 853 971.5 783.5 c 128,-1,10
 993 714 993 714 993 632 c 2,11,-1
 993 0 l 1,12,-1
 739 0 l 1,13,-1
 739 632 l 2,14,15
 739 717 739 717 700 764 c 128,-1,16
 661 811 661 811 583 811 c 0,17,18
 525 811 525 811 474.5 786 c 128,-1,19
 424 761 424 761 379 716 c 1,20,-1
 379 0 l 1,21,-1
 125 0 l 1,0,-1
EndSplineSet
Validated: 1
Substitution2: "sous-table 'ordn' Ordinaux dans Latin lookup 39" h.superior
Substitution2: "sous-table 'sups' Exposant lookups25" h.superior
EndChar

StartChar: hbar
Encoding: 230 295 97
Width: 1121
GlyphClass: 2
Flags: W
LayerCount: 2
Fore
SplineSet
-1 1251 m 1,0,-1
 136 1251 l 1,1,-1
 136 1437 l 1,2,-1
 390 1437 l 1,3,-1
 390 1251 l 1,4,-1
 659 1251 l 1,5,-1
 659 1094 l 1,6,-1
 390 1094 l 1,7,-1
 390 860 l 1,8,9
 447 912 447 912 515.5 944.5 c 128,-1,10
 584 977 584 977 676 977 c 0,11,12
 757 977 757 977 820 949 c 128,-1,13
 883 921 883 921 925.5 871 c 128,-1,14
 968 821 968 821 990 751.5 c 128,-1,15
 1012 682 1012 682 1012 600 c 2,16,-1
 1012 0 l 1,17,-1
 758 0 l 1,18,-1
 758 600 l 2,19,20
 758 685 758 685 718 732.5 c 128,-1,21
 678 780 678 780 598 780 c 0,22,23
 539 780 539 780 487.5 754 c 128,-1,24
 436 728 436 728 390 683 c 1,25,-1
 390 0 l 1,26,-1
 136 0 l 1,27,-1
 136 1094 l 1,28,-1
 -1 1094 l 1,29,-1
 -1 1251 l 1,0,-1
EndSplineSet
Validated: 1
EndChar

StartChar: dotlessi
Encoding: 240 305 100
Width: 503
GlyphClass: 2
Flags: W
LayerCount: 2
Fore
SplineSet
379 993 m 1,0,-1
 379 0 l 1,1,-1
 125 0 l 1,2,-1
 125 993 l 1,3,-1
 379 993 l 1,0,-1
EndSplineSet
Validated: 1
EndChar

StartChar: ij.salt
Encoding: 2148 -1 101
Width: 1082
GlyphClass: 2
Flags: W
LayerCount: 2
Fore
SplineSet
366 993 m 1,0,-1
 366 362 l 2,1,2
 366 276 366 276 410 229 c 128,-1,3
 454 182 454 182 536 182 c 0,4,5
 565 182 565 182 586.5 186 c 128,-1,6
 608 190 608 190 626 199 c 128,-1,7
 644 208 644 208 659.5 223 c 128,-1,8
 675 238 675 238 691 260 c 1,9,-1
 691 993 l 1,10,-1
 945 993 l 1,11,-1
 945 30 l 2,12,13
 945 -51 945 -51 923 -119.5 c 128,-1,14
 901 -188 901 -188 853 -238.5 c 128,-1,15
 805 -289 805 -289 729 -317 c 128,-1,16
 653 -345 653 -345 546 -345 c 0,17,18
 511 -345 511 -345 475.5 -340.5 c 128,-1,19
 440 -336 440 -336 408 -326 c 1,20,-1
 425 -190 l 2,21,22
 427 -170 427 -170 441 -163.5 c 128,-1,23
 455 -157 455 -157 493 -157 c 0,24,25
 542 -157 542 -157 579 -147.5 c 128,-1,26
 616 -138 616 -138 641 -116.5 c 128,-1,27
 666 -95 666 -95 678.5 -59 c 128,-1,28
 691 -23 691 -23 691 30 c 2,29,-1
 691 80 l 1,30,31
 644 33 644 33 589.5 9.5 c 128,-1,32
 535 -14 535 -14 457 -14 c 0,33,34
 371 -14 371 -14 306.5 14 c 128,-1,35
 242 42 242 42 199 91.5 c 128,-1,36
 156 141 156 141 134 210 c 128,-1,37
 112 279 112 279 112 362 c 2,38,-1
 112 993 l 1,39,-1
 366 993 l 1,0,-1
408 1278 m 0,40,41
 408 1246 408 1246 395 1217.5 c 128,-1,42
 382 1189 382 1189 359.5 1167.5 c 128,-1,43
 337 1146 337 1146 307.5 1133.5 c 128,-1,44
 278 1121 278 1121 244 1121 c 0,45,46
 212 1121 212 1121 183 1133.5 c 128,-1,47
 154 1146 154 1146 132.5 1167.5 c 128,-1,48
 111 1189 111 1189 98.5 1217.5 c 128,-1,49
 86 1246 86 1246 86 1278 c 0,50,51
 86 1311 86 1311 98.5 1339.5 c 128,-1,52
 111 1368 111 1368 132.5 1390 c 128,-1,53
 154 1412 154 1412 183 1424.5 c 128,-1,54
 212 1437 212 1437 244 1437 c 0,55,56
 278 1437 278 1437 307.5 1424.5 c 128,-1,57
 337 1412 337 1412 359.5 1390 c 128,-1,58
 382 1368 382 1368 395 1339.5 c 128,-1,59
 408 1311 408 1311 408 1278 c 0,40,41
984 1278 m 0,60,61
 984 1246 984 1246 971 1217.5 c 128,-1,62
 958 1189 958 1189 936 1167.5 c 128,-1,63
 914 1146 914 1146 884.5 1133.5 c 128,-1,64
 855 1121 855 1121 821 1121 c 0,65,66
 789 1121 789 1121 760.5 1133.5 c 128,-1,67
 732 1146 732 1146 710 1167.5 c 128,-1,68
 688 1189 688 1189 675.5 1217.5 c 128,-1,69
 663 1246 663 1246 663 1278 c 0,70,71
 663 1311 663 1311 675.5 1339.5 c 128,-1,72
 688 1368 688 1368 710 1390 c 128,-1,73
 732 1412 732 1412 760.5 1424.5 c 128,-1,74
 789 1437 789 1437 821 1437 c 0,75,76
 855 1437 855 1437 884.5 1424.5 c 128,-1,77
 914 1412 914 1412 936 1390 c 128,-1,78
 958 1368 958 1368 971 1339.5 c 128,-1,79
 984 1311 984 1311 984 1278 c 0,60,61
EndSplineSet
Validated: 1
Ligature2: "sous-table 'dlig' Ligatures facultatives  dans Latin lookup 36" i j
EndChar

StartChar: uni0237
Encoding: 502 567 103
Width: 523
GlyphClass: 2
Flags: W
LayerCount: 2
Fore
SplineSet
391 993 m 1,0,-1
 391 -24 l 2,1,2
 391 -91 391 -91 374 -149.5 c 128,-1,3
 357 -208 357 -208 318 -251.5 c 128,-1,4
 279 -295 279 -295 216 -320.5 c 128,-1,5
 153 -346 153 -346 62 -346 c 0,6,7
 27 -346 27 -346 -3 -341.5 c 128,-1,8
 -33 -337 -33 -337 -65 -328 c 1,9,-1
 -56 -192 l 2,10,11
 -54 -172 -54 -172 -41 -165.5 c 128,-1,12
 -28 -159 -28 -159 8 -159 c 0,13,14
 45 -159 45 -159 70 -152.5 c 128,-1,15
 95 -146 95 -146 110 -130 c 128,-1,16
 125 -114 125 -114 131 -88.5 c 128,-1,17
 137 -63 137 -63 137 -24 c 2,18,-1
 137 993 l 1,19,-1
 391 993 l 1,0,-1
EndSplineSet
Validated: 1
EndChar

StartChar: k
Encoding: 77 107 104
Width: 983
GlyphClass: 2
Flags: W
LayerCount: 2
Fore
SplineSet
361 1437 m 1,0,-1
 361 619 l 1,1,-1
 400 619 l 2,2,3
 424 619 424 619 436.5 626 c 128,-1,4
 449 633 449 633 462 652 c 2,5,-1
 644 950 l 2,6,7
 659 970 659 970 678.5 981.5 c 128,-1,8
 698 993 698 993 727 993 c 2,9,-1
 959 993 l 1,10,-1
 719 628 l 2,11,12
 702 606 702 606 683.5 589 c 128,-1,13
 665 572 665 572 643 558 c 1,14,15
 663 543 663 543 678.5 523.5 c 128,-1,16
 694 504 694 504 709 481 c 2,17,-1
 970 0 l 1,18,-1
 742 0 l 2,19,20
 684 0 684 0 658 44 c 2,21,-1
 476 414 l 2,22,23
 464 437 464 437 450.5 444 c 128,-1,24
 437 451 437 451 412 451 c 2,25,-1
 361 451 l 1,26,-1
 361 0 l 1,27,-1
 107 0 l 1,28,-1
 107 1437 l 1,29,-1
 361 1437 l 1,0,-1
EndSplineSet
Validated: 1
Substitution2: "sous-table 'ordn' Ordinaux dans Latin lookup 39" k.superior
Substitution2: "sous-table 'sups' Exposant lookups25" k.superior
EndChar

StartChar: kgreenlandic
Encoding: 247 312 105
Width: 983
GlyphClass: 2
Flags: W
LayerCount: 2
Fore
SplineSet
360 993 m 1,0,-1
 360 619 l 1,1,-1
 399 619 l 2,2,3
 423 619 423 619 436 626 c 128,-1,4
 449 633 449 633 461 652 c 2,5,-1
 644 950 l 2,6,7
 659 970 659 970 678.5 981.5 c 128,-1,8
 698 993 698 993 727 993 c 2,9,-1
 959 993 l 1,10,-1
 718 628 l 2,11,12
 701 606 701 606 682.5 589 c 128,-1,13
 664 572 664 572 642 558 c 1,14,15
 662 543 662 543 677.5 523.5 c 128,-1,16
 693 504 693 504 708 481 c 2,17,-1
 970 0 l 1,18,-1
 742 0 l 2,19,20
 684 0 684 0 658 44 c 2,21,-1
 475 414 l 2,22,23
 463 437 463 437 450 444 c 128,-1,24
 437 451 437 451 411 451 c 2,25,-1
 360 451 l 1,26,-1
 360 0 l 1,27,-1
 106 0 l 1,28,-1
 106 993 l 1,29,-1
 360 993 l 1,0,-1
EndSplineSet
Validated: 1
EndChar

StartChar: lslash
Encoding: 257 322 106
Width: 540
GlyphClass: 2
Flags: W
LayerCount: 2
Fore
SplineSet
405 1437 m 1,0,-1
 405 944 l 1,1,-1
 526 1002 l 1,2,-1
 526 856 l 2,3,4
 526 816 526 816 495 801 c 2,5,-1
 405 756 l 1,6,-1
 405 0 l 1,7,-1
 151 0 l 1,8,-1
 151 647 l 1,9,-1
 38 593 l 1,10,-1
 38 743 l 2,11,12
 38 777 38 777 67 791 c 2,13,-1
 151 834 l 1,14,-1
 151 1437 l 1,15,-1
 405 1437 l 1,0,-1
EndSplineSet
Validated: 1
EndChar

StartChar: m
Encoding: 79 109 108
Width: 1666
GlyphClass: 2
Flags: W
LayerCount: 2
Fore
SplineSet
128 0 m 1,0,-1
 128 993 l 1,1,-1
 284 993 l 2,2,3
 308 993 308 993 324.5 982 c 128,-1,4
 341 971 341 971 346 948 c 2,5,-1
 363 878 l 1,6,7
 390 906 390 906 418.5 930 c 128,-1,8
 447 954 447 954 480 971.5 c 128,-1,9
 513 989 513 989 550.5 999 c 128,-1,10
 588 1009 588 1009 633 1009 c 0,11,12
 728 1009 728 1009 789.5 958.5 c 128,-1,13
 851 908 851 908 881 825 c 1,14,15
 905 874 905 874 940.5 909 c 128,-1,16
 976 944 976 944 1019 966 c 128,-1,17
 1062 988 1062 988 1109.5 998.5 c 128,-1,18
 1157 1009 1157 1009 1205 1009 c 0,19,20
 1289 1009 1289 1009 1354.5 983.5 c 128,-1,21
 1420 958 1420 958 1464.5 909.5 c 128,-1,22
 1509 861 1509 861 1532 791 c 128,-1,23
 1555 721 1555 721 1555 632 c 2,24,-1
 1555 0 l 1,25,-1
 1301 0 l 1,26,-1
 1301 632 l 2,27,28
 1301 811 1301 811 1141 811 c 0,29,30
 1105 811 1105 811 1074 799.5 c 128,-1,31
 1043 788 1043 788 1019.5 765.5 c 128,-1,32
 996 743 996 743 982.5 709.5 c 128,-1,33
 969 676 969 676 969 632 c 2,34,-1
 969 0 l 1,35,-1
 715 0 l 1,36,-1
 715 632 l 2,37,38
 715 728 715 728 675 769.5 c 128,-1,39
 635 811 635 811 559 811 c 0,40,41
 508 811 508 811 464 788 c 128,-1,42
 420 765 420 765 382 723 c 1,43,-1
 382 0 l 1,44,-1
 128 0 l 1,0,-1
EndSplineSet
Validated: 1
Substitution2: "sous-table 'ordn' Ordinaux dans Latin lookup 39" m.superior
Substitution2: "sous-table 'sups' Exposant lookups25" m.superior
EndChar

StartChar: n
Encoding: 80 110 109
Width: 1099
GlyphClass: 2
Flags: W
LayerCount: 2
Fore
SplineSet
124 0 m 1,0,-1
 124 993 l 1,1,-1
 280 993 l 2,2,3
 304 993 304 993 320.5 982 c 128,-1,4
 337 971 337 971 342 948 c 2,5,-1
 359 875 l 1,6,7
 389 905 389 905 421 929.5 c 128,-1,8
 453 954 453 954 490 971.5 c 128,-1,9
 527 989 527 989 568.5 999 c 128,-1,10
 610 1009 610 1009 660 1009 c 0,11,12
 741 1009 741 1009 803 981 c 128,-1,13
 865 953 865 953 907 903 c 128,-1,14
 949 853 949 853 970.5 783.5 c 128,-1,15
 992 714 992 714 992 632 c 2,16,-1
 992 0 l 1,17,-1
 738 0 l 1,18,-1
 738 632 l 2,19,20
 738 717 738 717 699 764 c 128,-1,21
 660 811 660 811 582 811 c 0,22,23
 524 811 524 811 473.5 786 c 128,-1,24
 423 761 423 761 378 716 c 1,25,-1
 378 0 l 1,26,-1
 124 0 l 1,0,-1
EndSplineSet
Validated: 1
Substitution2: "sous-table 'ordn' Ordinaux dans Latin lookup 39" uni207F
Substitution2: "sous-table 'sups' Exposant lookups25" uni207F
EndChar

StartChar: eng
Encoding: 266 331 110
Width: 1099
GlyphClass: 2
Flags: W
LayerCount: 2
Fore
SplineSet
124 0 m 1,0,-1
 124 993 l 1,1,-1
 280 993 l 2,2,3
 304 993 304 993 320.5 982 c 128,-1,4
 337 971 337 971 342 948 c 2,5,-1
 359 875 l 1,6,7
 389 905 389 905 421 929.5 c 128,-1,8
 453 954 453 954 490 971.5 c 128,-1,9
 527 989 527 989 568.5 999 c 128,-1,10
 610 1009 610 1009 660 1009 c 0,11,12
 741 1009 741 1009 803 981 c 128,-1,13
 865 953 865 953 907 903 c 128,-1,14
 949 853 949 853 970.5 783.5 c 128,-1,15
 992 714 992 714 992 632 c 2,16,-1
 992 43 l 2,17,18
 992 -42 992 -42 971 -113.5 c 128,-1,19
 950 -185 950 -185 905 -237 c 128,-1,20
 860 -289 860 -289 790.5 -318 c 128,-1,21
 721 -347 721 -347 624 -347 c 0,22,23
 598 -347 598 -347 575 -344.5 c 128,-1,24
 552 -342 552 -342 530 -337.5 c 128,-1,25
 508 -333 508 -333 486 -325.5 c 128,-1,26
 464 -318 464 -318 440 -307 c 1,27,-1
 468 -197 l 2,28,29
 476 -168 476 -168 491 -159 c 128,-1,30
 506 -150 506 -150 524 -150 c 0,31,32
 539 -150 539 -150 555 -155 c 128,-1,33
 571 -160 571 -160 600 -160 c 0,34,35
 738 -160 738 -160 738 13 c 2,36,-1
 738 632 l 2,37,38
 738 717 738 717 699 764 c 128,-1,39
 660 811 660 811 582 811 c 0,40,41
 524 811 524 811 473.5 786 c 128,-1,42
 423 761 423 761 378 716 c 1,43,-1
 378 0 l 1,44,-1
 124 0 l 1,0,-1
EndSplineSet
Validated: 1
EndChar

StartChar: o
Encoding: 81 111 111
Width: 1101
GlyphClass: 2
Flags: W
LayerCount: 2
Fore
SplineSet
552 1009 m 0,0,1
 661 1009 661 1009 751 973.5 c 128,-1,2
 841 938 841 938 905 871.5 c 128,-1,3
 969 805 969 805 1004 710.5 c 128,-1,4
 1039 616 1039 616 1039 499 c 0,5,6
 1039 380 1039 380 1004 285 c 128,-1,7
 969 190 969 190 905 123.5 c 128,-1,8
 841 57 841 57 751 21 c 128,-1,9
 661 -15 661 -15 552 -15 c 0,10,11
 442 -15 442 -15 351.5 21 c 128,-1,12
 261 57 261 57 196.5 123.5 c 128,-1,13
 132 190 132 190 97 285 c 128,-1,14
 62 380 62 380 62 499 c 0,15,16
 62 616 62 616 97 710.5 c 128,-1,17
 132 805 132 805 196.5 871.5 c 128,-1,18
 261 938 261 938 351.5 973.5 c 128,-1,19
 442 1009 442 1009 552 1009 c 0,0,1
552 179 m 0,20,21
 667 179 667 179 722 259.5 c 128,-1,22
 777 340 777 340 777 497 c 256,23,24
 777 654 777 654 722 734.5 c 128,-1,25
 667 815 667 815 552 815 c 0,26,27
 435 815 435 815 379.5 734.5 c 128,-1,28
 324 654 324 654 324 497 c 256,29,30
 324 340 324 340 379.5 259.5 c 128,-1,31
 435 179 435 179 552 179 c 0,20,21
EndSplineSet
Validated: 1
Substitution2: "sous-table 'ordn' Ordinaux dans Latin lookup 39" o.superior
Substitution2: "sous-table 'sups' Exposant lookups25" o.superior
EndChar

StartChar: oslash
Encoding: 183 248 112
Width: 1114
GlyphClass: 2
Flags: W
LayerCount: 2
Fore
SplineSet
922 864 m 1,0,1
 983 798 983 798 1016.5 706 c 128,-1,2
 1050 614 1050 614 1050 499 c 0,3,4
 1050 380 1050 380 1015 285 c 128,-1,5
 980 190 980 190 915.5 123.5 c 128,-1,6
 851 57 851 57 760.5 21 c 128,-1,7
 670 -15 670 -15 559 -15 c 0,8,9
 424 -15 424 -15 318 37 c 1,10,-1
 290 -2 l 2,11,12
 261 -42 261 -42 219 -58.5 c 128,-1,13
 177 -75 177 -75 137 -75 c 2,14,-1
 44 -75 l 1,15,-1
 194 130 l 1,16,17
 131 196 131 196 97.5 289 c 128,-1,18
 64 382 64 382 64 499 c 256,19,20
 64 616 64 616 99.5 710.5 c 128,-1,21
 135 805 135 805 200 871.5 c 128,-1,22
 265 938 265 938 356 973.5 c 128,-1,23
 447 1009 447 1009 559 1009 c 0,24,25
 627 1009 627 1009 686.5 995.5 c 128,-1,26
 746 982 746 982 798 956 c 1,27,-1
 848 1025 l 2,28,29
 861 1043 861 1043 872.5 1056 c 128,-1,30
 884 1069 884 1069 897 1076.5 c 128,-1,31
 910 1084 910 1084 925.5 1087.5 c 128,-1,32
 941 1091 941 1091 963 1091 c 2,33,-1
 1088 1091 l 1,34,-1
 922 864 l 1,0,1
310 497 m 0,35,36
 310 444 310 444 316.5 401 c 128,-1,37
 323 358 323 358 335 323 c 1,38,-1
 680 795 l 1,39,40
 630 823 630 823 559 823 c 0,41,42
 439 823 439 823 374.5 738.5 c 128,-1,43
 310 654 310 654 310 497 c 0,35,36
559 171 m 0,44,45
 676 171 676 171 740.5 255.5 c 128,-1,46
 805 340 805 340 805 497 c 0,47,48
 805 548 805 548 798.5 591 c 128,-1,49
 792 634 792 634 780 669 c 1,50,-1
 436 198 l 1,51,52
 487 171 487 171 559 171 c 0,44,45
EndSplineSet
Validated: 1
EndChar

StartChar: oe
Encoding: 274 339 113
Width: 1726
GlyphClass: 2
Flags: W
LayerCount: 2
Fore
SplineSet
1257 1009 m 0,0,1
 1344 1009 1344 1009 1418 976 c 128,-1,2
 1492 943 1492 943 1546 882 c 128,-1,3
 1600 821 1600 821 1630.5 734 c 128,-1,4
 1661 647 1661 647 1661 538 c 0,5,6
 1661 509 1661 509 1658.5 490 c 128,-1,7
 1656 471 1656 471 1650 460 c 128,-1,8
 1644 449 1644 449 1633 444.5 c 128,-1,9
 1622 440 1622 440 1605 440 c 2,10,-1
 1024 440 l 1,11,12
 1039 306 1039 306 1105 243.5 c 128,-1,13
 1171 181 1171 181 1275 181 c 0,14,15
 1329 181 1329 181 1367.5 194.5 c 128,-1,16
 1406 208 1406 208 1435.5 223.5 c 128,-1,17
 1465 239 1465 239 1489 252.5 c 128,-1,18
 1513 266 1513 266 1537 266 c 0,19,20
 1564 266 1564 266 1582 243 c 2,21,-1
 1656 149 l 1,22,23
 1615 101 1615 101 1565.5 69.5 c 128,-1,24
 1516 38 1516 38 1463 19.5 c 128,-1,25
 1410 1 1410 1 1356 -7 c 128,-1,26
 1302 -15 1302 -15 1251 -15 c 0,27,28
 1146 -15 1146 -15 1053 31 c 128,-1,29
 960 77 960 77 900 175 c 1,30,31
 841 83 841 83 746 34 c 128,-1,32
 651 -15 651 -15 526 -15 c 0,33,34
 426 -15 426 -15 342 21 c 128,-1,35
 258 57 258 57 196.5 123.5 c 128,-1,36
 135 190 135 190 100.5 285 c 128,-1,37
 66 380 66 380 66 499 c 0,38,39
 66 616 66 616 100.5 710.5 c 128,-1,40
 135 805 135 805 197.5 871.5 c 128,-1,41
 260 938 260 938 346 973.5 c 128,-1,42
 432 1009 432 1009 535 1009 c 0,43,44
 656 1009 656 1009 748 960.5 c 128,-1,45
 840 912 840 912 898 822 c 1,46,47
 953 908 953 908 1042.5 958.5 c 128,-1,48
 1132 1009 1132 1009 1257 1009 c 0,0,1
550 179 m 0,49,50
 663 179 663 179 717 259.5 c 128,-1,51
 771 340 771 340 771 497 c 256,52,53
 771 654 771 654 717 734.5 c 128,-1,54
 663 815 663 815 550 815 c 0,55,56
 435 815 435 815 381.5 734.5 c 128,-1,57
 328 654 328 654 328 497 c 256,58,59
 328 340 328 340 381.5 259.5 c 128,-1,60
 435 179 435 179 550 179 c 0,49,50
1246 828 m 0,61,62
 1146 828 1146 828 1091.5 766.5 c 128,-1,63
 1037 705 1037 705 1024 593 c 1,64,-1
 1435 593 l 1,65,66
 1435 638 1435 638 1424 680 c 128,-1,67
 1413 722 1413 722 1390 755 c 128,-1,68
 1367 788 1367 788 1331 808 c 128,-1,69
 1295 828 1295 828 1246 828 c 0,61,62
EndSplineSet
Validated: 1
EndChar

StartChar: p
Encoding: 82 112 114
Width: 1099
GlyphClass: 2
Flags: W
LayerCount: 2
Fore
SplineSet
123 -322 m 1,0,-1
 123 993 l 1,1,-1
 279 993 l 2,2,3
 303 993 303 993 319.5 982 c 128,-1,4
 336 971 336 971 341 948 c 2,5,-1
 362 861 l 1,6,7
 392 894 392 894 425 922 c 128,-1,8
 458 950 458 950 496.5 970 c 128,-1,9
 535 990 535 990 579.5 1001 c 128,-1,10
 624 1012 624 1012 676 1012 c 0,11,12
 755 1012 755 1012 821 978 c 128,-1,13
 887 944 887 944 935 879.5 c 128,-1,14
 983 815 983 815 1009.5 720 c 128,-1,15
 1036 625 1036 625 1036 504 c 0,16,17
 1036 393 1036 393 1006 298 c 128,-1,18
 976 203 976 203 921 133.5 c 128,-1,19
 866 64 866 64 788.5 24.5 c 128,-1,20
 711 -15 711 -15 615 -15 c 0,21,22
 534 -15 534 -15 478 9.5 c 128,-1,23
 422 34 422 34 377 76 c 1,24,-1
 377 -322 l 1,25,-1
 123 -322 l 1,0,-1
589 811 m 0,26,27
 518 811 518 811 469 782.5 c 128,-1,28
 420 754 420 754 377 700 c 1,29,-1
 377 260 l 1,30,31
 415 214 415 214 459.5 195.5 c 128,-1,32
 504 177 504 177 555 177 c 0,33,34
 604 177 604 177 644.5 196.5 c 128,-1,35
 685 216 685 216 714 256 c 128,-1,36
 743 296 743 296 758.5 357.5 c 128,-1,37
 774 419 774 419 774 504 c 0,38,39
 774 588 774 588 761 646.5 c 128,-1,40
 748 705 748 705 724 741.5 c 128,-1,41
 700 778 700 778 666 794.5 c 128,-1,42
 632 811 632 811 589 811 c 0,26,27
EndSplineSet
Validated: 1
Substitution2: "sous-table 'ordn' Ordinaux dans Latin lookup 39" p.superior
Substitution2: "sous-table 'sups' Exposant lookups25" p.superior
EndChar

StartChar: thorn
Encoding: 189 254 115
Width: 1099
GlyphClass: 2
Flags: W
LayerCount: 2
Fore
SplineSet
124 -322 m 1,0,-1
 124 1437 l 1,1,-1
 378 1437 l 1,2,-1
 378 876 l 1,3,4
 435 936 435 936 507.5 972.5 c 128,-1,5
 580 1009 580 1009 677 1009 c 0,6,7
 756 1009 756 1009 822 975.5 c 128,-1,8
 888 942 888 942 935.5 878 c 128,-1,9
 983 814 983 814 1009.5 719.5 c 128,-1,10
 1036 625 1036 625 1036 504 c 0,11,12
 1036 393 1036 393 1006 298 c 128,-1,13
 976 203 976 203 921 133.5 c 128,-1,14
 866 64 866 64 788.5 24.5 c 128,-1,15
 711 -15 711 -15 616 -15 c 0,16,17
 533 -15 533 -15 478 14.5 c 128,-1,18
 423 44 423 44 378 95 c 1,19,-1
 378 -322 l 1,20,-1
 124 -322 l 1,0,-1
589 811 m 0,21,22
 518 811 518 811 469.5 782.5 c 128,-1,23
 421 754 421 754 378 700 c 1,24,-1
 378 262 l 1,25,26
 416 215 416 215 460.5 196 c 128,-1,27
 505 177 505 177 556 177 c 0,28,29
 605 177 605 177 645.5 196.5 c 128,-1,30
 686 216 686 216 714.5 256 c 128,-1,31
 743 296 743 296 758.5 357.5 c 128,-1,32
 774 419 774 419 774 504 c 0,33,34
 774 588 774 588 761 646.5 c 128,-1,35
 748 705 748 705 724 741.5 c 128,-1,36
 700 778 700 778 666 794.5 c 128,-1,37
 632 811 632 811 589 811 c 0,21,22
EndSplineSet
Validated: 1
EndChar

StartChar: q
Encoding: 83 113 116
Width: 1099
GlyphClass: 2
Flags: W
LayerCount: 2
Fore
SplineSet
976 993 m 1,0,-1
 976 -322 l 1,1,-1
 722 -322 l 1,2,-1
 722 119 l 1,3,4
 664 58 664 58 592 21.5 c 128,-1,5
 520 -15 520 -15 423 -15 c 0,6,7
 344 -15 344 -15 278 19 c 128,-1,8
 212 53 212 53 164 118 c 128,-1,9
 116 183 116 183 89.5 277.5 c 128,-1,10
 63 372 63 372 63 494 c 0,11,12
 63 605 63 605 93 699.5 c 128,-1,13
 123 794 123 794 178 863.5 c 128,-1,14
 233 933 233 933 310.5 972.5 c 128,-1,15
 388 1012 388 1012 484 1012 c 0,16,17
 529 1012 529 1012 566.5 1004 c 128,-1,18
 604 996 604 996 635.5 981 c 128,-1,19
 667 966 667 966 693.5 945 c 128,-1,20
 720 924 720 924 744 898 c 1,21,-1
 757 948 l 2,22,23
 763 971 763 971 779.5 982 c 128,-1,24
 796 993 796 993 820 993 c 2,25,-1
 976 993 l 1,0,-1
511 186 m 0,26,27
 547 186 547 186 576 193 c 128,-1,28
 605 200 605 200 630.5 214 c 128,-1,29
 656 228 656 228 678 248.5 c 128,-1,30
 700 269 700 269 722 296 c 1,31,-1
 722 736 l 1,32,33
 684 781 684 781 639.5 800.5 c 128,-1,34
 595 820 595 820 544 820 c 0,35,36
 494 820 494 820 454 800.5 c 128,-1,37
 414 781 414 781 385 741 c 128,-1,38
 356 701 356 701 340.5 639.5 c 128,-1,39
 325 578 325 578 325 494 c 0,40,41
 325 409 325 409 338 350.5 c 128,-1,42
 351 292 351 292 375 255.5 c 128,-1,43
 399 219 399 219 433.5 202.5 c 128,-1,44
 468 186 468 186 511 186 c 0,26,27
EndSplineSet
Validated: 1
Substitution2: "sous-table 'ordn' Ordinaux dans Latin lookup 39" q.superior
Substitution2: "sous-table 'sups' Exposant lookups25" q.superior
EndChar

StartChar: r
Encoding: 84 114 117
Width: 728
GlyphClass: 2
Flags: W
LayerCount: 2
Fore
SplineSet
110 0 m 1,0,-1
 110 993 l 1,1,-1
 259 993 l 2,2,3
 298 993 298 993 313.5 979 c 128,-1,4
 329 965 329 965 334 930 c 2,5,-1
 347 829 l 1,6,7
 392 914 392 914 452 963 c 128,-1,8
 512 1012 512 1012 591 1012 c 0,9,10
 656 1012 656 1012 698 981 c 1,11,-1
 679 791 l 2,12,13
 677 773 677 773 667 765.5 c 128,-1,14
 657 758 657 758 640 758 c 0,15,16
 625 758 625 758 597 762.5 c 128,-1,17
 569 767 569 767 545 767 c 0,18,19
 510 767 510 767 482.5 757 c 128,-1,20
 455 747 455 747 433.5 727.5 c 128,-1,21
 412 708 412 708 395 680 c 128,-1,22
 378 652 378 652 364 616 c 1,23,-1
 364 0 l 1,24,-1
 110 0 l 1,0,-1
EndSplineSet
Validated: 1
Substitution2: "sous-table 'ordn' Ordinaux dans Latin lookup 39" r.superior
Substitution2: "sous-table 'sups' Exposant lookups25" r.superior
EndChar

StartChar: s
Encoding: 85 115 118
Width: 817
GlyphClass: 2
Flags: W
LayerCount: 2
Fore
SplineSet
700 793 m 2,0,1
 690 776 690 776 678.5 769.5 c 128,-1,2
 667 763 667 763 650 763 c 0,3,4
 632 763 632 763 612.5 772.5 c 128,-1,5
 593 782 593 782 569.5 793.5 c 128,-1,6
 546 805 546 805 516 814.5 c 128,-1,7
 486 824 486 824 447 824 c 0,8,9
 387 824 387 824 354 796.5 c 128,-1,10
 321 769 321 769 321 723 c 0,11,12
 321 692 321 692 340 671.5 c 128,-1,13
 359 651 359 651 390.5 635.5 c 128,-1,14
 422 620 422 620 461.5 607 c 128,-1,15
 501 594 501 594 543 579 c 128,-1,16
 585 564 585 564 624.5 543.5 c 128,-1,17
 664 523 664 523 695.5 493 c 128,-1,18
 727 463 727 463 746 420 c 128,-1,19
 765 377 765 377 765 317 c 0,20,21
 765 245 765 245 740 184 c 128,-1,22
 715 123 715 123 666.5 79 c 128,-1,23
 618 35 618 35 546.5 10 c 128,-1,24
 475 -15 475 -15 381 -15 c 0,25,26
 333 -15 333 -15 286 -6 c 128,-1,27
 239 3 239 3 196 19.5 c 128,-1,28
 153 36 153 36 115.5 58 c 128,-1,29
 78 80 78 80 51 106 c 1,30,-1
 110 202 l 2,31,32
 121 219 121 219 136 229 c 128,-1,33
 151 239 151 239 175 239 c 0,34,35
 197 239 197 239 216.5 227 c 128,-1,36
 236 215 236 215 259 200.5 c 128,-1,37
 282 186 282 186 314 174 c 128,-1,38
 346 162 346 162 394 162 c 0,39,40
 430 162 430 162 455.5 171 c 128,-1,41
 481 180 481 180 496.5 195.5 c 128,-1,42
 512 211 512 211 519.5 231 c 128,-1,43
 527 251 527 251 527 272 c 0,44,45
 527 316 527 316 494 340.5 c 128,-1,46
 461 365 461 365 411 383 c 128,-1,47
 361 401 361 401 303.5 420 c 128,-1,48
 246 439 246 439 196 472 c 128,-1,49
 146 505 146 505 113 559 c 128,-1,50
 80 613 80 613 80 702 c 0,51,52
 80 764 80 764 103 819.5 c 128,-1,53
 126 875 126 875 171.5 917 c 128,-1,54
 217 959 217 959 284.5 984 c 128,-1,55
 352 1009 352 1009 442 1009 c 0,56,57
 491 1009 491 1009 537 1000 c 128,-1,58
 583 991 583 991 623.5 974.5 c 128,-1,59
 664 958 664 958 697.5 935 c 128,-1,60
 731 912 731 912 757 885 c 1,61,-1
 700 793 l 2,0,1
EndSplineSet
Validated: 1
Substitution2: "sous-table 'ordn' Ordinaux dans Latin lookup 39" s.superior
Substitution2: "sous-table 'sups' Exposant lookups25" s.superior
EndChar

StartChar: scedilla
Encoding: 286 351 119
Width: 817
GlyphClass: 2
Flags: W
LayerCount: 2
Fore
SplineSet
287 -222 m 0,0,1
 301 -222 301 -222 316.5 -228 c 128,-1,2
 332 -234 332 -234 359 -234 c 0,3,4
 389 -234 389 -234 403.5 -223 c 128,-1,5
 418 -212 418 -212 418 -197 c 0,6,7
 418 -171 418 -171 385.5 -159.5 c 128,-1,8
 353 -148 353 -148 281 -138 c 1,9,-1
 323 -11 l 1,10,11
 242 -2 242 -2 170 29.5 c 128,-1,12
 98 61 98 61 51 106 c 1,13,-1
 110 202 l 2,14,15
 121 219 121 219 136 229 c 128,-1,16
 151 239 151 239 175 239 c 0,17,18
 197 239 197 239 216.5 227 c 128,-1,19
 236 215 236 215 259 200.5 c 128,-1,20
 282 186 282 186 314 174 c 128,-1,21
 346 162 346 162 394 162 c 0,22,23
 430 162 430 162 455.5 171 c 128,-1,24
 481 180 481 180 496.5 195.5 c 128,-1,25
 512 211 512 211 519.5 231 c 128,-1,26
 527 251 527 251 527 272 c 0,27,28
 527 316 527 316 494 340.5 c 128,-1,29
 461 365 461 365 411 383 c 128,-1,30
 361 401 361 401 303.5 420 c 128,-1,31
 246 439 246 439 196 472 c 128,-1,32
 146 505 146 505 113 559 c 128,-1,33
 80 613 80 613 80 702 c 0,34,35
 80 764 80 764 103 819.5 c 128,-1,36
 126 875 126 875 171.5 917 c 128,-1,37
 217 959 217 959 284.5 984 c 128,-1,38
 352 1009 352 1009 442 1009 c 0,39,40
 491 1009 491 1009 537 1000 c 128,-1,41
 583 991 583 991 623.5 974.5 c 128,-1,42
 664 958 664 958 697.5 935 c 128,-1,43
 731 912 731 912 757 885 c 1,44,-1
 700 793 l 2,45,46
 690 776 690 776 678.5 769.5 c 128,-1,47
 667 763 667 763 650 763 c 0,48,49
 632 763 632 763 612.5 772.5 c 128,-1,50
 593 782 593 782 569.5 793.5 c 128,-1,51
 546 805 546 805 516 814.5 c 128,-1,52
 486 824 486 824 447 824 c 0,53,54
 387 824 387 824 354 796.5 c 128,-1,55
 321 769 321 769 321 723 c 0,56,57
 321 692 321 692 340 671.5 c 128,-1,58
 359 651 359 651 390.5 635.5 c 128,-1,59
 422 620 422 620 461.5 607 c 128,-1,60
 501 594 501 594 543 579 c 128,-1,61
 585 564 585 564 624.5 543.5 c 128,-1,62
 664 523 664 523 695.5 493 c 128,-1,63
 727 463 727 463 746 420 c 128,-1,64
 765 377 765 377 765 317 c 0,65,66
 765 254 765 254 746 199 c 128,-1,67
 727 144 727 144 689.5 101.5 c 128,-1,68
 652 59 652 59 596.5 30.5 c 128,-1,69
 541 2 541 2 468 -8 c 1,70,-1
 455 -56 l 1,71,72
 546 -77 546 -77 581.5 -114.5 c 128,-1,73
 617 -152 617 -152 617 -201 c 0,74,75
 617 -234 617 -234 599.5 -260 c 128,-1,76
 582 -286 582 -286 550.5 -305 c 128,-1,77
 519 -324 519 -324 474.5 -334 c 128,-1,78
 430 -344 430 -344 376 -344 c 0,79,80
 338 -344 338 -344 303.5 -339 c 128,-1,81
 269 -334 269 -334 235 -324 c 1,82,-1
 258 -246 l 2,83,84
 264 -222 264 -222 287 -222 c 0,0,1
EndSplineSet
Validated: 1
Substitution2: "sous-table 'salt' Alternatives stylistiques dans Latin lookup 8" uni0219
EndChar

StartChar: s_t.dlig
Encoding: 2149 -1 120
Width: 1492
GlyphClass: 3
Flags: W
LayerCount: 2
Fore
SplineSet
989 806 m 1,0,-1
 906 806 l 2,1,2
 886 806 886 806 872 819.5 c 128,-1,3
 858 833 858 833 858 859 c 2,4,-1
 858 960 l 1,5,-1
 1017 991 l 1,6,7
 1027 1018 1027 1018 1036.5 1048 c 128,-1,8
 1046 1078 1046 1078 1053.5 1108.5 c 128,-1,9
 1061 1139 1061 1139 1065.5 1169 c 128,-1,10
 1070 1199 1070 1199 1070 1225 c 0,11,12
 1070 1262 1070 1262 1061.5 1295.5 c 128,-1,13
 1053 1329 1053 1329 1032 1354.5 c 128,-1,14
 1011 1380 1011 1380 976.5 1395 c 128,-1,15
 942 1410 942 1410 891 1410 c 0,16,17
 829 1410 829 1410 784 1390 c 128,-1,18
 739 1370 739 1370 709 1334.5 c 128,-1,19
 679 1299 679 1299 664.5 1252 c 128,-1,20
 650 1205 650 1205 650 1151 c 0,21,22
 650 1079 650 1079 680 1010.5 c 128,-1,23
 710 942 710 942 770 885 c 1,24,-1
 713 836 l 1,25,-1
 687 793 l 2,26,27
 677 776 677 776 665.5 769.5 c 128,-1,28
 654 763 654 763 637 763 c 0,29,30
 619 763 619 763 599.5 772.5 c 128,-1,31
 580 782 580 782 556.5 793.5 c 128,-1,32
 533 805 533 805 503 814.5 c 128,-1,33
 473 824 473 824 434 824 c 0,34,35
 374 824 374 824 341 796.5 c 128,-1,36
 308 769 308 769 308 723 c 0,37,38
 308 692 308 692 327 671.5 c 128,-1,39
 346 651 346 651 377.5 635.5 c 128,-1,40
 409 620 409 620 448.5 607 c 128,-1,41
 488 594 488 594 530 579 c 128,-1,42
 572 564 572 564 611.5 543.5 c 128,-1,43
 651 523 651 523 682.5 493 c 128,-1,44
 714 463 714 463 733 420 c 128,-1,45
 752 377 752 377 752 317 c 0,46,47
 752 245 752 245 727 184 c 128,-1,48
 702 123 702 123 653.5 79 c 128,-1,49
 605 35 605 35 533.5 10 c 128,-1,50
 462 -15 462 -15 368 -15 c 0,51,52
 320 -15 320 -15 273 -6 c 128,-1,53
 226 3 226 3 183 19.5 c 128,-1,54
 140 36 140 36 102.5 58 c 128,-1,55
 65 80 65 80 38 106 c 1,56,-1
 97 202 l 2,57,58
 108 219 108 219 123 229 c 128,-1,59
 138 239 138 239 162 239 c 0,60,61
 184 239 184 239 203.5 227 c 128,-1,62
 223 215 223 215 246 200.5 c 128,-1,63
 269 186 269 186 301 174 c 128,-1,64
 333 162 333 162 381 162 c 0,65,66
 417 162 417 162 442.5 171 c 128,-1,67
 468 180 468 180 483.5 195.5 c 128,-1,68
 499 211 499 211 506.5 231 c 128,-1,69
 514 251 514 251 514 272 c 0,70,71
 514 316 514 316 481 340.5 c 128,-1,72
 448 365 448 365 398 383 c 128,-1,73
 348 401 348 401 290.5 420 c 128,-1,74
 233 439 233 439 183 472 c 128,-1,75
 133 505 133 505 100 559 c 128,-1,76
 67 613 67 613 67 702 c 0,77,78
 67 764 67 764 90 819.5 c 128,-1,79
 113 875 113 875 158.5 917 c 128,-1,80
 204 959 204 959 271.5 984 c 128,-1,81
 339 1009 339 1009 429 1009 c 0,82,83
 498 1009 498 1009 560 991 c 1,84,85
 533 1067 533 1067 533 1149 c 0,86,87
 533 1221 533 1221 553 1287 c 128,-1,88
 573 1353 573 1353 616 1403.5 c 128,-1,89
 659 1454 659 1454 727 1483.5 c 128,-1,90
 795 1513 795 1513 891 1513 c 0,91,92
 984 1513 984 1513 1050.5 1484.5 c 128,-1,93
 1117 1456 1117 1456 1159.5 1409 c 128,-1,94
 1202 1362 1202 1362 1222.5 1302.5 c 128,-1,95
 1243 1243 1243 1243 1243 1182 c 2,96,-1
 1243 986 l 1,97,-1
 1473 986 l 1,98,-1
 1473 806 l 1,99,-1
 1243 806 l 1,100,-1
 1243 281 l 2,101,102
 1243 237 1243 237 1259.5 212.5 c 128,-1,103
 1276 188 1276 188 1308 188 c 0,104,105
 1325 188 1325 188 1336 192.5 c 128,-1,106
 1347 197 1347 197 1355.5 203 c 128,-1,107
 1364 209 1364 209 1371 213.5 c 128,-1,108
 1378 218 1378 218 1386 218 c 0,109,110
 1397 218 1397 218 1404 212.5 c 128,-1,111
 1411 207 1411 207 1419 195 c 2,112,-1
 1496 72 l 1,113,114
 1445 29 1445 29 1380.5 7 c 128,-1,115
 1316 -15 1316 -15 1247 -15 c 0,116,117
 1122 -15 1122 -15 1055.5 59.5 c 128,-1,118
 989 134 989 134 989 264 c 2,119,-1
 989 806 l 1,0,-1
EndSplineSet
Validated: 1
Ligature2: "sous-table 'dlig' Ligatures facultatives  dans Latin lookup 36" s t
EndChar

StartChar: glyph121
Encoding: 2150 -1 121
Width: 1492
GlyphClass: 3
Flags: W
LayerCount: 2
Fore
SplineSet
273 -222 m 0,0,1
 287 -222 287 -222 302.5 -228 c 128,-1,2
 318 -234 318 -234 345 -234 c 0,3,4
 375 -234 375 -234 389.5 -223 c 128,-1,5
 404 -212 404 -212 404 -197 c 0,6,7
 404 -171 404 -171 371.5 -159.5 c 128,-1,8
 339 -148 339 -148 267 -138 c 1,9,-1
 309 -11 l 1,10,11
 228 -2 228 -2 156 29.5 c 128,-1,12
 84 61 84 61 38 106 c 1,13,-1
 97 202 l 2,14,15
 108 219 108 219 123 229 c 128,-1,16
 138 239 138 239 162 239 c 0,17,18
 184 239 184 239 203.5 227 c 128,-1,19
 223 215 223 215 246 200.5 c 128,-1,20
 269 186 269 186 301 174 c 128,-1,21
 333 162 333 162 381 162 c 0,22,23
 417 162 417 162 442.5 171 c 128,-1,24
 468 180 468 180 483.5 195.5 c 128,-1,25
 499 211 499 211 506.5 231 c 128,-1,26
 514 251 514 251 514 272 c 0,27,28
 514 316 514 316 481 340.5 c 128,-1,29
 448 365 448 365 398 383 c 128,-1,30
 348 401 348 401 290.5 420 c 128,-1,31
 233 439 233 439 183 472 c 128,-1,32
 133 505 133 505 100 559 c 128,-1,33
 67 613 67 613 67 702 c 0,34,35
 67 764 67 764 90 819.5 c 128,-1,36
 113 875 113 875 158.5 917 c 128,-1,37
 204 959 204 959 271.5 984 c 128,-1,38
 339 1009 339 1009 429 1009 c 0,39,40
 498 1009 498 1009 560 991 c 1,41,42
 533 1067 533 1067 533 1149 c 0,43,44
 533 1221 533 1221 553 1287 c 128,-1,45
 573 1353 573 1353 616 1403.5 c 128,-1,46
 659 1454 659 1454 727 1483.5 c 128,-1,47
 795 1513 795 1513 891 1513 c 0,48,49
 984 1513 984 1513 1050.5 1484.5 c 128,-1,50
 1117 1456 1117 1456 1159.5 1409 c 128,-1,51
 1202 1362 1202 1362 1222.5 1302.5 c 128,-1,52
 1243 1243 1243 1243 1243 1182 c 2,53,-1
 1243 986 l 1,54,-1
 1473 986 l 1,55,-1
 1473 806 l 1,56,-1
 1243 806 l 1,57,-1
 1243 281 l 2,58,59
 1243 237 1243 237 1259.5 212.5 c 128,-1,60
 1276 188 1276 188 1308 188 c 0,61,62
 1325 188 1325 188 1336 192.5 c 128,-1,63
 1347 197 1347 197 1355.5 203 c 128,-1,64
 1364 209 1364 209 1371 213.5 c 128,-1,65
 1378 218 1378 218 1386 218 c 0,66,67
 1397 218 1397 218 1404 212.5 c 128,-1,68
 1411 207 1411 207 1419 195 c 2,69,-1
 1496 72 l 1,70,71
 1445 29 1445 29 1380.5 7 c 128,-1,72
 1316 -15 1316 -15 1247 -15 c 0,73,74
 1122 -15 1122 -15 1055.5 59.5 c 128,-1,75
 989 134 989 134 989 264 c 2,76,-1
 989 806 l 1,77,-1
 906 806 l 2,78,79
 886 806 886 806 872 819.5 c 128,-1,80
 858 833 858 833 858 859 c 2,81,-1
 858 960 l 1,82,-1
 1017 991 l 1,83,84
 1027 1018 1027 1018 1036.5 1048 c 128,-1,85
 1046 1078 1046 1078 1053.5 1108.5 c 128,-1,86
 1061 1139 1061 1139 1065.5 1169 c 128,-1,87
 1070 1199 1070 1199 1070 1225 c 0,88,89
 1070 1262 1070 1262 1061.5 1295.5 c 128,-1,90
 1053 1329 1053 1329 1032 1354.5 c 128,-1,91
 1011 1380 1011 1380 976.5 1395 c 128,-1,92
 942 1410 942 1410 891 1410 c 0,93,94
 829 1410 829 1410 784 1390 c 128,-1,95
 739 1370 739 1370 709 1334.5 c 128,-1,96
 679 1299 679 1299 664.5 1252 c 128,-1,97
 650 1205 650 1205 650 1151 c 0,98,99
 650 1079 650 1079 680 1010.5 c 128,-1,100
 710 942 710 942 770 885 c 1,101,-1
 713 836 l 1,102,-1
 687 793 l 2,103,104
 677 776 677 776 665.5 769.5 c 128,-1,105
 654 763 654 763 637 763 c 0,106,107
 619 763 619 763 599.5 772.5 c 128,-1,108
 580 782 580 782 556.5 793.5 c 128,-1,109
 533 805 533 805 503 814.5 c 128,-1,110
 473 824 473 824 434 824 c 0,111,112
 374 824 374 824 341 796.5 c 128,-1,113
 308 769 308 769 308 723 c 0,114,115
 308 692 308 692 327 671.5 c 128,-1,116
 346 651 346 651 377.5 635.5 c 128,-1,117
 409 620 409 620 448.5 607 c 128,-1,118
 488 594 488 594 530 579 c 128,-1,119
 572 564 572 564 611.5 543.5 c 128,-1,120
 651 523 651 523 682.5 493 c 128,-1,121
 714 463 714 463 733 420 c 128,-1,122
 752 377 752 377 752 317 c 0,123,124
 752 254 752 254 732.5 199 c 128,-1,125
 713 144 713 144 675.5 101 c 128,-1,126
 638 58 638 58 582.5 29.5 c 128,-1,127
 527 1 527 1 454 -9 c 1,128,-1
 441 -56 l 1,129,130
 532 -77 532 -77 567.5 -114.5 c 128,-1,131
 603 -152 603 -152 603 -201 c 0,132,133
 603 -234 603 -234 585.5 -260 c 128,-1,134
 568 -286 568 -286 536.5 -305 c 128,-1,135
 505 -324 505 -324 460.5 -334 c 128,-1,136
 416 -344 416 -344 362 -344 c 0,137,138
 324 -344 324 -344 289.5 -339 c 128,-1,139
 255 -334 255 -334 221 -324 c 1,140,-1
 244 -246 l 2,141,142
 250 -222 250 -222 273 -222 c 0,0,1
EndSplineSet
Validated: 1
EndChar

StartChar: germandbls
Encoding: 158 223 122
Width: 1136
GlyphClass: 2
Flags: W
LayerCount: 2
Fore
SplineSet
607 1423 m 0,0,1
 720 1423 720 1423 798.5 1389.5 c 128,-1,2
 877 1356 877 1356 926 1305.5 c 128,-1,3
 975 1255 975 1255 997 1197 c 128,-1,4
 1019 1139 1019 1139 1019 1090 c 0,5,6
 1019 1035 1019 1035 1002 995.5 c 128,-1,7
 985 956 985 956 959.5 927 c 128,-1,8
 934 898 934 898 904 876 c 128,-1,9
 874 854 874 854 848.5 834.5 c 128,-1,10
 823 815 823 815 806 794.5 c 128,-1,11
 789 774 789 774 789 747 c 0,12,13
 789 716 789 716 811 693 c 128,-1,14
 833 670 833 670 865.5 647.5 c 128,-1,15
 898 625 898 625 936.5 599.5 c 128,-1,16
 975 574 975 574 1007.5 537 c 128,-1,17
 1040 500 1040 500 1062 448.5 c 128,-1,18
 1084 397 1084 397 1084 323 c 0,19,20
 1084 239 1084 239 1054 176 c 128,-1,21
 1024 113 1024 113 973.5 70.5 c 128,-1,22
 923 28 923 28 856.5 6.5 c 128,-1,23
 790 -15 790 -15 717 -15 c 0,24,25
 676 -15 676 -15 635 -6 c 128,-1,26
 594 3 594 3 555 19.5 c 128,-1,27
 516 36 516 36 481.5 58 c 128,-1,28
 447 80 447 80 420 106 c 1,29,-1
 479 202 l 2,30,31
 490 219 490 219 505 229 c 128,-1,32
 520 239 520 239 544 239 c 0,33,34
 566 239 566 239 585.5 227 c 128,-1,35
 605 215 605 215 627 200.5 c 128,-1,36
 649 186 649 186 675.5 174 c 128,-1,37
 702 162 702 162 740 162 c 0,38,39
 762 162 762 162 781.5 171 c 128,-1,40
 801 180 801 180 815.5 196 c 128,-1,41
 830 212 830 212 838 234 c 128,-1,42
 846 256 846 256 846 283 c 0,43,44
 846 327 846 327 822 356 c 128,-1,45
 798 385 798 385 762 408.5 c 128,-1,46
 726 432 726 432 684.5 455 c 128,-1,47
 643 478 643 478 607 509 c 128,-1,48
 571 540 571 540 547 584.5 c 128,-1,49
 523 629 523 629 523 696 c 0,50,51
 523 752 523 752 541.5 792 c 128,-1,52
 560 832 560 832 587.5 862.5 c 128,-1,53
 615 893 615 893 647.5 917.5 c 128,-1,54
 680 942 680 942 707.5 967.5 c 128,-1,55
 735 993 735 993 753.5 1021.5 c 128,-1,56
 772 1050 772 1050 772 1090 c 0,57,58
 772 1121 772 1121 762 1149 c 128,-1,59
 752 1177 752 1177 730.5 1197 c 128,-1,60
 709 1217 709 1217 675.5 1229 c 128,-1,61
 642 1241 642 1241 596 1241 c 0,62,63
 479 1241 479 1241 424 1163 c 128,-1,64
 369 1085 369 1085 369 940 c 2,65,-1
 369 0 l 1,66,-1
 115 0 l 1,67,-1
 115 947 l 2,68,69
 115 1050 115 1050 148.5 1137 c 128,-1,70
 182 1224 182 1224 245.5 1287.5 c 128,-1,71
 309 1351 309 1351 400 1387 c 128,-1,72
 491 1423 491 1423 607 1423 c 0,0,1
EndSplineSet
Validated: 1
EndChar

StartChar: longs
Encoding: 318 383 123
Width: 529
GlyphClass: 2
Flags: W
LayerCount: 2
Fore
SplineSet
154 0 m 1,0,-1
 154 806 l 1,1,-1
 84 820 l 2,2,3
 55 825 55 825 37.5 840 c 128,-1,4
 20 855 20 855 20 883 c 2,5,-1
 20 986 l 1,6,-1
 154 986 l 1,7,-1
 154 1055 l 2,8,9
 154 1140 154 1140 179 1208 c 128,-1,10
 204 1276 204 1276 250.5 1324 c 128,-1,11
 297 1372 297 1372 364 1397.5 c 128,-1,12
 431 1423 431 1423 515 1423 c 0,13,14
 548 1423 548 1423 577.5 1418.5 c 128,-1,15
 607 1414 607 1414 637 1405 c 1,16,-1
 628 1274 l 2,17,18
 626 1251 626 1251 605 1246 c 128,-1,19
 584 1241 584 1241 558 1241 c 0,20,21
 483 1241 483 1241 445.5 1197 c 128,-1,22
 408 1153 408 1153 408 1047 c 2,23,-1
 408 0 l 1,24,-1
 154 0 l 1,0,-1
EndSplineSet
Validated: 1
EndChar

StartChar: t
Encoding: 86 116 124
Width: 710
GlyphClass: 2
Flags: W
LayerCount: 2
Fore
SplineSet
424 -15 m 0,0,1
 295 -15 295 -15 226 59.5 c 128,-1,2
 157 134 157 134 157 264 c 2,3,-1
 157 806 l 1,4,-1
 67 806 l 2,5,6
 47 806 47 806 33 819.5 c 128,-1,7
 19 833 19 833 19 859 c 2,8,-1
 19 960 l 1,9,-1
 170 989 l 1,10,-1
 223 1251 l 2,11,12
 232 1292 232 1292 279 1292 c 2,13,-1
 411 1292 l 1,14,-1
 411 986 l 1,15,-1
 656 986 l 1,16,-1
 656 806 l 1,17,-1
 411 806 l 1,18,-1
 411 281 l 2,19,20
 411 237 411 237 430 212.5 c 128,-1,21
 449 188 449 188 484 188 c 0,22,23
 503 188 503 188 515.5 192.5 c 128,-1,24
 528 197 528 197 537 203 c 128,-1,25
 546 209 546 209 553.5 213.5 c 128,-1,26
 561 218 561 218 570 218 c 0,27,28
 581 218 581 218 588 212.5 c 128,-1,29
 595 207 595 207 603 195 c 2,30,-1
 680 72 l 1,31,32
 628 29 628 29 561.5 7 c 128,-1,33
 495 -15 495 -15 424 -15 c 0,0,1
EndSplineSet
Validated: 1
Substitution2: "sous-table 'ordn' Ordinaux dans Latin lookup 39" t.superior
Substitution2: "sous-table 'sups' Exposant lookups25" t.superior
EndChar

StartChar: tbar
Encoding: 294 359 126
Width: 726
GlyphClass: 2
Flags: W
LayerCount: 2
Fore
SplineSet
52 670 m 1,0,-1
 164 670 l 1,1,-1
 164 806 l 1,2,-1
 74 806 l 2,3,4
 54 806 54 806 40 819.5 c 128,-1,5
 26 833 26 833 26 859 c 2,6,-1
 26 960 l 1,7,-1
 177 989 l 1,8,-1
 230 1251 l 2,9,10
 239 1292 239 1292 286 1292 c 2,11,-1
 418 1292 l 1,12,-1
 418 986 l 1,13,-1
 663 986 l 1,14,-1
 663 806 l 1,15,-1
 418 806 l 1,16,-1
 418 670 l 1,17,-1
 688 670 l 1,18,-1
 688 514 l 1,19,-1
 418 514 l 1,20,-1
 418 281 l 2,21,22
 418 237 418 237 437 212.5 c 128,-1,23
 456 188 456 188 491 188 c 0,24,25
 510 188 510 188 522.5 192.5 c 128,-1,26
 535 197 535 197 544 203 c 128,-1,27
 553 209 553 209 560.5 213.5 c 128,-1,28
 568 218 568 218 577 218 c 0,29,30
 588 218 588 218 595 212.5 c 128,-1,31
 602 207 602 207 610 195 c 2,32,-1
 687 72 l 1,33,34
 635 29 635 29 568.5 7 c 128,-1,35
 502 -15 502 -15 431 -15 c 0,36,37
 302 -15 302 -15 233 59.5 c 128,-1,38
 164 134 164 134 164 264 c 2,39,-1
 164 514 l 1,40,-1
 52 514 l 1,41,-1
 52 670 l 1,0,-1
EndSplineSet
Validated: 1
EndChar

StartChar: t_f.liga
Encoding: 2151 -1 127
Width: 1296
GlyphClass: 3
Flags: W
LayerCount: 2
Fore
SplineSet
800 0 m 1,0,-1
 800 806 l 1,1,-1
 410 806 l 1,2,-1
 410 281 l 2,3,4
 410 237 410 237 428.5 212.5 c 128,-1,5
 447 188 447 188 482 188 c 0,6,7
 501 188 501 188 513.5 192.5 c 128,-1,8
 526 197 526 197 535 203 c 128,-1,9
 544 209 544 209 551.5 213.5 c 128,-1,10
 559 218 559 218 568 218 c 0,11,12
 579 218 579 218 586 212.5 c 128,-1,13
 593 207 593 207 601 195 c 2,14,-1
 678 72 l 1,15,16
 626 29 626 29 559.5 7 c 128,-1,17
 493 -15 493 -15 422 -15 c 0,18,19
 358 -15 358 -15 308.5 4.5 c 128,-1,20
 259 24 259 24 225 60 c 128,-1,21
 191 96 191 96 173.5 147.5 c 128,-1,22
 156 199 156 199 156 264 c 2,23,-1
 156 806 l 1,24,-1
 67 806 l 2,25,26
 47 806 47 806 33 819.5 c 128,-1,27
 19 833 19 833 19 859 c 2,28,-1
 19 960 l 1,29,-1
 169 988 l 1,30,-1
 222 1251 l 2,31,32
 231 1292 231 1292 278 1292 c 2,33,-1
 410 1292 l 1,34,-1
 410 986 l 1,35,-1
 800 986 l 1,36,-1
 800 1055 l 2,37,38
 800 1140 800 1140 825 1208 c 128,-1,39
 850 1276 850 1276 897.5 1324 c 128,-1,40
 945 1372 945 1372 1012.5 1397.5 c 128,-1,41
 1080 1423 1080 1423 1165 1423 c 0,42,43
 1199 1423 1199 1423 1228.5 1418.5 c 128,-1,44
 1258 1414 1258 1414 1288 1405 c 1,45,-1
 1283 1278 l 2,46,47
 1281 1249 1281 1249 1258.5 1241 c 128,-1,48
 1236 1233 1236 1233 1209 1233 c 0,49,50
 1170 1233 1170 1233 1139.5 1224 c 128,-1,51
 1109 1215 1109 1215 1088 1193.5 c 128,-1,52
 1067 1172 1067 1172 1056 1136 c 128,-1,53
 1045 1100 1045 1100 1045 1047 c 2,54,-1
 1045 986 l 1,55,-1
 1280 986 l 1,56,-1
 1280 806 l 1,57,-1
 1054 806 l 1,58,-1
 1054 0 l 1,59,-1
 800 0 l 1,0,-1
EndSplineSet
Validated: 1
Ligature2: "sous-table 'liga' Ligatures standard dans Latin lookup 37" t f
EndChar

StartChar: t_iogonek.liga
Encoding: 2152 -1 128
Width: 1199
GlyphClass: 3
Flags: W
LayerCount: 2
Fore
SplineSet
1083 -174 m 0,0,1
 1100 -174 1100 -174 1107 -191 c 2,2,-1
 1145 -285 l 1,3,4
 1113 -306 1113 -306 1067 -320 c 128,-1,5
 1021 -334 1021 -334 969 -334 c 0,6,7
 875 -334 875 -334 825.5 -294 c 128,-1,8
 776 -254 776 -254 776 -191 c 0,9,10
 776 -139 776 -139 808.5 -90 c 128,-1,11
 841 -41 841 -41 905 0 c 1,12,-1
 825 0 l 1,13,-1
 825 806 l 1,14,-1
 409 806 l 1,15,-1
 409 281 l 2,16,17
 409 237 409 237 427.5 212.5 c 128,-1,18
 446 188 446 188 481 188 c 0,19,20
 499 188 499 188 511.5 192.5 c 128,-1,21
 524 197 524 197 533 203 c 128,-1,22
 542 209 542 209 549.5 213.5 c 128,-1,23
 557 218 557 218 566 218 c 0,24,25
 577 218 577 218 584 212.5 c 128,-1,26
 591 207 591 207 599 195 c 2,27,-1
 676 72 l 1,28,29
 624 29 624 29 558 7 c 128,-1,30
 492 -15 492 -15 421 -15 c 0,31,32
 357 -15 357 -15 307.5 4.5 c 128,-1,33
 258 24 258 24 224 60 c 128,-1,34
 190 96 190 96 172.5 147.5 c 128,-1,35
 155 199 155 199 155 264 c 2,36,-1
 155 806 l 1,37,-1
 67 806 l 2,38,39
 47 806 47 806 32.5 819.5 c 128,-1,40
 18 833 18 833 18 859 c 2,41,-1
 18 960 l 1,42,-1
 168 988 l 1,43,-1
 221 1251 l 2,44,45
 230 1292 230 1292 277 1292 c 2,46,-1
 409 1292 l 1,47,-1
 409 986 l 1,48,-1
 1079 986 l 1,49,-1
 1079 0 l 1,50,-1
 1057 0 l 1,51,52
 1020 -20 1020 -20 992.5 -52.5 c 128,-1,53
 965 -85 965 -85 965 -127 c 0,54,55
 965 -155 965 -155 980 -171 c 128,-1,56
 995 -187 995 -187 1023 -187 c 0,57,58
 1039 -187 1039 -187 1048.5 -185 c 128,-1,59
 1058 -183 1058 -183 1064 -180.5 c 128,-1,60
 1070 -178 1070 -178 1074 -176 c 128,-1,61
 1078 -174 1078 -174 1083 -174 c 0,0,1
1109 1278 m 0,62,63
 1109 1246 1109 1246 1096.5 1217.5 c 128,-1,64
 1084 1189 1084 1189 1062 1167.5 c 128,-1,65
 1040 1146 1040 1146 1011.5 1133.5 c 128,-1,66
 983 1121 983 1121 950 1121 c 0,67,68
 918 1121 918 1121 890 1133.5 c 128,-1,69
 862 1146 862 1146 841 1167.5 c 128,-1,70
 820 1189 820 1189 807.5 1217.5 c 128,-1,71
 795 1246 795 1246 795 1278 c 0,72,73
 795 1311 795 1311 807.5 1339.5 c 128,-1,74
 820 1368 820 1368 841 1390 c 128,-1,75
 862 1412 862 1412 890 1424.5 c 128,-1,76
 918 1437 918 1437 950 1437 c 0,77,78
 983 1437 983 1437 1011.5 1424.5 c 128,-1,79
 1040 1412 1040 1412 1062 1390 c 128,-1,80
 1084 1368 1084 1368 1096.5 1339.5 c 128,-1,81
 1109 1311 1109 1311 1109 1278 c 0,62,63
EndSplineSet
Validated: 1
Ligature2: "sous-table 'liga' Ligatures standard dans Latin lookup 37" t iogonek
EndChar

StartChar: t_dotlessi.liga
Encoding: 2153 -1 129
Width: 1199
GlyphClass: 3
Flags: W
LayerCount: 2
Fore
SplineSet
1079 986 m 1,0,-1
 1079 0 l 1,1,-1
 825 0 l 1,2,-1
 825 806 l 1,3,-1
 409 806 l 1,4,-1
 409 281 l 2,5,6
 409 237 409 237 427.5 212.5 c 128,-1,7
 446 188 446 188 481 188 c 0,8,9
 499 188 499 188 511.5 192.5 c 128,-1,10
 524 197 524 197 533 203 c 128,-1,11
 542 209 542 209 549.5 213.5 c 128,-1,12
 557 218 557 218 566 218 c 0,13,14
 577 218 577 218 584 212.5 c 128,-1,15
 591 207 591 207 599 195 c 2,16,-1
 676 72 l 1,17,18
 624 29 624 29 558 7 c 128,-1,19
 492 -15 492 -15 421 -15 c 0,20,21
 357 -15 357 -15 307.5 4.5 c 128,-1,22
 258 24 258 24 224 60 c 128,-1,23
 190 96 190 96 172.5 147.5 c 128,-1,24
 155 199 155 199 155 264 c 2,25,-1
 155 806 l 1,26,-1
 67 806 l 2,27,28
 47 806 47 806 32.5 819.5 c 128,-1,29
 18 833 18 833 18 859 c 2,30,-1
 18 960 l 1,31,-1
 168 988 l 1,32,-1
 221 1251 l 2,33,34
 230 1292 230 1292 277 1292 c 2,35,-1
 409 1292 l 1,36,-1
 409 986 l 1,37,-1
 1079 986 l 1,0,-1
EndSplineSet
Validated: 1
Ligature2: "sous-table 'liga' Ligatures standard dans Latin lookup 37" t dotlessi
EndChar

StartChar: t_t.liga
Encoding: 2154 -1 130
Width: 1344
GlyphClass: 3
Flags: W
LayerCount: 2
Fore
SplineSet
430 -15 m 0,0,1
 300 -15 300 -15 230.5 59.5 c 128,-1,2
 161 134 161 134 161 264 c 2,3,-1
 161 806 l 1,4,-1
 69 806 l 2,5,6
 49 806 49 806 34.5 819.5 c 128,-1,7
 20 833 20 833 20 859 c 2,8,-1
 20 960 l 1,9,-1
 174 989 l 1,10,-1
 227 1251 l 2,11,12
 236 1292 236 1292 283 1292 c 2,13,-1
 415 1292 l 1,14,-1
 415 986 l 1,15,-1
 797 986 l 1,16,-1
 851 1251 l 2,17,18
 860 1292 860 1292 907 1292 c 2,19,-1
 1039 1292 l 1,20,-1
 1039 986 l 1,21,-1
 1289 986 l 1,22,-1
 1289 806 l 1,23,-1
 1039 806 l 1,24,-1
 1039 281 l 2,25,26
 1039 237 1039 237 1059 212.5 c 128,-1,27
 1079 188 1079 188 1114 188 c 0,28,29
 1133 188 1133 188 1146.5 192.5 c 128,-1,30
 1160 197 1160 197 1170 203 c 128,-1,31
 1180 209 1180 209 1187.5 213.5 c 128,-1,32
 1195 218 1195 218 1204 218 c 0,33,34
 1223 218 1223 218 1237 195 c 2,35,-1
 1314 72 l 1,36,37
 1261 29 1261 29 1194 7 c 128,-1,38
 1127 -15 1127 -15 1055 -15 c 0,39,40
 924 -15 924 -15 854.5 59.5 c 128,-1,41
 785 134 785 134 785 264 c 2,42,-1
 785 806 l 1,43,-1
 415 806 l 1,44,-1
 415 281 l 2,45,46
 415 237 415 237 435 212.5 c 128,-1,47
 455 188 455 188 490 188 c 0,48,49
 509 188 509 188 522.5 192.5 c 128,-1,50
 536 197 536 197 545.5 203 c 128,-1,51
 555 209 555 209 562.5 213.5 c 128,-1,52
 570 218 570 218 579 218 c 0,53,54
 590 218 590 218 597 212.5 c 128,-1,55
 604 207 604 207 612 195 c 2,56,-1
 689 72 l 1,57,58
 636 29 636 29 569 7 c 128,-1,59
 502 -15 502 -15 430 -15 c 0,0,1
EndSplineSet
Validated: 1
Ligature2: "sous-table 'liga' Ligatures standard dans Latin lookup 37" t t
EndChar

StartChar: t_t_f.liga
Encoding: 2155 -1 131
Width: 1930
GlyphClass: 3
Flags: W
LayerCount: 2
Fore
SplineSet
1429 0 m 1,0,-1
 1429 806 l 1,1,-1
 1033 806 l 1,2,-1
 1033 281 l 2,3,4
 1033 237 1033 237 1052.5 212.5 c 128,-1,5
 1072 188 1072 188 1106 188 c 0,6,7
 1125 188 1125 188 1138 192.5 c 128,-1,8
 1151 197 1151 197 1161 203 c 128,-1,9
 1171 209 1171 209 1178.5 213.5 c 128,-1,10
 1186 218 1186 218 1195 218 c 0,11,12
 1214 218 1214 218 1228 195 c 2,13,-1
 1304 72 l 1,14,15
 1252 29 1252 29 1185.5 7 c 128,-1,16
 1119 -15 1119 -15 1047 -15 c 0,17,18
 917 -15 917 -15 848 59.5 c 128,-1,19
 779 134 779 134 779 264 c 2,20,-1
 779 806 l 1,21,-1
 413 806 l 1,22,-1
 413 281 l 2,23,24
 413 237 413 237 432.5 212.5 c 128,-1,25
 452 188 452 188 487 188 c 0,26,27
 506 188 506 188 519 192.5 c 128,-1,28
 532 197 532 197 541.5 203 c 128,-1,29
 551 209 551 209 558.5 213.5 c 128,-1,30
 566 218 566 218 575 218 c 0,31,32
 586 218 586 218 593 212.5 c 128,-1,33
 600 207 600 207 608 195 c 2,34,-1
 685 72 l 1,35,36
 632 29 632 29 565.5 7 c 128,-1,37
 499 -15 499 -15 427 -15 c 0,38,39
 297 -15 297 -15 228 59.5 c 128,-1,40
 159 134 159 134 159 264 c 2,41,-1
 159 806 l 1,42,-1
 68 806 l 2,43,44
 48 806 48 806 33.5 819.5 c 128,-1,45
 19 833 19 833 19 859 c 2,46,-1
 19 960 l 1,47,-1
 172 989 l 1,48,-1
 225 1251 l 2,49,50
 234 1292 234 1292 281 1292 c 2,51,-1
 413 1292 l 1,52,-1
 413 986 l 1,53,-1
 791 986 l 1,54,-1
 844 1251 l 2,55,56
 855 1292 855 1292 900 1292 c 2,57,-1
 1033 1292 l 1,58,-1
 1033 986 l 1,59,-1
 1429 986 l 1,60,-1
 1429 1055 l 2,61,62
 1429 1140 1429 1140 1454.5 1208 c 128,-1,63
 1480 1276 1480 1276 1528 1324 c 128,-1,64
 1576 1372 1576 1372 1644 1397.5 c 128,-1,65
 1712 1423 1712 1423 1798 1423 c 0,66,67
 1832 1423 1832 1423 1862 1418.5 c 128,-1,68
 1892 1414 1892 1414 1923 1405 c 1,69,-1
 1917 1278 l 2,70,71
 1915 1249 1915 1249 1892.5 1241 c 128,-1,72
 1870 1233 1870 1233 1842 1233 c 0,73,74
 1802 1233 1802 1233 1771 1224 c 128,-1,75
 1740 1215 1740 1215 1718.5 1193.5 c 128,-1,76
 1697 1172 1697 1172 1686 1136 c 128,-1,77
 1675 1100 1675 1100 1675 1047 c 2,78,-1
 1675 986 l 1,79,-1
 1913 986 l 1,80,-1
 1913 806 l 1,81,-1
 1683 806 l 1,82,-1
 1683 0 l 1,83,-1
 1429 0 l 1,0,-1
EndSplineSet
Validated: 1
Ligature2: "sous-table 'liga' Ligatures standard dans Latin lookup 37" t t f
EndChar

StartChar: t_t_dotlessi.liga
Encoding: 2157 -1 133
Width: 1832
GlyphClass: 3
Flags: W
LayerCount: 2
Fore
SplineSet
430 -15 m 0,0,1
 300 -15 300 -15 230.5 59.5 c 128,-1,2
 161 134 161 134 161 264 c 2,3,-1
 161 806 l 1,4,-1
 69 806 l 2,5,6
 49 806 49 806 34.5 819.5 c 128,-1,7
 20 833 20 833 20 859 c 2,8,-1
 20 960 l 1,9,-1
 174 989 l 1,10,-1
 227 1251 l 2,11,12
 236 1292 236 1292 283 1292 c 2,13,-1
 415 1292 l 1,14,-1
 415 986 l 1,15,-1
 798 986 l 1,16,-1
 852 1251 l 2,17,18
 861 1292 861 1292 908 1292 c 2,19,-1
 1040 1292 l 1,20,-1
 1040 986 l 1,21,-1
 1706 986 l 1,22,-1
 1706 0 l 1,23,-1
 1452 0 l 1,24,-1
 1452 806 l 1,25,-1
 1040 806 l 1,26,-1
 1040 281 l 2,27,28
 1040 237 1040 237 1060 212.5 c 128,-1,29
 1080 188 1080 188 1115 188 c 0,30,31
 1134 188 1134 188 1147.5 192.5 c 128,-1,32
 1161 197 1161 197 1171 203 c 128,-1,33
 1181 209 1181 209 1188.5 213.5 c 128,-1,34
 1196 218 1196 218 1205 218 c 0,35,36
 1225 218 1225 218 1239 195 c 2,37,-1
 1315 72 l 1,38,39
 1262 29 1262 29 1195 7 c 128,-1,40
 1128 -15 1128 -15 1056 -15 c 0,41,42
 925 -15 925 -15 855.5 59.5 c 128,-1,43
 786 134 786 134 786 264 c 2,44,-1
 786 806 l 1,45,-1
 415 806 l 1,46,-1
 415 281 l 2,47,48
 415 237 415 237 435 212.5 c 128,-1,49
 455 188 455 188 490 188 c 0,50,51
 509 188 509 188 522.5 192.5 c 128,-1,52
 536 197 536 197 545.5 203 c 128,-1,53
 555 209 555 209 563 213.5 c 128,-1,54
 571 218 571 218 580 218 c 0,55,56
 591 218 591 218 598 212.5 c 128,-1,57
 605 207 605 207 613 195 c 2,58,-1
 690 72 l 1,59,60
 637 29 637 29 569.5 7 c 128,-1,61
 502 -15 502 -15 430 -15 c 0,0,1
EndSplineSet
Validated: 1
Ligature2: "sous-table 'liga' Ligatures standard dans Latin lookup 37" t t dotlessi
EndChar

StartChar: u
Encoding: 87 117 134
Width: 1099
GlyphClass: 2
Flags: W
LayerCount: 2
Fore
SplineSet
361 993 m 1,0,-1
 361 362 l 2,1,2
 361 276 361 276 400 229 c 128,-1,3
 439 182 439 182 517 182 c 0,4,5
 574 182 574 182 625 207.5 c 128,-1,6
 676 233 676 233 721 277 c 1,7,-1
 721 993 l 1,8,-1
 975 993 l 1,9,-1
 975 0 l 1,10,-1
 819 0 l 2,11,12
 795 0 795 0 778.5 11.5 c 128,-1,13
 762 23 762 23 757 46 c 2,14,-1
 739 118 l 1,15,16
 680 59 680 59 608.5 22 c 128,-1,17
 537 -15 537 -15 439 -15 c 0,18,19
 358 -15 358 -15 296 13 c 128,-1,20
 234 41 234 41 192 91 c 128,-1,21
 150 141 150 141 128.5 210 c 128,-1,22
 107 279 107 279 107 362 c 2,23,-1
 107 993 l 1,24,-1
 361 993 l 1,0,-1
EndSplineSet
Validated: 1
Substitution2: "sous-table 'ordn' Ordinaux dans Latin lookup 39" u.superior
Substitution2: "sous-table 'sups' Exposant lookups25" u.superior
EndChar

StartChar: uogonek
Encoding: 306 371 135
Width: 1099
GlyphClass: 2
Flags: W
LayerCount: 2
Fore
SplineSet
361 993 m 1,0,-1
 361 362 l 2,1,2
 361 276 361 276 400 229 c 128,-1,3
 439 182 439 182 517 182 c 0,4,5
 574 182 574 182 625 207.5 c 128,-1,6
 676 233 676 233 721 277 c 1,7,-1
 721 993 l 1,8,-1
 975 993 l 1,9,-1
 975 0 l 1,10,-1
 972 0 l 1,11,12
 953 -10 953 -10 935.5 -23.5 c 128,-1,13
 918 -37 918 -37 904 -53 c 128,-1,14
 890 -69 890 -69 881.5 -87.5 c 128,-1,15
 873 -106 873 -106 873 -127 c 0,16,17
 873 -155 873 -155 890 -171 c 128,-1,18
 907 -187 907 -187 938 -187 c 0,19,20
 955 -187 955 -187 966 -185 c 128,-1,21
 977 -183 977 -183 984 -180.5 c 128,-1,22
 991 -178 991 -178 995.5 -176 c 128,-1,23
 1000 -174 1000 -174 1005 -174 c 0,24,25
 1022 -174 1022 -174 1029 -191 c 2,26,-1
 1067 -285 l 1,27,28
 1035 -306 1035 -306 986.5 -320 c 128,-1,29
 938 -334 938 -334 884 -334 c 0,30,31
 787 -334 787 -334 735.5 -294 c 128,-1,32
 684 -254 684 -254 684 -191 c 0,33,34
 684 -139 684 -139 718.5 -90 c 128,-1,35
 753 -41 753 -41 820 0 c 1,36,-1
 819 0 l 2,37,38
 795 0 795 0 778.5 11.5 c 128,-1,39
 762 23 762 23 757 46 c 2,40,-1
 739 118 l 1,41,42
 680 59 680 59 608.5 22 c 128,-1,43
 537 -15 537 -15 439 -15 c 0,44,45
 358 -15 358 -15 296 13 c 128,-1,46
 234 41 234 41 192 91 c 128,-1,47
 150 141 150 141 128.5 210 c 128,-1,48
 107 279 107 279 107 362 c 2,49,-1
 107 993 l 1,50,-1
 361 993 l 1,0,-1
EndSplineSet
Validated: 1
EndChar

StartChar: v
Encoding: 88 118 136
Width: 969
GlyphClass: 2
Flags: W
LayerCount: 2
Fore
SplineSet
600 0 m 1,0,-1
 369 0 l 1,1,-1
 11 993 l 1,2,-1
 221 993 l 2,3,4
 249 993 249 993 267.5 979.5 c 128,-1,5
 286 966 286 966 293 947 c 2,6,-1
 438 440 l 1,7,8
 469 348 469 348 487 255 c 1,9,10
 497 301 497 301 509.5 346.5 c 128,-1,11
 522 392 522 392 539 440 c 2,12,-1
 689 947 l 2,13,14
 696 967 696 967 714 980 c 128,-1,15
 732 993 732 993 757 993 c 2,16,-1
 958 993 l 1,17,-1
 600 0 l 1,0,-1
EndSplineSet
Validated: 1
Substitution2: "sous-table 'ordn' Ordinaux dans Latin lookup 39" v.superior
Substitution2: "sous-table 'sups' Exposant lookups25" v.superior
EndChar

StartChar: w
Encoding: 89 119 137
Width: 1526
GlyphClass: 2
Flags: W
LayerCount: 2
Fore
SplineSet
7 993 m 1,0,-1
 209 993 l 2,1,2
 237 993 237 993 256.5 979.5 c 128,-1,3
 276 966 276 966 281 946 c 2,4,-1
 407 440 l 2,5,6
 418 395 418 395 427.5 351.5 c 128,-1,7
 437 308 437 308 444 266 c 1,8,9
 455 308 455 308 467.5 351.5 c 128,-1,10
 480 395 480 395 494 440 c 2,11,-1
 644 948 l 2,12,13
 650 968 650 968 668 981 c 128,-1,14
 686 994 686 994 712 994 c 2,15,-1
 824 994 l 2,16,17
 851 994 851 994 870 981 c 128,-1,18
 889 968 889 968 895 948 c 2,19,-1
 1039 440 l 2,20,21
 1067 348 1067 348 1087 265 c 1,22,23
 1095 308 1095 308 1104 351 c 128,-1,24
 1113 394 1113 394 1126 441 c 2,25,-1
 1258 947 l 2,26,27
 1263 967 1263 967 1281.5 980 c 128,-1,28
 1300 993 1300 993 1326 993 c 2,29,-1
 1519 993 l 1,30,-1
 1210 0 l 1,31,-1
 1005 0 l 2,32,33
 970 0 970 0 957 44 c 2,34,-1
 793 596 l 2,35,36
 773 657 773 657 763 715 c 1,37,38
 751 655 751 655 733 595 c 2,39,-1
 566 44 l 2,40,41
 552 0 552 0 511 0 c 2,42,-1
 316 0 l 1,43,-1
 7 993 l 1,0,-1
EndSplineSet
Validated: 1
Substitution2: "sous-table 'ordn' Ordinaux dans Latin lookup 39" w.superior
Substitution2: "sous-table 'sups' Exposant lookups25" w.superior
EndChar

StartChar: x
Encoding: 90 120 138
Width: 941
GlyphClass: 2
Flags: W
LayerCount: 2
Fore
SplineSet
304 512 m 1,0,-1
 28 993 l 1,1,-1
 272 993 l 2,2,3
 299 993 299 993 311.5 985.5 c 128,-1,4
 324 978 324 978 334 961 c 2,5,-1
 491 657 l 1,6,7
 496 669 496 669 502 681.5 c 128,-1,8
 508 694 508 694 516 707 c 2,9,-1
 624 957 l 1,10,11
 646 993 646 993 680 993 c 2,12,-1
 913 993 l 1,13,-1
 636 525 l 1,14,-1
 925 0 l 1,15,-1
 681 0 l 2,16,17
 654 0 654 0 637 14.5 c 128,-1,18
 620 29 620 29 610 46 c 2,19,-1
 452 361 l 1,20,21
 448 350 448 350 443.5 340 c 128,-1,22
 439 330 439 330 434 322 c 2,23,-1
 309 46 l 2,24,25
 298 29 298 29 282.5 14.5 c 128,-1,26
 267 0 267 0 242 0 c 2,27,-1
 16 0 l 1,28,-1
 304 512 l 1,0,-1
EndSplineSet
Validated: 1
Substitution2: "sous-table 'ordn' Ordinaux dans Latin lookup 39" x.superior
Substitution2: "sous-table 'sups' Exposant lookups25" x.superior
EndChar

StartChar: y
Encoding: 91 121 139
Width: 970
GlyphClass: 2
Flags: W
LayerCount: 2
Fore
SplineSet
467 -269 m 2,0,1
 456 -295 456 -295 438.5 -308.5 c 128,-1,2
 421 -322 421 -322 386 -322 c 2,3,-1
 195 -322 l 1,4,-1
 372 78 l 1,5,-1
 3 993 l 1,6,-1
 226 993 l 2,7,8
 257 993 257 993 272.5 979 c 128,-1,9
 288 965 288 965 296 947 c 2,10,-1
 462 456 l 2,11,12
 473 429 473 429 481 402 c 128,-1,13
 489 375 489 375 497 348 c 1,14,15
 505 376 505 376 514 403.5 c 128,-1,16
 523 431 523 431 534 458 c 2,17,-1
 689 947 l 2,18,19
 696 967 696 967 715 980 c 128,-1,20
 734 993 734 993 757 993 c 2,21,-1
 960 993 l 1,22,-1
 467 -269 l 2,0,1
EndSplineSet
Validated: 1
Substitution2: "sous-table 'ordn' Ordinaux dans Latin lookup 39" y.superior
Substitution2: "sous-table 'sups' Exposant lookups25" y.superior
EndChar

StartChar: z
Encoding: 92 122 140
Width: 814
GlyphClass: 2
Flags: W
LayerCount: 2
Fore
SplineSet
761 889 m 2,0,1
 761 861 761 861 752 836 c 128,-1,2
 743 811 743 811 730 794 c 2,3,-1
 345 194 l 1,4,-1
 752 194 l 1,5,-1
 752 0 l 1,6,-1
 55 0 l 1,7,-1
 55 105 l 2,8,9
 55 122 55 122 63 147 c 128,-1,10
 71 172 71 172 88 192 c 2,11,-1
 472 799 l 1,12,-1
 79 799 l 1,13,-1
 79 993 l 1,14,-1
 761 993 l 1,15,-1
 761 889 l 2,0,1
EndSplineSet
Validated: 1
Substitution2: "sous-table 'ordn' Ordinaux dans Latin lookup 39" z.superior
Substitution2: "sous-table 'sups' Exposant lookups25" z.superior
EndChar

StartChar: ordfeminine
Encoding: 106 170 141
Width: 852
GlyphClass: 2
Flags: W
LayerCount: 2
Fore
SplineSet
404 928 m 0,0,1
 438 928 438 928 463.5 940 c 128,-1,2
 489 952 489 952 517 978 c 1,3,-1
 517 1051 l 1,4,5
 463 1049 463 1049 428.5 1042.5 c 128,-1,6
 394 1036 394 1036 374 1026 c 128,-1,7
 354 1016 354 1016 346.5 1003.5 c 128,-1,8
 339 991 339 991 339 977 c 0,9,10
 339 950 339 950 355.5 939 c 128,-1,11
 372 928 372 928 404 928 c 0,0,1
610 812 m 2,12,13
 585 812 585 812 572.5 819 c 128,-1,14
 560 826 560 826 549 849 c 2,15,-1
 537 880 l 1,16,17
 514 861 514 861 493.5 847 c 128,-1,18
 473 833 473 833 450.5 823.5 c 128,-1,19
 428 814 428 814 402.5 809 c 128,-1,20
 377 804 377 804 346 804 c 0,21,22
 264 804 264 804 214 846.5 c 128,-1,23
 164 889 164 889 164 969 c 0,24,25
 164 1001 164 1001 180 1034 c 128,-1,26
 196 1067 196 1067 236 1094.5 c 128,-1,27
 276 1122 276 1122 344.5 1140.5 c 128,-1,28
 413 1159 413 1159 517 1161 c 1,29,-1
 517 1184 l 2,30,31
 517 1233 517 1233 495.5 1253 c 128,-1,32
 474 1273 474 1273 433 1273 c 0,33,34
 401 1273 401 1273 381 1266.5 c 128,-1,35
 361 1260 361 1260 345 1252.5 c 128,-1,36
 329 1245 329 1245 314 1238.5 c 128,-1,37
 299 1232 299 1232 278 1232 c 0,38,39
 259 1232 259 1232 246.5 1242 c 128,-1,40
 234 1252 234 1252 226 1265 c 2,41,-1
 193 1323 l 1,42,43
 248 1373 248 1373 313.5 1395.5 c 128,-1,44
 379 1418 379 1418 456 1418 c 0,45,46
 511 1418 511 1418 555.5 1400.5 c 128,-1,47
 600 1383 600 1383 631 1351.5 c 128,-1,48
 662 1320 662 1320 678.5 1277 c 128,-1,49
 695 1234 695 1234 695 1184 c 2,50,-1
 695 812 l 1,51,-1
 610 812 l 2,12,13
EndSplineSet
Substitution2: "sous-table 'case' Formes sensibles +AOAA la casse lookups14" ordfeminine.case
EndChar

StartChar: ordmasculine
Encoding: 121 186 142
Width: 891
GlyphClass: 2
Flags: W
LayerCount: 2
Fore
SplineSet
447 1416 m 0,0,1
 518 1416 518 1416 576.5 1395 c 128,-1,2
 635 1374 635 1374 677 1334.5 c 128,-1,3
 719 1295 719 1295 742.5 1238 c 128,-1,4
 766 1181 766 1181 766 1110 c 0,5,6
 766 1038 766 1038 742.5 980.5 c 128,-1,7
 719 923 719 923 677 883 c 128,-1,8
 635 843 635 843 576.5 821.5 c 128,-1,9
 518 800 518 800 447 800 c 0,10,11
 375 800 375 800 316 821.5 c 128,-1,12
 257 843 257 843 214.5 883 c 128,-1,13
 172 923 172 923 148.5 980.5 c 128,-1,14
 125 1038 125 1038 125 1110 c 0,15,16
 125 1181 125 1181 148.5 1238 c 128,-1,17
 172 1295 172 1295 214.5 1334.5 c 128,-1,18
 257 1374 257 1374 316 1395 c 128,-1,19
 375 1416 375 1416 447 1416 c 0,0,1
447 948 m 0,20,21
 508 948 508 948 537.5 986.5 c 128,-1,22
 567 1025 567 1025 567 1109 c 256,23,24
 567 1193 567 1193 537.5 1231 c 128,-1,25
 508 1269 508 1269 447 1269 c 0,26,27
 382 1269 382 1269 352.5 1231 c 128,-1,28
 323 1193 323 1193 323 1109 c 256,29,30
 323 1025 323 1025 352.5 986.5 c 128,-1,31
 382 948 382 948 447 948 c 0,20,21
EndSplineSet
Validated: 1
EndChar

StartChar: ordfeminine.case
Encoding: 2158 -1 143
Width: 933
GlyphClass: 2
Flags: W
LayerCount: 2
Fore
SplineSet
719 812 m 1,0,-1
 579 812 l 2,1,2
 559 812 559 812 545.5 822 c 128,-1,3
 532 832 532 832 527 846 c 2,4,-1
 505 912 l 1,5,-1
 317 912 l 1,6,-1
 296 847 l 2,7,8
 291 834 291 834 278 823 c 128,-1,9
 265 812 265 812 246 812 c 2,10,-1
 104 812 l 1,11,-1
 331 1398 l 1,12,-1
 494 1398 l 1,13,-1
 719 812 l 1,0,-1
361 1041 m 1,14,-1
 463 1041 l 1,15,-1
 425 1156 l 2,16,17
 421 1167 421 1167 418 1178.5 c 128,-1,18
 415 1190 415 1190 412 1204 c 1,19,20
 409 1190 409 1190 405.5 1178 c 128,-1,21
 402 1166 402 1166 399 1155 c 2,22,-1
 361 1041 l 1,14,-1
EndSplineSet
Validated: 1
EndChar

StartChar: a.superior
Encoding: 2159 -1 144
Width: 703
GlyphClass: 2
Flags: W
LayerCount: 2
Fore
SplineSet
497 886 m 2,0,1
 472 886 472 886 459.5 892.5 c 128,-1,2
 447 899 447 899 437 920 c 2,3,-1
 428 940 l 1,4,5
 390 909 390 909 356 893.5 c 128,-1,6
 322 878 322 878 271 878 c 0,7,8
 196 878 196 878 155 915.5 c 128,-1,9
 114 953 114 953 114 1022 c 0,10,11
 114 1048 114 1048 126.5 1077 c 128,-1,12
 139 1106 139 1106 172 1130 c 128,-1,13
 205 1154 205 1154 261.5 1171 c 128,-1,14
 318 1188 318 1188 406 1190 c 1,15,-1
 406 1203 l 2,16,17
 406 1240 406 1240 390.5 1254.5 c 128,-1,18
 375 1269 375 1269 347 1269 c 0,19,20
 322 1269 322 1269 306.5 1264.5 c 128,-1,21
 291 1260 291 1260 278.5 1254 c 128,-1,22
 266 1248 266 1248 253 1243.5 c 128,-1,23
 240 1239 240 1239 220 1239 c 0,24,25
 202 1239 202 1239 189.5 1247.5 c 128,-1,26
 177 1256 177 1256 169 1270 c 2,27,-1
 136 1327 l 1,28,29
 184 1369 184 1369 243.5 1389 c 128,-1,30
 303 1409 303 1409 370 1409 c 0,31,32
 418 1409 418 1409 456.5 1393.5 c 128,-1,33
 495 1378 495 1378 522 1350.5 c 128,-1,34
 549 1323 549 1323 563.5 1285 c 128,-1,35
 578 1247 578 1247 578 1203 c 2,36,-1
 578 886 l 1,37,-1
 497 886 l 2,0,1
328 998 m 0,38,39
 351 998 351 998 368.5 1005 c 128,-1,40
 386 1012 386 1012 406 1031 c 1,41,-1
 406 1084 l 1,42,43
 367 1082 367 1082 343 1076.5 c 128,-1,44
 319 1071 319 1071 305.5 1064 c 128,-1,45
 292 1057 292 1057 287.5 1048.5 c 128,-1,46
 283 1040 283 1040 283 1031 c 0,47,48
 283 1013 283 1013 293.5 1005.5 c 128,-1,49
 304 998 304 998 328 998 c 0,38,39
EndSplineSet
Validated: 1
EndChar

StartChar: b.superior
Encoding: 2160 -1 145
Width: 757
GlyphClass: 2
Flags: W
LayerCount: 2
Fore
SplineSet
317 1352 m 1,0,1
 344 1377 344 1377 378.5 1391.5 c 128,-1,2
 413 1406 413 1406 461 1406 c 0,3,4
 499 1406 499 1406 532.5 1388.5 c 128,-1,5
 566 1371 566 1371 590.5 1337.5 c 128,-1,6
 615 1304 615 1304 629.5 1255.5 c 128,-1,7
 644 1207 644 1207 644 1146 c 0,8,9
 644 1088 644 1088 627.5 1039 c 128,-1,10
 611 990 611 990 582 954 c 128,-1,11
 553 918 553 918 513 898 c 128,-1,12
 473 878 473 878 425 878 c 0,13,14
 379 878 379 878 352 895 c 128,-1,15
 325 912 325 912 302 937 c 1,16,-1
 299 918 l 2,17,18
 296 899 296 899 285.5 892.5 c 128,-1,19
 275 886 275 886 258 886 c 2,20,-1
 140 886 l 1,21,-1
 140 1623 l 1,22,-1
 317 1623 l 1,23,-1
 317 1352 l 1,0,1
394 1269 m 0,24,25
 370 1269 370 1269 352.5 1260.5 c 128,-1,26
 335 1252 335 1252 317 1233 c 1,27,-1
 317 1033 l 1,28,29
 331 1021 331 1021 348 1016.5 c 128,-1,30
 365 1012 365 1012 382 1012 c 0,31,32
 397 1012 397 1012 411.5 1018 c 128,-1,33
 426 1024 426 1024 436.5 1039 c 128,-1,34
 447 1054 447 1054 453.5 1080 c 128,-1,35
 460 1106 460 1106 460 1146 c 0,36,37
 460 1218 460 1218 442 1243.5 c 128,-1,38
 424 1269 424 1269 394 1269 c 0,24,25
EndSplineSet
Validated: 1
EndChar

StartChar: c.superior
Encoding: 2161 -1 146
Width: 580
GlyphClass: 2
Flags: W
LayerCount: 2
Fore
SplineSet
480 1262 m 2,0,1
 472 1251 472 1251 465 1245.5 c 128,-1,2
 458 1240 458 1240 444 1240 c 0,3,4
 432 1240 432 1240 422.5 1245 c 128,-1,5
 413 1250 413 1250 402.5 1256 c 128,-1,6
 392 1262 392 1262 379 1267 c 128,-1,7
 366 1272 366 1272 345 1272 c 0,8,9
 294 1272 294 1272 273 1238 c 128,-1,10
 252 1204 252 1204 252 1143 c 0,11,12
 252 1080 252 1080 276 1046 c 128,-1,13
 300 1012 300 1012 343 1012 c 0,14,15
 367 1012 367 1012 380.5 1018 c 128,-1,16
 394 1024 394 1024 404 1031.5 c 128,-1,17
 414 1039 414 1039 423 1045 c 128,-1,18
 432 1051 432 1051 447 1051 c 0,19,20
 468 1051 468 1051 479 1035 c 2,21,-1
 530 969 l 1,22,23
 504 939 504 939 476 921 c 128,-1,24
 448 903 448 903 419.5 893.5 c 128,-1,25
 391 884 391 884 363 881 c 128,-1,26
 335 878 335 878 310 878 c 0,27,28
 263 878 263 878 219.5 896 c 128,-1,29
 176 914 176 914 143 947.5 c 128,-1,30
 110 981 110 981 90.5 1030.5 c 128,-1,31
 71 1080 71 1080 71 1143 c 0,32,33
 71 1198 71 1198 87.5 1246 c 128,-1,34
 104 1294 104 1294 137 1329.5 c 128,-1,35
 170 1365 170 1365 218.5 1385.5 c 128,-1,36
 267 1406 267 1406 332 1406 c 0,37,38
 395 1406 395 1406 442.5 1386 c 128,-1,39
 490 1366 490 1366 528 1326 c 1,40,-1
 480 1262 l 2,0,1
EndSplineSet
Validated: 1
EndChar

StartChar: d.superior
Encoding: 2162 -1 147
Width: 757
GlyphClass: 2
Flags: W
LayerCount: 2
Fore
SplineSet
505 886 m 2,0,1
 471 886 471 886 463 915 c 2,2,-1
 454 949 l 1,3,4
 425 917 425 917 387.5 897.5 c 128,-1,5
 350 878 350 878 296 878 c 0,6,7
 258 878 258 878 224.5 896 c 128,-1,8
 191 914 191 914 166.5 948 c 128,-1,9
 142 982 142 982 128 1030.5 c 128,-1,10
 114 1079 114 1079 114 1140 c 0,11,12
 114 1198 114 1198 130 1247.5 c 128,-1,13
 146 1297 146 1297 175 1333 c 128,-1,14
 204 1369 204 1369 244 1389 c 128,-1,15
 284 1409 284 1409 332 1409 c 0,16,17
 369 1409 369 1409 394 1399 c 128,-1,18
 419 1389 419 1389 439 1373 c 1,19,-1
 439 1623 l 1,20,-1
 616 1623 l 1,21,-1
 616 886 l 1,22,-1
 505 886 l 2,0,1
368 1017 m 0,23,24
 391 1017 391 1017 407.5 1025 c 128,-1,25
 424 1033 424 1033 439 1050 c 1,26,-1
 439 1252 l 1,27,28
 424 1265 424 1265 407.5 1270 c 128,-1,29
 391 1275 391 1275 375 1275 c 256,30,31
 359 1275 359 1275 345 1269 c 128,-1,32
 331 1263 331 1263 320 1247.5 c 128,-1,33
 309 1232 309 1232 302.5 1206 c 128,-1,34
 296 1180 296 1180 296 1140 c 0,35,36
 296 1069 296 1069 315 1043 c 128,-1,37
 334 1017 334 1017 368 1017 c 0,23,24
EndSplineSet
Validated: 1
EndChar

StartChar: e.superior
Encoding: 2163 -1 148
Width: 711
GlyphClass: 2
Flags: W
LayerCount: 2
Fore
SplineSet
367 1406 m 0,0,1
 419 1406 419 1406 462.5 1390 c 128,-1,2
 506 1374 506 1374 537.5 1343.5 c 128,-1,3
 569 1313 569 1313 586 1269 c 128,-1,4
 603 1225 603 1225 603 1169 c 0,5,6
 603 1128 603 1128 595.5 1114.5 c 128,-1,7
 588 1101 588 1101 564 1101 c 2,8,-1
 287 1101 l 1,9,10
 297 1053 297 1053 323 1033.5 c 128,-1,11
 349 1014 349 1014 391 1014 c 0,12,13
 415 1014 415 1014 432 1020 c 128,-1,14
 449 1026 449 1026 463.5 1032.5 c 128,-1,15
 478 1039 478 1039 491 1045 c 128,-1,16
 504 1051 504 1051 519 1051 c 0,17,18
 538 1051 538 1051 551 1035 c 2,19,-1
 602 969 l 1,20,21
 576 939 576 939 546.5 921 c 128,-1,22
 517 903 517 903 487.5 893.5 c 128,-1,23
 458 884 458 884 429 881 c 128,-1,24
 400 878 400 878 375 878 c 0,25,26
 321 878 321 878 272.5 895 c 128,-1,27
 224 912 224 912 188 946.5 c 128,-1,28
 152 981 152 981 130.5 1033 c 128,-1,29
 109 1085 109 1085 109 1154 c 0,30,31
 109 1204 109 1204 127 1250 c 128,-1,32
 145 1296 145 1296 178 1330.5 c 128,-1,33
 211 1365 211 1365 259 1385.5 c 128,-1,34
 307 1406 307 1406 367 1406 c 0,0,1
370 1281 m 0,35,36
 302 1281 302 1281 287 1206 c 1,37,-1
 445 1206 l 1,38,39
 445 1218 445 1218 442 1231 c 128,-1,40
 439 1244 439 1244 430.5 1255.5 c 128,-1,41
 422 1267 422 1267 407.5 1274 c 128,-1,42
 393 1281 393 1281 370 1281 c 0,35,36
EndSplineSet
Validated: 1
EndChar

StartChar: f.superior
Encoding: 2164 -1 149
Width: 464
GlyphClass: 2
Flags: W
LayerCount: 2
Fore
SplineSet
128 886 m 1,0,-1
 128 1280 l 1,1,-1
 103 1287 l 2,2,3
 83 1291 83 1291 71 1300.5 c 128,-1,4
 59 1310 59 1310 59 1330 c 2,5,-1
 59 1402 l 1,6,-1
 128 1402 l 1,7,-1
 128 1421 l 2,8,9
 128 1465 128 1465 142.5 1501 c 128,-1,10
 157 1537 157 1537 185 1563 c 128,-1,11
 213 1589 213 1589 253 1603.5 c 128,-1,12
 293 1618 293 1618 344 1618 c 0,13,14
 364 1618 364 1618 379.5 1616 c 128,-1,15
 395 1614 395 1614 414 1610 c 1,16,-1
 410 1520 l 2,17,18
 408 1486 408 1486 368 1486 c 0,19,20
 335 1486 335 1486 317 1472 c 128,-1,21
 299 1458 299 1458 299 1415 c 2,22,-1
 299 1402 l 1,23,-1
 408 1402 l 1,24,-1
 408 1278 l 1,25,-1
 305 1278 l 1,26,-1
 305 886 l 1,27,-1
 128 886 l 1,0,-1
EndSplineSet
Validated: 1
EndChar

StartChar: g.superior
Encoding: 2165 -1 150
Width: 747
GlyphClass: 2
Flags: W
LayerCount: 2
Fore
SplineSet
456.82421875 1256.94824219 m 1,0,1
 442.30859375 1274.94921875 442.30859375 1274.94921875 425.305664062 1282.53027344 c 128,-1,2
 408.302734375 1290.109375 408.302734375 1290.109375 389.641601562 1290.109375 c 0,3,4
 371.810546875 1290.109375 371.810546875 1290.109375 356.880859375 1282.29296875 c 128,-1,5
 341.951171875 1274.47558594 341.951171875 1274.47558594 330.9609375 1257.421875 c 128,-1,6
 319.971679688 1240.36914062 319.971679688 1240.36914062 313.751953125 1213.83984375 c 128,-1,7
 307.53125 1187.3125 307.53125 1187.3125 307.53125 1150.36132812 c 0,8,9
 307.53125 1079.3046875 307.53125 1079.3046875 327.229492188 1047.80273438 c 128,-1,10
 346.926757812 1016.29980469 346.926757812 1016.29980469 383.421875 1016.29980469 c 0,11,12
 406.645507812 1016.29980469 406.645507812 1016.29980469 423.439453125 1028.14355469 c 128,-1,13
 440.235351562 1039.98535156 440.235351562 1039.98535156 456.82421875 1062.72460938 c 1,14,-1
 456.82421875 1256.94824219 l 1,0,1
615.204101562 1398.12792969 m 1,15,-1
 615.204101562 931.810546875 l 2,16,17
 615.204101562 884.439453125 615.204101562 884.439453125 595.8671875 843.975585938 c 128,-1,18
 576.532226562 803.512695312 576.532226562 803.512695312 540.659179688 774.3984375 c 128,-1,19
 504.786132812 745.284179688 504.786132812 745.284179688 453.393554688 728.75390625 c 128,-1,20
 402.001953125 712.22265625 402.001953125 712.22265625 337.887695312 712.22265625 c 0,21,22
 301.252929688 712.22265625 301.252929688 712.22265625 270.721679688 717.404296875 c 128,-1,23
 240.19140625 722.584960938 240.19140625 722.584960938 215.00390625 731.467773438 c 128,-1,24
 189.81640625 740.349609375 189.81640625 740.349609375 169.97265625 752.193359375 c 128,-1,25
 150.127929688 764.036132812 150.127929688 764.036132812 134.862304688 777.358398438 c 1,26,-1
 171.499023438 834.106445312 l 2,27,28
 177.60546875 843.975585938 177.60546875 843.975585938 187.017578125 849.404296875 c 128,-1,29
 196.431640625 854.83203125 196.431640625 854.83203125 211.1875 854.83203125 c 0,30,31
 224.926757812 854.83203125 224.926757812 854.83203125 235.612304688 849.157226562 c 128,-1,32
 246.297851562 843.482421875 246.297851562 843.482421875 259.017578125 836.327148438 c 128,-1,33
 271.739257812 829.170898438 271.739257812 829.170898438 289.040039062 823.497070312 c 128,-1,34
 306.33984375 817.823242188 306.33984375 817.823242188 333.307617188 817.823242188 c 0,35,36
 364.346679688 817.823242188 364.346679688 817.823242188 387.752929688 826.458007812 c 128,-1,37
 411.16015625 835.092773438 411.16015625 835.092773438 426.680664062 849.8984375 c 128,-1,38
 442.19921875 864.701171875 442.19921875 864.701171875 449.83203125 883.946289062 c 128,-1,39
 457.46484375 903.19140625 457.46484375 903.19140625 457.46484375 924.409179688 c 2,40,-1
 457.46484375 947.6015625 l 1,41,42
 442.708007812 933.291015625 442.708007812 933.291015625 428.4609375 922.928710938 c 128,-1,43
 414.212890625 912.56640625 414.212890625 912.56640625 398.693359375 905.905273438 c 128,-1,44
 383.173828125 899.244140625 383.173828125 899.244140625 365.111328125 896.28125 c 128,-1,45
 347.045898438 893.321289062 347.045898438 893.321289062 324.1484375 893.321289062 c 0,46,47
 274.79296875 893.321289062 274.79296875 893.321289062 235.357421875 911.580078125 c 128,-1,48
 195.922851562 929.836914062 195.922851562 929.836914062 168.4453125 963.392578125 c 128,-1,49
 140.967773438 996.947265625 140.967773438 996.947265625 126.211914062 1044.31933594 c 128,-1,50
 111.455078125 1091.69140625 111.455078125 1091.69140625 111.455078125 1149.91796875 c 0,51,52
 111.455078125 1203.70507812 111.455078125 1203.70507812 127.73828125 1250.83105469 c 128,-1,53
 144.021484375 1297.95507812 144.021484375 1297.95507812 173.7890625 1332.74511719 c 128,-1,54
 203.5546875 1367.53320312 203.5546875 1367.53320312 245.279296875 1387.51757812 c 128,-1,55
 287.00390625 1407.50292969 287.00390625 1407.50292969 337.37890625 1407.50292969 c 0,56,57
 361.294921875 1407.50292969 361.294921875 1407.50292969 380.629882812 1403.55566406 c 128,-1,58
 399.965820312 1399.60742188 399.965820312 1399.60742188 415.993164062 1392.20605469 c 128,-1,59
 432.021484375 1384.80371094 432.021484375 1384.80371094 445.76171875 1374.68847656 c 128,-1,60
 459.499023438 1364.57226562 459.499023438 1364.57226562 472.220703125 1352.23632812 c 1,61,-1
 478.834960938 1372.46777344 l 2,62,63
 487.995117188 1398.12792969 487.995117188 1398.12792969 517.5078125 1398.12792969 c 2,64,-1
 615.204101562 1398.12792969 l 1,15,-1
EndSplineSet
Substitution2: "sous-table 'salt' Alternatives stylistiques lookups28" g.superior.salt
Substitution2: "sous-table 'ss04' Style 4 lookups34" g.superior.salt
EndChar

StartChar: h.superior
Encoding: 2166 -1 151
Width: 763
GlyphClass: 2
Flags: W
LayerCount: 2
Fore
SplineSet
150 886 m 1,0,-1
 150 1623 l 1,1,-1
 327 1623 l 1,2,-1
 327 1362 l 1,3,4
 352 1382 352 1382 382 1394 c 128,-1,5
 412 1406 412 1406 455 1406 c 0,6,7
 497 1406 497 1406 529 1391 c 128,-1,8
 561 1376 561 1376 583.5 1350 c 128,-1,9
 606 1324 606 1324 617.5 1288.5 c 128,-1,10
 629 1253 629 1253 629 1211 c 2,11,-1
 629 886 l 1,12,-1
 452 886 l 1,13,-1
 452 1211 l 2,14,15
 452 1269 452 1269 399 1269 c 0,16,17
 379 1269 379 1269 361.5 1261.5 c 128,-1,18
 344 1254 344 1254 327 1241 c 1,19,-1
 327 886 l 1,20,-1
 150 886 l 1,0,-1
EndSplineSet
Validated: 1
EndChar

StartChar: i.superior
Encoding: 2167 -1 152
Width: 378
GlyphClass: 2
Flags: W
LayerCount: 2
Fore
SplineSet
278 1367 m 1,0,-1
 278 886 l 1,1,-1
 101 886 l 1,2,-1
 101 1367 l 1,3,-1
 278 1367 l 1,0,-1
295 1529 m 256,4,5
 295 1508 295 1508 286.5 1489.5 c 128,-1,6
 278 1471 278 1471 264 1457 c 128,-1,7
 250 1443 250 1443 231 1435 c 128,-1,8
 212 1427 212 1427 190 1427 c 0,9,10
 169 1427 169 1427 151 1435 c 128,-1,11
 133 1443 133 1443 119 1457 c 128,-1,12
 105 1471 105 1471 97 1489.5 c 128,-1,13
 89 1508 89 1508 89 1529 c 256,14,15
 89 1550 89 1550 97 1568.5 c 128,-1,16
 105 1587 105 1587 119 1601 c 128,-1,17
 133 1615 133 1615 151 1623 c 128,-1,18
 169 1631 169 1631 190 1631 c 0,19,20
 212 1631 212 1631 231 1623 c 128,-1,21
 250 1615 250 1615 264 1601 c 128,-1,22
 278 1587 278 1587 286.5 1568.5 c 128,-1,23
 295 1550 295 1550 295 1529 c 256,4,5
EndSplineSet
Validated: 1
EndChar

StartChar: j.superior
Encoding: 2168 -1 153
Width: 388
GlyphClass: 2
Flags: W
LayerCount: 2
Fore
SplineSet
287 1367 m 1,0,-1
 287 903 l 2,1,2
 287 864 287 864 277.5 830 c 128,-1,3
 268 796 268 796 245.5 770 c 128,-1,4
 223 744 223 744 185.5 729 c 128,-1,5
 148 714 148 714 93 714 c 0,6,7
 74 714 74 714 57 716 c 128,-1,8
 40 718 40 718 21 722 c 1,9,-1
 27 817 l 2,10,11
 28 828 28 828 33 836 c 128,-1,12
 38 844 38 844 56 844 c 0,13,14
 73 844 73 844 83.5 846 c 128,-1,15
 94 848 94 848 99.5 854 c 128,-1,16
 105 860 105 860 107 871.5 c 128,-1,17
 109 883 109 883 109 903 c 2,18,-1
 109 1367 l 1,19,-1
 287 1367 l 1,0,-1
303 1529 m 256,20,21
 303 1508 303 1508 294.5 1489.5 c 128,-1,22
 286 1471 286 1471 272 1457 c 128,-1,23
 258 1443 258 1443 239 1435 c 128,-1,24
 220 1427 220 1427 198 1427 c 0,25,26
 177 1427 177 1427 159 1435 c 128,-1,27
 141 1443 141 1443 127 1457 c 128,-1,28
 113 1471 113 1471 105 1489.5 c 128,-1,29
 97 1508 97 1508 97 1529 c 256,30,31
 97 1550 97 1550 105 1568.5 c 128,-1,32
 113 1587 113 1587 127 1601 c 128,-1,33
 141 1615 141 1615 159 1623 c 128,-1,34
 177 1631 177 1631 198 1631 c 0,35,36
 220 1631 220 1631 239 1623 c 128,-1,37
 258 1615 258 1615 272 1601 c 128,-1,38
 286 1587 286 1587 294.5 1568.5 c 128,-1,39
 303 1550 303 1550 303 1529 c 256,20,21
EndSplineSet
Validated: 1
EndChar

StartChar: k.superior
Encoding: 2169 -1 154
Width: 704
GlyphClass: 2
Flags: W
LayerCount: 2
Fore
SplineSet
290 1623 m 1,0,-1
 290 1220 l 1,1,-1
 312 1220 l 2,2,3
 328 1220 328 1220 336.5 1224.5 c 128,-1,4
 345 1229 345 1229 351 1240 c 2,5,-1
 422 1371 l 2,6,7
 438 1398 438 1398 478 1398 c 2,8,-1
 640 1398 l 1,9,-1
 531 1225 l 2,10,11
 510 1192 510 1192 478 1175 c 1,12,13
 505 1161 505 1161 522 1128 c 2,14,-1
 644 886 l 1,15,-1
 484 886 l 2,16,17
 464 886 464 886 448.5 892 c 128,-1,18
 433 898 433 898 426 915 c 2,19,-1
 358 1083 l 2,20,21
 352 1097 352 1097 343.5 1100 c 128,-1,22
 335 1103 335 1103 321 1103 c 2,23,-1
 290 1103 l 1,24,-1
 290 886 l 1,25,-1
 113 886 l 1,26,-1
 113 1623 l 1,27,-1
 290 1623 l 1,0,-1
EndSplineSet
Validated: 1
EndChar

StartChar: l.superior
Encoding: 2170 -1 155
Width: 374
GlyphClass: 2
Flags: W
LayerCount: 2
Fore
SplineSet
275 1623 m 1,0,-1
 275 886 l 1,1,-1
 99 886 l 1,2,-1
 99 1623 l 1,3,-1
 275 1623 l 1,0,-1
EndSplineSet
Validated: 1
EndChar

StartChar: m.superior
Encoding: 2171 -1 156
Width: 1132
GlyphClass: 2
Flags: W
LayerCount: 2
Fore
SplineSet
192 886 m 1,0,-1
 192 1398 l 1,1,-1
 303 1398 l 2,2,3
 335 1398 335 1398 341 1367 c 2,4,-1
 345 1343 l 1,5,6
 371 1369 371 1369 402.5 1387.5 c 128,-1,7
 434 1406 434 1406 481 1406 c 0,8,9
 526 1406 526 1406 555 1383.5 c 128,-1,10
 584 1361 584 1361 601 1324 c 1,11,12
 628 1368 628 1368 673.5 1387 c 128,-1,13
 719 1406 719 1406 766 1406 c 0,14,15
 857 1406 857 1406 904 1355 c 128,-1,16
 951 1304 951 1304 951 1211 c 2,17,-1
 951 886 l 1,18,-1
 775 886 l 1,19,-1
 775 1211 l 2,20,21
 775 1269 775 1269 719 1269 c 0,22,23
 694 1269 694 1269 678 1254 c 128,-1,24
 662 1239 662 1239 662 1211 c 2,25,-1
 662 886 l 1,26,-1
 484 886 l 1,27,-1
 484 1211 l 2,28,29
 484 1240 484 1240 471.5 1254.5 c 128,-1,30
 459 1269 459 1269 428 1269 c 0,31,32
 411 1269 411 1269 396.5 1263 c 128,-1,33
 382 1257 382 1257 369 1246 c 1,34,-1
 369 886 l 1,35,-1
 192 886 l 1,0,-1
EndSplineSet
Validated: 1
EndChar

StartChar: uni207F
Encoding: 1918 8319 157
Width: 761
GlyphClass: 2
Flags: W
LayerCount: 2
Fore
SplineSet
148 886 m 1,0,-1
 148 1399 l 1,1,-1
 242 1399 l 2,2,3
 276 1399 276 1399 287 1364 c 2,4,-1
 295 1337 l 1,5,6
 326 1367 326 1367 361.5 1386.5 c 128,-1,7
 397 1406 397 1406 451 1406 c 0,8,9
 493 1406 493 1406 525.5 1391 c 128,-1,10
 558 1376 558 1376 580 1350 c 128,-1,11
 602 1324 602 1324 613.5 1288.5 c 128,-1,12
 625 1253 625 1253 625 1212 c 2,13,-1
 625 886 l 1,14,-1
 449 886 l 1,15,-1
 449 1212 l 2,16,17
 449 1268 449 1268 395 1268 c 0,18,19
 358 1268 358 1268 324 1240 c 1,20,-1
 324 886 l 1,21,-1
 148 886 l 1,0,-1
EndSplineSet
Validated: 1
EndChar

